/* XPM */
static char *result[] = {
/* columns rows colors chars-per-pixel */
"50 50 131 2 ",
"   c #7E9FEB",
".  c #5EB9E5",
"X  c #63ADE7",
"o  c #6DADE7",
"O  c #6BAEE8",
"+  c #79A3EA",
"@  c #65B6E7",
"#  c #6AB4E7",
"$  c #66BAE6",
"%  c #6CBBE7",
"&  c #6BB3E8",
"*  c #6CBDE8",
"=  c #70B7E7",
"-  c #79B5E7",
";  c #74BFE7",
":  c #7DBAE7",
">  c #74B1EA",
",  c #7AB5ED",
"<  c #7EBCEC",
"1  c #65C4E6",
"2  c #6AC3E7",
"3  c #73C0E7",
"4  c #75C5E8",
"5  c #7BC3E9",
"6  c #77D7EA",
"7  c #7ED9EC",
"8  c #85A4EC",
"9  c #88A6ED",
"0  c #87AFEC",
"q  c #8CAAED",
"w  c #93AEEE",
"e  c #84BBE7",
"r  c #89BFE7",
"t  c #83B2E8",
"y  c #8DB4E8",
"u  c #8CBDEE",
"i  c #93B6E7",
"p  c #93BAE7",
"a  c #98BAE7",
"s  c #93B4EA",
"d  c #9AB5ED",
"f  c #94BAE8",
"g  c #98B8EB",
"h  c #89BFF0",
"j  c #98B1F0",
"k  c #8DC3E7",
"l  c #87C9E6",
"z  c #82C4ED",
"x  c #8DC4ED",
"c  c #86CDEC",
"v  c #8FCBED",
"b  c #95C2E7",
"n  c #98C1E6",
"m  c #95C4ED",
"M  c #95CDED",
"N  c #9ACEED",
"B  c #89D0ED",
"V  c #85DBEC",
"C  c #89DDEE",
"Z  c #95D3ED",
"A  c #9CD4EC",
"S  c #92DDED",
"D  c #99DFED",
"F  c #8FC0F3",
"G  c #94C3F4",
"H  c #99CAF6",
"J  c #9ED2F8",
"K  c #A2C4E6",
"L  c #A8C5E6",
"P  c #A2CDE5",
"I  c #ABCEE5",
"U  c #B1CBE1",
"Y  c #ADD0E5",
"T  c #A2D5ED",
"R  c #ACD4ED",
"E  c #A5D8ED",
"W  c #ADDBED",
"Q  c #B1D3E6",
"!  c #B0DBED",
"~  c #BFD9EA",
"^  c #A9C1F0",
"/  c #B6CAF1",
"(  c #BDCDF2",
")  c #A5D5F4",
"_  c #ACDDF1",
"`  c #B9DFF1",
"'  c #8DE0EF",
"]  c #8FE1F0",
"[  c #95E4F1",
"{  c #98E6F3",
"}  c #9BEAF4",
"|  c #A3E2F0",
" . c #AEE4F3",
".. c #BBE5F2",
"X. c #B5EAF4",
"o. c #B5F6FA",
"O. c #B9F6FA",
"+. c #BEFEFF",
"@. c #CDD7EA",
"#. c #C2DAEA",
"$. c #CFD9EB",
"%. c #D4DDED",
"&. c #C2D5F3",
"*. c #CADFF0",
"=. c #D3DEF4",
"-. c #CAE1ED",
";. c #D6E1EF",
":. c #DAE2EF",
">. c #C5E0F0",
",. c #CDE4F1",
"<. c #C9EEFC",
"1. c #D4E6F2",
"2. c #DCE4F1",
"3. c #D6E9F2",
"4. c #DCEAF3",
"5. c #C9F1FA",
"6. c #C2FFFF",
"7. c #CBFCFE",
"8. c #D5F7FE",
"9. c #D2FFFF",
"0. c #DBFFFF",
"q. c #E1E6F2",
"w. c #E6EDF5",
"e. c #EAEFF6",
"r. c #E5F0F6",
"t. c #EAF0F6",
"y. c #E4FFFF",
"u. c #E8FFFF",
"i. c #F3F5F9",
"p. c #F9FAFA",
"a. c None",
/* pixels */
"a.a.a.a.a.a.a.a.a.a.a.a.a.a.a.a.a.a.a.a.a.a.a.a.a.a.a.a.a.a.a.a.a.a.a.a.a.a.a.a.a.a.a.a.a.a.a.a.a.a.",
"a.a.a.a.a.a.a.a.a.a.a.a.a.a.a.a.a.a.a.a.a.a.a.a.a.a.a.a.a.a.a.a.a.a.a.a.a.a.a.a.a.a.a.a.a.a.a.a.a.a.",
"a.a.a.a.a.a.a.a.a.a.a.a.a.a.a.a.a.a.a.a.a.a.a.a.a.a.a.a.a.a.a.a.a.a.a.a.a.a.a.a.a.a.a.a.a.a.a.a.a.a.",
"a.a.a.a.a.a.a.a.a.a.a.a.a.a.a.a.a.a.a.a.a.a.a.a.a.a.a.a.a.a.a.a.a.a.a.a.a.a.a.a.a.a.a.a.a.a.a.a.a.a.",
"a.a.a.a.a.a.a.a.a.a.a.a.a.a.a.a.a.a.a.a.a.a.a.a.a.a.a.a.a.a.a.a.a.a.a.a.a.a.a.a.a.a.a.a.a.a.a.a.a.a.",
"a.a.a.a.a.a.a.a.a.a.a.a.a.a.a.a.a.a.a.a.a.a.a.a.a.a.a.a.a.a.a.a.a.a.a.a.a.a.a.a.a.a.a.a.a.a.a.a.a.a.",
"a.a.a.a.a.a.a.a.a.a.a.a.a.a.a.a.a.a.a.a.a.a.a.a.a.a.a.a.a.a.a.a.a.a.a.a.a.a.a.a.a.a.a.a.a.a.a.a.a.a.",
"a.a.a.a.a.a.a.a.a.a.a.a.a.a.a.a.a.a.a.a.a.a.a.a.a.a.a.a.a.a.a.a.a.a.a.a.a.a.a.a.a.a.a.a.a.a.a.a.a.a.",
"a.a.a.a.a.a.a.a.a.a.a.a.a.a.a.a.a.a.a.a.a.a.a.a.a.a.a.a.a.a.a.a.a.a.a.a.a.a.a.a.a.a.a.a.a.a.a.a.a.a.",
"a.a.a.a.a.a.a.a.a.a.a.a.a.a.a.a.a.a.a.a.a.a.a.a.a.a.a.a.a.a.a.a.a.a.a.a.a.a.a.a.a.a.a.a.a.a.a.a.a.a.",
"a.a.a.a.a.a.a.a.a.a.a.a.a.a.a.a.a.a.a.a.a.a.a.a.a.a.a.a.a.a.a.a.a.a.a.a.a.a.a.a.a.a.a.a.a.a.a.a.a.a.",
"a.a.a.a.a.a.a.a.a.a.a.a.a.a.a.a.a.a.a.a.a.a.a.a.a.a.a.a.a.a.a.a.a.a.a.a.a.a.a.a.a.a.a.a.a.a.a.a.a.a.",
"a.a.a.a.a.a.a.a.a.a.a.a.a.a.a.a.a.a.a.a.a.a.a.a.a.a.a.a.a.a.a.a.a.a.a.a.a.a.a.a.a.a.a.a.a.a.a.a.a.a.",
"a.a.a.a.a.a.a.a.a.a.a.a.a.a.a.a.a.a.a.a.a.a.a.a.a.a.a.a.a.a.a.a.a.a.a.a.a.a.a.a.a.a.a.] O.C a.a.a.a.",
"a.a.a.a.a.a.a.a.V a.a.a.a.a.a.a.a.a.a.a.a.a.a.a.a.a.a.a.a.a.a.a.a.a.a.a.a.a.a.a.a.a.V 6.9.' a.a.a.a.",
"a.a.a.a.a.a.a.V 6.V a.a.a.a.a.a.a.a.a.a.a.a.a.a.a.a.a.a.a.a.a.a.a.a.a.a.a.a.a.a.a.7 +.y.9.' a.a.a.a.",
"a.a.a.a.a.a.V 6.y.+.C a.a.a.a.a.a.a.a.a.a.a.a.a.a.a.a.a.a.a.a.a.a.a.a.a.a.a.a.a.C 6.y.y.9.' a.a.a.a.",
"a.a.a.a.a.a.V 6.y.y.o.a.a.a.a.a.a.a.a.a.a.a.a.a.a.a.a.a.a.a.a.a.a.a.a.a.a.a.a.D 6.u.y.y.9.' a.a.a.a.",
"a.a.a.a.a.a.V 6.y.y.7.{ a.a.4.a.a.a.a.a.2.:.2.2.%.@.a.a.a.a.a.a.a.a.a.a.a.V [ 7.y.y.y.y.7.] a.a.a.a.",
"a.a.a.a.a.a.V 6.y.y.y.7.C a.a.a.a.2.2.q.2.:.2.2.@.@.2.:.a.a.a.a.a.a.a.a.V +.7.y.y.y.y.y.9.' a.a.a.a.",
"a.a.a.a.a.a.V 6.y.y.y.7.C a.a.a.a.2.2.2.i.i.i.i.i.i.2.%.@.a.a.a.a.a.a.V 6.u.y.y.y.y.y.y.9.' a.a.a.a.",
"a.a.a.a.a.a.V 6.y.y.y.y.+.V a.2.2.:.p.p.9 8 8 8 8   p.w.@.%.@.a.a.a.V 6.u.y.y.y.y.y.y.y.a.a.a.a.a.a.",
"a.a.a.a.a.a.V +.y.y.y.y.6.V ;.:.w.e.q w & a p p i O 8 ^ e.%.%.@.U A +.y.+.6.7.y.y.y.+.6.a.a.a.a.a.a.",
"a.a.a.a.a.a.a.V +.+.9.+.+.6.} ,.&.g : m G x z % $ e e t / &.2.@.W O.9.+.+.+.+.+.+.+.+.a.a.a.a.a.a.a.",
"a.a.a.a.a.a.a.a.[ +.+.+.+.+.9.5.: : M M Z Z Z 1 1 1 $ % y 8 i...o.6.6.+.+.6.+.6.6.6.a.a.a.a.a.a.a.a.",
"a.a.a.a.a.a.a.a.a.V [ +.6.+.0.H r 2 Z ,.1.1.1.W 1 1 1 $ @ i > 0.+.+.+.+.+.+.+.+.a.a.a.a.a.a.a.a.a.a.",
"a.a.a.a.a.a.a.a.a.a.a.V +.0.H % k P 1.1.1.1.3.3._ E B B % a X G 0.6.C V V V V V a.a.a.a.a.a.a.a.a.a.",
"a.a.a.a.a.a.a.a.a.a.a.q.C X.J a l $.3.3.3.3.3.3.;. .A c 5 # a G  .V a.a.a.a.a.a.a.a.a.a.a.a.a.a.a.a.",
"a.a.a.a.a.a.a.a.a.a.a.q.i.9 % n Z 1.3.4.4.4.4.3.1.1.A B z < p & j 2.%.a.a.a.a.a.a.a.a.a.a.a.a.a.a.a.",
"a.a.a.a.a.a.a.a.a.a.a.2.i.9 K ; #.3.3.4.4.4.4.3.3.3. .Z z h < s j %.@.a.a.a.a.a.a.a.a.a.a.a.a.a.a.a.",
"a.a.a.a.a.a.a.a.a.a.a.w.i.8 K 3 #.3.4.4.4.4.3.3.3.1._ Z z e < s s 2.@.a.a.a.a.a.a.a.a.a.a.a.a.a.a.a.",
"a.a.a.a.a.a.a.a.a.a.a.2.i.8 K 3 #.3.3.4.4.4.3.3.3.1._ Z z z , y s 2.%.a.a.a.a.a.a.a.a.a.a.a.a.a.a.a.",
"a.a.a.a.a.a.a.a.a.a.a.q.i.  L 2 c 1.1.1.4.4.3.3.1. .A c z e , s j 2.$.a.a.a.a.a.a.a.a.a.a.a.a.a.a.a.",
"a.a.a.a.a.a.a.a.a.a.a.2.i.8 @ K A ` 1.1.3.3.3.1._ _ A c 5 < s & d 2.$.a.a.a.a.a.a.a.a.a.a.a.a.a.a.a.",
"a.a.a.a.a.a.a.a.a.a.a.q.q.i.q k N T W >.>.-.-.! A T c h < - t 8 e.$.a.a.a.a.a.a.a.a.a.a.a.a.a.a.a.a.",
"a.a.a.a.a.a.a.a.a.a.a.q.q.2.2.0 m N N R R Y I I 4 5 = & & i + =.%.$.a.a.a.a.a.a.a.a.a.a.a.a.a.a.a.a.",
"a.a.a.a.a.a.a.a.a.a.a.a.q.2.i. .: m v Z 2 2 2 * $ $ # # y O X.t.$.a.a.a.a.a.a.a.a.a.a.a.a.a.a.a.a.a.",
"a.a.a.a.a.a.a.a.a.a.a.a.a.q.6 8.< p n $ $ $ $ $ # # # a o G y.7 V a.a.a.a.a.a.a.a.a.a.a.a.a.a.a.a.a.",
"a.a.a.a.a.a.a.a.a.a.a.a.a.V 6.6.0.h O i g X O O O s y , <.0.+.6.o.a.a.a.a.a.a.a.a.a.a.a.a.a.a.a.a.a.",
"a.a.a.a.a.a.a.a.a.a.a.a.a.C V S | w.w j o s y s y o u ) 7.O.o.o.o.} a.a.a.a.a.a.a.a.a.a.a.a.a.a.a.a.",
"a.a.a.a.a.a.a.a.a.a.a.a.a.a.a.q.w.2.w.e.&.( ( ( / / w.1.W a.a.a.a.a.a.a.a.a.a.a.#.a.a.a.a.a.a.a.a.a.",
"a.a.a.a.a.a.a.a.a.a.a.a.a.w.w.e.w.t.e.q.q.2.q.2.%.%.:.1.a.a.a.a.a.a.a.a.a.a.a.a.a.a.a.a.a.a.a.a.a.a.",
"a.a.a.a.a.a.a.a.a.a.a.a.a.w.w.r.w.w.r.$.%.q.q.2.@.$.a.a.a.a.a.a.a.a.a.a.a.a.a.a.a.a.a.a.a.a.a.a.a.a.",
"a.a.a.a.a.a.a.a.a.a.a.a.t.r.w.w.r.w.r.e.a.a.a.a.a.a.a.a.a.a.a.a.a.a.a.a.a.a.a.a.a.a.a.a.a.a.a.a.a.a.",
"a.a.a.a.a.a.a.a.a.a.a.a.t.r.w.w.e.r.w.e.a.a.a.a.a.a.a.a.a.a.a.a.a.a.a.a.a.a.a.a.a.a.a.a.a.a.a.a.a.a.",
"a.a.a.a.a.a.a.a.a.a.a.a.t.w.w.r.r.r.w.e.a.a.a.a.a.a.a.a.a.a.a.a.a.a.a.a.a.a.a.a.a.a.a.a.a.a.a.a.a.a.",
"a.a.a.a.a.a.a.a.a.a.a.a.a.4.4.q.4.q.4.a.a.a.a.a.a.a.a.a.a.a.a.a.a.a.a.a.a.a.a.a.a.a.a.a.a.a.a.a.a.a.",
"a.a.a.a.a.a.a.a.a.a.a.a.a.a.a.r.w.a.a.a.a.a.a.a.a.a.a.a.a.a.q.a.a.a.a.a.a.a.a.a.a.a.a.a.a.a.a.a.a.a.",
"a.a.a.a.a.a.a.a.a.a.a.a.a.a.a.a.a.a.a.a.a.a.a.a.a.a.a.a.a.4.4.2.a.a.a.a.a.a.a.a.a.a.a.a.a.a.a.a.a.a.",
"a.a.a.a.a.a.a.a.a.a.a.a.a.a.a.a.a.a.a.a.a.a.a.a.a.a.a.a.a.a.2.a.a.a.a.a.a.a.a.a.a.a.a.a.a.a.a.a.a.a."
};
