/* XPM */
static char *result[] = {
/* columns rows colors chars-per-pixel */
"50 50 114 2 ",
"   c #69AEE7",
".  c #6AAFE8",
"X  c #65B7E7",
"o  c #6AB6E7",
"O  c #65BBE6",
"+  c #6ABCE6",
"@  c #67B3E8",
"#  c #6BB3E8",
"$  c #6DBDE8",
"%  c #78B7E7",
"&  c #73BCE7",
"*  c #7EBBE6",
"=  c #75B3E9",
"-  c #7BB3EC",
";  c #72BBEB",
":  c #7EBCEC",
">  c #5DC3E5",
",  c #65C3E6",
"<  c #69C4E6",
"1  c #74C1E7",
"2  c #7CC0E7",
"3  c #86ADE8",
"4  c #96AFE9",
"5  c #88B5E7",
"6  c #89BCE7",
"7  c #83B3E9",
"8  c #8AB5E9",
"9  c #83BAEB",
"0  c #8DBBEA",
"q  c #92B7E7",
"w  c #92BBE7",
"e  c #99BAE6",
"r  c #93B4E9",
"t  c #9BB6EC",
"y  c #93B9E9",
"u  c #9EBEEE",
"i  c #A3BBEC",
"p  c #8BC5E7",
"a  c #82C4ED",
"s  c #86CEED",
"d  c #8DCCEB",
"f  c #99C1E6",
"g  c #93C6ED",
"h  c #9AC5EC",
"j  c #93CDED",
"k  c #9BCEEE",
"l  c #89D0ED",
"z  c #84DBEC",
"x  c #8ADDED",
"c  c #94D2ED",
"v  c #9CD3ED",
"b  c #86C0F0",
"n  c #8EC2F1",
"m  c #95C5F4",
"M  c #9BCBF6",
"N  c #A2C5E6",
"B  c #A5CFE6",
"V  c #ABCCE6",
"C  c #AFD2E6",
"Z  c #A5D4EE",
"A  c #ABD3ED",
"S  c #A4DAEE",
"D  c #B4D5E6",
"F  c #B2D9ED",
"G  c #BFD9EA",
"H  c #A8D3F1",
"J  c #ACDDF1",
"K  c #8EE1EF",
"L  c #9EE1EF",
"P  c #94E4F1",
"I  c #9AE6F2",
"U  c #9BE8F4",
"Y  c #AEE2F2",
"T  c #A2EDF6",
"R  c #BCE1F2",
"E  c #B6ECF3",
"W  c #B9E9F4",
"Q  c #ADF0F7",
"!  c #AEF1F8",
"~  c #B7F8FB",
"^  c #BEFFFF",
"/  c #C5D4E9",
"(  c #C8D6E9",
")  c #C2DBEA",
"_  c #CBDAEB",
"`  c #D2DDED",
"'  c #C5D4F2",
"]  c #CCDFF3",
"[  c #D3DFF1",
"{  c #C3E0EF",
"}  c #C8E1EF",
"|  c #D7E1EF",
" . c #D9E2EF",
".. c #CCE3F1",
"X. c #D4E5F2",
"o. c #DDE5F1",
"O. c #D6E9F2",
"+. c #DBEAF2",
"@. c #DAE6FC",
"#. c #C4F4F9",
"$. c #CFF5FC",
"%. c #C2FEFF",
"&. c #CBFEFF",
"*. c #D1F7FD",
"=. c #D4FDFE",
"-. c #DCFFFF",
";. c #E4E7F2",
":. c #E5ECF4",
">. c #EAEFF5",
",. c #F2EFF6",
"<. c #EBF0F7",
"1. c #E4FFFF",
"2. c #F0F3F6",
"3. c None",
/* pixels */
"3.3.3.3.3.3.3.3.3.3.3.3.3.3.3.3.3.3.3.3.3.3.3.3.3.3.3.3.3.3.3.3.3.3.3.3.3.3.3.3.3.3.3.3.3.3.3.3.3.3.",
"3.3.3.3.3.3.3.3.3.3.3.3.3.3.3.3.3.3.3.3.3.3.3.3.3.3.3.3.3.3.3.3.3.3.3.3.3.3.3.3.3.3.3.3.3.3.3.3.3.3.",
"3.3.3.3.3.3.3.3.3.3.3.3.3.3.3.3.3.3.3.3.3.3.3.3.3.3.3.3.3.3.3.3.3.3.3.3.3.3.3.3.3.3.3.3.3.3.3.3.3.3.",
"3.3.3.3.3.3.3.3.3.3.3.3.3.3.3.3.3.3.3.3.3.3.3.3.3.3.3.3.3.3.3.3.3.3.3.3.3.3.3.3.3.3.3.3.3.3.3.3.3.3.",
"3.3.3.3.3.3.3.3.3.3.3.3.3.3.3.3.3.3.3.3.3.3.3.3.3.3.3.3.3.3.3.3.3.3.3.3.3.3.3.3.3.3.3.3.3.3.3.3.3.3.",
"3.3.3.3.3.3.3.3.3.3.3.3.3.3.3.3.3.3.3.3.3.3.3.3.3.3.3.3.3.3.3.3.3.3.3.3.3.3.3.3.3.3.3.3.3.3.3.3.3.3.",
"3.3.3.3.3.3.3.3.3.3.3.3.3.3.3.3.3.3.3.3.3.3.3.3.3.3.3.3.3.3.3.3.3.3.3.3.3.3.3.3.3.3.3.3.3.3.3.3.3.3.",
"3.3.3.3.3.3.3.3.3.3.3.3.3.3.3.3.3.3.3.3.3.3.3.3.3.3.3.3.3.3.3.3.3.3.3.3.3.3.3.3.3.3.3.3.3.3.3.3.3.3.",
"3.3.3.3.3.3.3.3.3.3.3.3.3.3.3.3.3.3.3.3.3.3.3.3.3.3.3.3.3.3.3.3.3.3.3.3.3.3.3.3.3.3.x x 3.3.3.3.3.3.",
"3.3.3.3.3.3.3.3.3.3.3.z 3.3.3.3.3.3.3.3.3.3.3.3.3.3.3.3.3.3.3.3.3.3.3.3.3.3.3.3.3.z %.~ 3.3.3.3.3.3.",
"3.3.3.3.3.3.3.3.3.3.P I 3.3.3.3.3.3.3.3.3.3.3.3.3.3.3.3.3.3.3.3.3.3.3.3.3.3.3.3.z %.1.~ 3.3.3.3.3.3.",
"3.3.3.3.3.3.3.3.3.3.U %.x 3.3.3.3.3.3.3.3.3.3.3.3.3.3.3.3.3.3.3.3.3.3.3.3.3.3.x %.1.1.~ 3.3.3.3.3.3.",
"3.3.3.3.3.3.3.3.3.x &.=.T 3.3.3.3.3.3.3.3.3.3.3.3.3.3.3.3.3.3.3.3.3.3.3.3.3.P #.1.1.1.&.L 3.3.3.3.3.",
"3.3.3.3.3.3.3.3.3.x &.1.^ z 3.3.3.3.3.3.3.3.@.@.3.3.3.3.3.3.3.3.3.3.3.3.3.K #.1.1.1.1.-.T 3.3.3.3.3.",
"3.3.3.3.3.3.3.3.z %.1.1.%.z 3.3.3.3.3.3. . . . .( ( _ ) 3.3.3.3.3.3.3.3.z %.1.1.1.1.1.1.T 3.3.3.3.3.",
"3.3.3.3.3.3.3.3.z ^ 1.1.1.^ x 3.3.|  .o.|  . .` / / | ` 3.3.3.3.3.3.3.z ^ 1.1.1.1.1.1.-.T 3.3.3.3.3.",
"3.3.3.3.3.3.3.3.z ^ 1.1.1.^ x 3.3.| | o.>.:.>.:.o.o.o.` / 3.3.3.3.3.x &.1.1.1.1.1.1.1.=.3.3.3.3.3.3.",
"3.3.3.3.3.3.3.3.z ^ -.-.^ %.K {  .o.X.;.8 t t t r 3 [ [ _ ( ( 3.3.P %.-.^ -.-.-.=.-.%.Q 3.3.3.3.3.3.",
"3.3.3.3.3.3.3.3.3.U %.^ ^ ^ ^ Q O.' - u 6 0 9 % - 6 y y ` [ ( ( K #.&.^ ^ ^ ^ ^ %.%.I 3.3.3.3.3.3.3.",
"3.3.3.3.3.3.3.3.3.z ^ ^ ^ ^ ^ *.n y h g j c c < , + o q t t ;.x %.&.%.^ ^ ^ ^ ^ ^ z 3.3.3.3.3.3.3.3.",
"3.3.3.3.3.3.3.3.3.3.P ^ ^ ^ =.$.* & j c c c c < < < O X 5 r ;.W ^ ^ ^ %.%.^ ^ %.z 3.3.3.3.3.3.3.3.3.",
"3.3.3.3.3.3.3.3.3.3.3.! &.^ 1.M p , l X.X.X...C > , , O o r = 1.^ ^ %.%.%.%.! z 3.3.3.3.3.3.3.3.3.3.",
"3.3.3.3.3.3.3.3.3.3.3.x x -.M ; p B ..X.X.X.O.X.Y L l s $ y   m =.~ K x x x x 3.3.3.3.3.3.3.3.3.3.3.",
"3.3.3.3.3.3.3.3.3.3.3.;.;.H ; f d ] o.O.+.+.+.O.X.R v l 2 = e 9 H S 3.3.3.3.3.3.3.3.3.3.3.3.3.3.3.3.",
"3.3.3.3.3.3.3.3.3.3.3. .>.i f 2 F O.+.+.+.+.O.O.X.X.J c a : 9 8 i _ ( 3.3.3.3.3.3.3.3.o.3.3.3.3.3.3.",
"3.3.3.3.3.3.3.3.3.3.3.o.>.t N 1 ) O.+.+.+.+.O.+.O.O.J c a 2 : y i ` ( 3.3.3.3.3.3.3.3.3.3.3.3.3.3.3.",
"3.3.3.3.3.3.3.3.3.3.3. .>.t N 1 ) O.+.+.+.+.O.O.O.X.J c b 2 : 8 i ` ( 3.3.3.3.3.3.3.3.3.3.3.3.3.3.3.",
"3.3.3.3.3.3.3.3.3.3.3.o.>.t N & ) O.+.+.+.:.O.O.O.X.J c a b - r i [ ( 3.3.3.3.3.3.3.3.3.3.3.3.3.3.3.",
"3.3.3.3.3.3.3.3.3.3.3.o.>.t f 1 d ..X.X.+.+.O.O...Y v l 2 b : 8 i _ ( 3.3.3.3.3.3.3.3.3.3.3.3.3.3.3.",
"3.3.3.3.3.3.3.3.3.3.3.o.:.' 9 N c F R O.X.O.O.{ S H c a 2 ; r 7 / _ ( 3.3.3.3.3.3.3.3.3.3.3.3.3.3.3.",
"3.3.3.3.3.3.3.3.3.3.3.o.o.>.i = k Z A F F D D A v v b 2 = 0 . 4 o.( 3.3.3.3.3.3.3.3.3.3.3.3.3.3.3.3.",
"3.3.3.3.3.3.3.3.3.3.3.;.o.[ ,.i g j j A A V V V , $ X @ @ r 4 :./ ( 3.3.3.3.3.3.3.3.3.3.3.3.3.3.3.3.",
"3.3.3.3.3.3.3.3.3.3.3.3.o.| ,.Y : d d v < $ $ + O O # # 8 . E ;.( | 3.3.3.3.3.3.3.3.3.3.3.3.3.3.3.3.",
"3.3.3.3.3.3.3.3.3.3.3.3.3.| z *.9 0 e O O O X X # # # y = m -.x / 3.3.3.3.3.3.3.3.3.3.3.3.3.3.3.3.3.",
"3.3.3.3.3.3.3.3.3.3.3.3.3.I ^ ^ #.H - y 7 = - = = 7 8 b $.=.^ ^ I 3.3.3.3.3.3.3.3.3.3.3.3.3.3.3.3.3.",
"3.3.3.3.3.3.3.3.3.3.3.3.3.P P I ] o.[ o.r t t t r 3 ] R I P %.%.^ U 3.3.3.3.3.3.3.3.3.3.3.3.3.3.3.3.",
"3.3.3.3.3.3.3.3.3.3.3.3.3.3.3.3.3. .| ;.:.>.>.>.o.o.<.>._ 3.x x x x 3.3.3.3.3.3.3.3.3.3.3.3.3.3.3.3.",
"3.3.3.3.3.3.3.3.3.3.3.3.3.3.3.3.3. .| o.` `  .` / ;.<.:.+.3.3.3.3.3.3.3.3.3.3.3.3.3.3.3.3.3.3.3.3.3.",
"3.3.3.3.3.3.3.3.3.3.3.3.3.3.3.3.3.3.3.3. . .o.X./ ;.>.:.+.3.3.3.3.3.3.3.3.3.3.3.3.3.3.3.3.3.3.3.3.3.",
"3.3.3.3.3.3.3.3.3.3.3.3.3.3.3.3.3.3.3.3.3.3.3.3.3.o.>.+.+.3.3.3.3.3.3.3.3.3.3.3.3.3.3.3.3.3.3.3.3.3.",
"3.3.3.3.3.3.3.3.3.3.3.3.3.3.3.3.3.3.3.3.3.3.3.3.3.3.3.3.3.3.3.3.3.3.3.3.3.3.3.3.3.3.3.3.3.3.3.3.3.3.",
"3.3.3.3.3.3.3.3.3.3.3.3.3.3.3.3.3.:.3.3.3.3.3.3.3.3.3.3.3.3.3.3.3.3.3.3.3.3.3.3.3.3.3.3.3.3.3.3.3.3.",
"3.3.3.3.3.3.3.3.3.3.3.3.3.3.3.3.3.:.3.3.3.3.3.3.3.3.3.3.3.3.3.3.3.3.3.3.3.3.3.3.3.3.3.3.3.3.3.3.3.3.",
"3.3.3.3.3.3.3.3.3.3.3.3.3.3.3.3.3.3.3.3.3.3.3.3.3.3.3.3.3.3.3.3.3.3.3.3.3.3.3.3.3.3.3.3.3.3.3.3.3.3.",
"3.3.3.3.3.3.3.3.3.3.3.3.3.3.3.3.3.3.3.3.3.3.3.3.3.3.3.3.3.3.3.3.3.3.3.3.3.3.3.3.3.3.3.3.3.3.3.3.3.3.",
"3.3.3.3.3.3.3.3.3.3.3.3.3.3.3.3.3.3.3.3.3.3.3.3.3.3.3.3.3.3.3.3.3.3.3.3.3.3.3.3.3.3.3.3.3.3.3.3.3.3.",
"3.3.3.3.3.3.3.3.3.3.3.3.3.3.3.3.3.3.3.3.3.3.3.3.3.3.3.3.3.3.3.3.3.3.3.3.3.3.3.3.3.3.3.3.3.3.3.3.3.3.",
"3.3.3.3.3.3.3.3.3.3.3.3.3.3.3.3.3.3.3.3.3.3.3.3.3.3.3.3.3.3.3.3.3.3.3.3.3.3.3.3.3.3.3.3.3.3.3.3.3.3.",
"3.3.3.3.3.3.3.3.3.3.3.3.3.3.3.3.3.3.3.3.3.3.3.3.3.3.3.3.3.3.3.3.3.3.3.3.3.3.3.3.3.3.3.3.3.3.3.3.3.3.",
"3.3.3.3.3.3.3.3.3.3.3.3.3.3.3.3.3.3.3.3.3.3.3.3.3.3.3.3.3.3.3.3.3.3.3.3.3.3.3.3.3.3.3.3.3.3.3.3.3.3."
};
