/* XPM */
static char *result[] = {
/* columns rows colors chars-per-pixel */
"50 50 129 2 ",
"   c #7D9DEA",
".  c #64AEE8",
"X  c #71A6EA",
"o  c #7EA4EB",
"O  c #72ACE9",
"+  c #78ADE9",
"@  c #67B7E7",
"#  c #69B6E7",
"$  c #65BAE6",
"%  c #6BBEE7",
"&  c #67B3E8",
"*  c #6CB3E8",
"=  c #6CBCE8",
"-  c #7BB3E7",
";  c #74BCE7",
":  c #7DBCE6",
">  c #75B2E9",
",  c #7AB3EA",
"<  c #76BCEA",
"1  c #7EBCED",
"2  c #65C3E6",
"3  c #6AC4E6",
"4  c #72C1E7",
"5  c #7FC0ED",
"6  c #7CD9ED",
"7  c #84A5EB",
"8  c #88A7ED",
"9  c #8BAAED",
"0  c #90A9ED",
"q  c #85B7E7",
"w  c #8AB5E7",
"e  c #8DBAE7",
"r  c #86B4E9",
"t  c #89B4E9",
"y  c #8ABAEB",
"u  c #95B9E7",
"i  c #99BBE7",
"p  c #93B4EA",
"a  c #93BDEC",
"s  c #A3BBEF",
"d  c #A9C7DF",
"f  c #B5C9DF",
"g  c #8AC3E6",
"h  c #82C4ED",
"j  c #8FC6EE",
"k  c #85CDED",
"l  c #8CCCED",
"z  c #9DC4E7",
"x  c #95C6ED",
"c  c #93CDED",
"v  c #9CCCED",
"b  c #85DBED",
"n  c #89DDED",
"m  c #93D3ED",
"M  c #9CD5ED",
"N  c #93DCEC",
"B  c #8FC7F3",
"V  c #93C3F4",
"C  c #96CAF2",
"Z  c #9FD2F4",
"A  c #A2C3E6",
"S  c #ADCEE5",
"D  c #A1C7ED",
"F  c #A4CFED",
"G  c #B0CFE6",
"H  c #AED3E3",
"J  c #A1D4ED",
"K  c #ACD5ED",
"L  c #A4DDEF",
"P  c #ADD9EC",
"I  c #B3D3E7",
"U  c #B3D6EA",
"Y  c #B5DBED",
"T  c #ACC1F1",
"R  c #B3C6F2",
"E  c #ABD7F7",
"W  c #ACDDF1",
"Q  c #8DE0EF",
"!  c #95E5F1",
"~  c #99E6F1",
"^  c #9CEAF4",
"/  c #A2E7F3",
"(  c #AEE2F4",
")  c #A4EDF6",
"_  c #A9EDF6",
"`  c #B3E4F3",
"'  c #BCE2F2",
"]  c #B9EDF5",
"[  c #A9F0F7",
"{  c #ADF2F8",
"}  c #B3F5FA",
"|  c #B9F7FB",
" . c #B7F8FB",
".. c #BEFEFF",
"X. c #CBD7EA",
"o. c #C4DAE9",
"O. c #CED9EB",
"+. c #D3DBEC",
"@. c #D8DFEE",
"#. c #C1D0F1",
"$. c #D4DFF4",
"%. c #C1E1EF",
"&. c #D7E0EE",
"*. c #DAE2EF",
"=. c #C2E1F1",
"-. c #CDE5F3",
";. c #C8EAF4",
":. c #D4E5F2",
">. c #DCE3F1",
",. c #D6E9F2",
"<. c #DBEBF2",
"1. c #CBF6FA",
"2. c #C2FFFF",
"3. c #CCFEFF",
"4. c #DDF0F7",
"5. c #D2F6FC",
"6. c #D3FEFF",
"7. c #DBFFFF",
"8. c #E1E7F2",
"9. c #E4EBF4",
"0. c #E9EEF6",
"q. c #ECF1F7",
"w. c #EFF3F8",
"e. c #E4FFFF",
"r. c #F2F1F7",
"t. c #F3F5F9",
"y. c #F7F9F9",
"u. c #F9FAF9",
"i. c None",
/* pixels */
"i.i.i.i.i.i.i.i.i.i.i.i.i.i.i.i.i.i.i.i.i.i.i.i.i.i.i.i.i.i.i.i.i.i.i.i.i.i.i.i.i.i.i.i.i.i.i.i.i.i.",
"i.i.i.i.i.i.i.i.i.i.i.i.i.i.i.i.i.i.i.i.i.i.i.i.i.i.i.i.i.i.i.i.i.i.i.i.i.i.i.i.i.i.i.i.i.i.i.i.i.i.",
"i.i.i.i.i.i.i.i.i.i.i.i.i.i.i.i.i.i.i.i.i.i.i.i.i.i.i.i.i.i.i.i.i.i.i.i.i.i.i.i.i.i.i.i.i.i.i.i.i.i.",
"i.i.i.i.i.i.i.i.i.i.i.i.i.i.i.i.i.i.i.i.i.i.i.i.i.i.i.i.i.i.i.i.i.i.i.i.i.i.i.i.i.i.i.i.i.i.i.i.i.i.",
"i.i.i.i.i.i.i.i.i.i.i.i.i.i.i.i.i.i.i.i.i.i.i.i.i.i.i.i.i.i.i.i.i.i.i.i.i.i.i.i.i.i.i.i.i.i.i.i.i.i.",
"i.i.i.i.i.i.i.i.i.i.i.i.i.i.i.i.i.i.i.i.i.i.i.i.i.i.i.i.i.i.i.i.i.i.i.i.i.i.i.i.i.i.i.i.i.i.i.i.i.i.",
"i.i.i.i.i.i.i.i.i.i.i.i.i.i.i.i.i.i.i.i.i.i.i.i.i.i.i.i.i.i.i.i.i.i.i.i.i.i.i.i.i.i.i.i.i.i.i.i.i.i.",
"i.i.i.i.i.i.i.i.i.i.i.i.i.i.i.i.i.i.i.i.i.i.i.i.i.i.i.i.i.i.i.i.i.i.i.i.i.i.i.i.i.i.i.i.i.i.i.i.i.i.",
"i.i.i.i.i.i.i.i.i.i.i.i.i.i.i.i.i.i.i.i.i.i.i.i.i.i.i.i.i.i.i.i.i.i.i.i.i.i.i.i.i.i.i.i.i.i.i.i.i.i.",
"i.i.i.i.i.i.i.i.i.i.i.i.i.i.i.i.i.i.i.i.i.i.i.i.i.i.i.i.i.i.i.i.i.i.i.i.i.i.i.i.i.i.i.i.i.i.i.i.i.i.",
"i.i.i.i.i.i.i.i.i.i.i.i.i.i.i.i.i.i.i.i.i.i.i.i.i.i.i.i.i.i.i.i.i.i.i.i.i.i.i.i.i.i.i.i.i.i.i.i.i.i.",
"i.i.i.i.i.i.i.i.i.i.i.i.i.i.i.i.i.i.i.i.i.i.i.i.i.i.i.i.i.i.i.i.i.i.i.i.i.i.i.i.i.i.i.i.i.i.i.i.i.i.",
"i.i.i.i.i.i.b ) i.i.i.i.i.i.i.i.i.i.i.i.i.i.i.i.i.i.i.i.i.i.i.i.i.i.i.i.i.i.i.i.i.i.i.i.i./ b i.i.i.",
"i.i.i.i.i.i.} e.| b i.i.i.i.i.i.i.i.i.i.i.i.i.i.i.i.i.i.i.i.i.i.i.i.i.i.i.i.i.i.i.i.b N  ...b i.i.i.",
"i.i.i.i.i.i. .e.e.2.n i.i.i.i.i.i.i.i.i.i.i.i.i.i.i.X.o.i.i.i.i.i.i.>.d i.i.i.i.n b 2.2.e.2.b i.i.i.",
"i.i.i.i.i.i. .e.e...b i.i.i.i.i.i.i.i.i.>.>.>.*.O.+.o.o.i.i.i.i.i.i.i.i.i.i.i.b ....e.e.6.n f i.i.i.",
"i.i.i.i.i.i.| e.e.e.} i.i.i.i.i.i.*.>.8.>.>.8.8.O.O.>.@.i.i.i.i.i.i.i.i.i.i.n } e.e.e.e.6.Q f i.i.i.",
"i.i.i.i.i.i.| e.e.e.7.) i.i.i.i.>.>.8.0.:.:.$.$.$.$.8.>.+.i.i.i.i.i.i.i.! ! 3.7.e.e.e.e.3.Q i.i.i.i.",
"i.i.i.i.i.i.~ 3.e.e.e.7.{ N >.>.8.0.R R O p p p p O s #.8.O.O.O.i.i.b { 7.6.e.e.e.e.e.e.6.Q i.i.i.i.",
"i.i.i.i.i.i.b ..e.e.e.3.2...b >.r.s * a a y < # * i u + :.q.X.+.O.b  .e.2.2.3.e.e.e.e.7.) i.i.i.i.i.",
"i.i.i.i.i.i.i.b ..e.........2.( X u D c c m N 3 2 $ @ u 7   y.X.o._ e...........e.e.e...) i.i.i.i.i.",
"i.i.i.i.i.i.i.i.6 2.2.......7.5.q ; c c m m m 2 2 3 $ @ w 7 u.r.Q 6.2.2.2...........2...i.i.i.i.i.i.",
"i.i.i.i.i.i.i.i.i.b ~ | ..2.6.C g 3 M -.:.-.&.I 2 3 3 % @ p 7 ` 2.............2. ...b b i.i.i.i.i.i.",
"i.i.i.i.i.i.i.i.i.i.i.L _ 1.B q g U :.:.:.,.,.:.' L m k ; q - V 6.2...[ [ [ [ [ b n i.i.i.i.i.i.i.i.",
"i.i.i.i.i.i.i.i.i.i.i.>.4.p # z l &.<.<.<.<.<.,.,.-.M k h 1 i > C / ! i.i.i.i.i.i.i.i.i.i.i.i.i.i.i.",
"i.i.i.i.i.i.i.i.i.i.i.8.t.7 A 4 Y ,.,.<.4.<.,.,.,.,.W m k 1 1 p p @.+.i.i.i.i.i.i.i.i.i.i.i.i.i.i.i.",
"i.i.i.i.i.i.i.i.i.i.i.8.t.7 A ; o.<.<.9.<.<.,.,.,.:.W m h 1 1 w p 8.+.i.i.i.i.i.i.i.i.i.i.i.i.i.i.i.",
"i.i.i.i.i.i.i.i.i.i.i.>.t.7 A 4 o.,.<.<.<.<.,.,.,.,.W m h h 1 p p >.O.i.i.i.i.i.i.i.i.i.i.i.i.i.i.i.",
"i.i.i.i.i.i.i.i.i.i.i.8.t.7 A 4 U *.,.<.<.<.,.,.:.-.W m h 5 , p p >.O.i.i.i.i.i.i.i.i.i.i.i.i.i.i.i.",
"i.i.i.i.i.i.i.i.i.i.i.>.t.o : g m %.,.,.<.<.,.:.' W M k 5 5 t - p >.O.i.i.i.i.i.i.i.i.i.i.i.i.i.i.i.",
"i.i.i.i.i.i.i.i.i.i.i.8.8.0.9 A c K Y :.:.:.>.` J J l h h * u 7 8.+.i.i.i.i.i.i.i.i.i.i.i.i.i.i.i.i.",
"i.i.i.i.i.i.i.i.i.i.i.8.8.t.0 @ v M K K P H H S M J h 1 * u . 7 0.O.i.i.i.i.i.i.i.i.i.i.i.i.i.i.i.i.",
"i.i.i.i.i.i.i.i.i.i.i.8.8.>.y.9 x c c K K G G S % ; @ @ * p   q.X.+.i.i.i.i.i.i.i.i.i.i.i.i.i.i.i.i.",
"i.i.i.i.i.i.i.i.i.<.i.i.8.>.q.` 1 c j c % 3 % = $ $ * * t * ] 0.O.i.i.i.i.i.i.i.i.i.i.i.i.i.i.i.i.i.",
"i.i.i.i.i.i.i.i.i.i.i.i.i.o.! 3.Z e e < < @ @ @ & > > y x E 6.~ Y i.i.i.i.i.i.i.i.i.i.i.i.i.i.i.i.i.",
"i.i.i.i.i.i.i.i.i.i.i.i.b } ...._ -.7 9 + r r w w > r C 6.2....._ i.i.i.i.i.i.i.i.i.i.i.i.i.i.i.i.i.",
"i.i.i.i.i.i.i.i.i.i.i.i.n n b Q >.>.q.t.7 9 8 9 7   r.;.n n b ..2.) i.i.i.i.i.i.i.i.i.i.i.i.i.i.i.i.",
"i.i.i.i.i.i.i.i.i.i.i.i.i.i.i.i.i.>.*.>.u.u.y.u.t.y.*.@.+.i.i.b b b i.i.i.i.i.i.i.i.i.i.i.i.i.i.i.i.",
"i.i.i.i.i.i.i.i.i.i.i.i.i.i.i.i.i.>.>.8.>.>.>.>.O.O.*.*.i.i.i.i.i.i.i.i.i.i.i.i.i.i.i.i.i.i.i.i.i.i.",
"i.i.i.i.i.i.i.i.i.i.i.i.i.i.i.i.i.i.i.i.>.>.>.*.O.X.o.i.i.i.i.i.i.i.i.i.i.i.i.i.i.i.i.i.i.i.i.i.i.i.",
"i.i.i.i.i.i.i.i.i.i.i.i.i.i.i.i.i.i.i.i.i.i.i.i.i.i.i.i.i.i.i.i.i.i.i.i.i.i.i.i.i.i.i.i.i.i.i.i.i.i.",
"i.i.i.i.i.i.i.i.i.i.i.i.i.i.i.i.i.i.i.i.i.i.i.9.i.i.i.i.i.i.i.i.i.i.i.i.i.i.i.i.i.i.i.i.i.i.i.i.i.i.",
"i.i.i.i.i.i.i.i.i.i.i.i.i.i.i.i.i.i.i.i.i.i.0.0.>.i.i.i.i.i.i.i.i.i.i.i.i.i.i.i.i.i.i.i.i.i.i.i.i.i.",
"i.i.i.i.i.i.i.i.i.i.i.i.i.i.i.i.i.i.i.i.i.i.i.0.i.i.i.i.i.i.i.i.i.i.i.i.i.i.i.i.i.i.i.i.i.i.i.i.i.i.",
"i.i.i.i.i.i.i.i.i.i.i.i.i.i.i.i.i.i.i.i.i.i.i.i.i.i.i.i.i.i.i.i.i.i.i.i.i.i.i.i.i.i.i.i.i.i.i.i.i.i.",
"i.i.i.i.i.i.i.i.i.i.i.i.i.i.i.i.i.i.i.i.i.i.i.i.i.i.i.i.i.i.i.i.i.i.i.i.i.i.i.i.i.i.i.i.i.i.i.i.i.i.",
"i.i.i.i.i.i.i.i.i.i.i.i.i.i.i.i.i.i.i.i.i.i.i.i.i.i.i.i.i.i.i.i.i.i.i.i.i.i.i.i.i.i.i.i.i.i.i.i.i.i.",
"i.i.i.i.i.i.i.i.i.i.i.i.i.i.i.i.i.i.i.i.i.i.i.i.i.i.i.i.i.i.i.i.i.i.i.i.i.i.i.i.i.i.i.i.i.i.i.i.i.i.",
"i.i.i.i.i.i.i.i.i.i.i.i.i.i.i.i.i.i.i.i.i.i.i.i.i.i.i.i.i.i.i.i.i.i.i.i.i.i.i.i.i.i.i.i.i.i.i.i.i.i.",
"i.i.i.i.i.i.i.i.i.i.i.i.i.i.i.i.i.i.i.i.i.i.i.i.i.i.i.i.i.i.i.i.i.i.i.i.i.i.i.i.i.i.i.i.i.i.i.i.i.i."
};
