/* XPM */
static char *result[] = {
/* columns rows colors chars-per-pixel */
"50 50 117 2 ",
"   c #5EBAE6",
".  c #63ACE7",
"X  c #6BABE6",
"o  c #6CAFE9",
"O  c #77AFE8",
"+  c #66B6E7",
"@  c #6BB7E7",
"#  c #65BBE6",
"$  c #6ABDE7",
"%  c #67B3E8",
"&  c #6AB3E8",
"*  c #6BBBE8",
"=  c #73B2E7",
"-  c #74BFE7",
";  c #7BBCE7",
":  c #74B3E9",
">  c #7BB2EA",
",  c #75BCEA",
"<  c #7EBBED",
"1  c #66C3E6",
"2  c #6AC3E7",
"3  c #73C1E7",
"4  c #7AD7EA",
"5  c #83B7E7",
"6  c #82BDE7",
"7  c #8CB9E7",
"8  c #8DB5E8",
"9  c #8DBDEA",
"0  c #95BAE7",
"q  c #99BAE7",
"w  c #93B5E9",
"e  c #9AB3EC",
"r  c #92BAE8",
"t  c #9CB9EC",
"y  c #A3BBED",
"u  c #A9BEEF",
"i  c #8BC2E7",
"p  c #88CAE6",
"a  c #81C4ED",
"s  c #8FC7ED",
"d  c #86CCEC",
"f  c #8CCBEC",
"g  c #99C1E6",
"h  c #9FCCE5",
"j  c #94C5ED",
"k  c #94CDED",
"l  c #98CEED",
"z  c #8DD1ED",
"x  c #85DBEC",
"c  c #8CDEEE",
"v  c #9BD3E7",
"b  c #95D3ED",
"n  c #9CD3ED",
"m  c #93DEEE",
"M  c #92C3F3",
"N  c #9BCBF7",
"B  c #99D0F7",
"V  c #A2C4E6",
"C  c #A3CFE4",
"Z  c #ABCDE5",
"A  c #ACC4ED",
"S  c #A1C8EF",
"D  c #AAC9EE",
"F  c #B9CFE4",
"G  c #B2C5ED",
"H  c #A3D5EC",
"J  c #ACD5EC",
"K  c #A3DDEE",
"L  c #B6D4E6",
"P  c #B7DAEA",
"I  c #BDDDEE",
"U  c #BBCCF1",
"Y  c #ABDCF2",
"T  c #B4DEF1",
"R  c #8DE0EF",
"E  c #8EE1F0",
"W  c #93E4F1",
"Q  c #9CE4F1",
"!  c #9CE9F3",
"~  c #A2E5F2",
"^  c #AEE3F2",
"/  c #A1ECF6",
"(  c #B1E5F2",
")  c #B7E8F3",
"_  c #ACF1F8",
"`  c #BBF0F5",
"'  c #B3F5F9",
"]  c #BDF1F8",
"[  c #BEFFFF",
"{  c #C0DBEA",
"}  c #CED9EB",
"|  c #D6DEEE",
" . c #CEDCF1",
".. c #C7E1EF",
"X. c #D2E1EE",
"o. c #DBE2EF",
"O. c #C2E4F2",
"+. c #CEE4F2",
"@. c #CAEFFC",
"#. c #D5E5F2",
"$. c #DDE4F1",
"%. c #D6E9F2",
"&. c #DBEBF2",
"*. c #CDF4FB",
"=. c #C1FFFF",
"-. c #CCFFFF",
";. c #D4F6FD",
":. c #D3FEFF",
">. c #DCFFFF",
",. c #E1E6F2",
"<. c #E5ECF4",
"1. c #EAEEF5",
"2. c #E3ECFE",
"3. c #EDF1F6",
"4. c #E4FFFF",
"5. c #E8FFFF",
"6. c None",
/* pixels */
"6.6.6.6.6.6.6.6.6.6.6.6.6.6.6.6.6.6.6.6.6.6.6.6.6.6.6.6.6.6.6.6.6.6.6.6.6.6.6.6.6.6.6.6.6.6.6.6.6.6.",
"6.6.6.6.6.6.6.6.6.6.6.6.6.6.6.6.6.6.6.6.6.6.6.6.6.6.6.6.6.6.6.6.6.6.6.6.6.6.6.6.6.6.6.6.6.6.6.6.6.6.",
"6.6.6.6.6.6.6.6.6.6.6.6.6.6.6.6.6.6.6.6.6.6.6.6.6.6.6.6.6.6.6.6.6.6.6.6.6.6.6.6.6.6.6.6.6.6.6.6.6.6.",
"6.6.6.6.6.6.6.6.6.6.6.6.6.6.6.6.6.6.6.6.6.6.6.6.6.6.6.6.6.6.6.6.6.6.6.6.6.6.6.6.6.6.6.6.6.6.6.6.6.6.",
"6.6.6.6.6.6.6.6.6.6.6.6.6.6.6.6.6.6.6.6.6.6.6.6.6.6.6.6.6.6.6.6.6.6.6.6.6.6.6.6.6.6.6.6.6.6.6.6.6.6.",
"6.6.6.6.6.6.6.6.6.6.6.6.6.6.6.6.6.6.6.6.6.6.6.6.6.6.6.6.6.6.6.6.6.6.6.6.6.6.6.6.6.6.6.6.6.6.6.6.6.6.",
"6.6.6.6.6.6.6.6.6.6.6.6.6.6.6.6.6.6.6.6.6.6.6.6.6.6.6.6.6.6.6.6.6.6.6.6.6.6.6.6.6.6.6.6.6.6.6.6.6.6.",
"6.6.6.6.6.6.6.6.6.6.6.6.6.6.6.6.6.6.6.6.6.6.6.6.6.6.6.6.6.6.6.6.6.6.6.6.6.6.6.6.6.6.6.6.x x 6.6.6.6.",
"6.6.6.6.6.6.6.6.6.6.6.6.6.6.6.6.6.6.6.6.6.6.6.6.6.6.6.6.6.6.6.6.6.6.6.6.6.6.6.6.6.6.6.6.[ R 6.6.6.6.",
"6.6.6.6.6.6.6.6.x 6.6.6.6.6.6.6.6.6.6.6.6.6.6.6.6.6.6.6.6.6.6.6.6.6.<.6.6.6.6.6.6.6.6.=.:.R 6.6.6.6.",
"6.6.6.6.6.6.6.x =.x 6.6.6.6.6.6.6.6.6.6.6.6.6.6.6.6.6.6.6.6.6.6.6.6.6.6.6.6.6.6.6.x [ 4.-.R 6.6.6.6.",
"6.6.6.6.6.6.x =.5.=.R 6.6.6.6.6.6.6.6.6.6.6.6.6.6.6.6.6.6.6.6.6.6.6.6.6.6.6.6.6.R =.4.4.:.R 6.6.6.6.",
"6.6.6.6.6.6.x =.5.4.' 6.6.6.6.6.6.6.6.6.6.6.6.6.6.6.6.6.6.6.6.6.6.6.6.6.6.6.6.~ :.4.4.4.:.R 6.6.6.6.",
"6.6.6.6.6.6.x =.4.4.:.! 6.6.6.6.6.6.6.X.o.,.2.2.6.6.6.6.6.6.6.6.6.6.6.6.6.x Q :.4.4.4.4.-.R 6.6.6.6.",
"6.6.6.6.6.6.x =.4.4.4.-.x 6.6.6.6.o.$.,.,.o.,.o.} } $.| 6.6.6.6.6.6.6.6.x =.-.4.4.4.4.4.:.R 6.6.6.6.",
"6.6.6.6.6.6.x =.4.4.4.-.x 6.6.6.6.o.o.,.3.3.3.1.<.1.o.| | 6.6.6.6.6.6.x [ 4.4.4.4.4.4.4.:.E 6.6.6.6.",
"6.6.6.6.6.6.x =.4.4.4.4.[ x 6.$.$.$.<.3.t y t t e e 1.$.} } } 6.6.6.c =.4.4.4.4.4.4.>.>./ 6.6.6.6.6.",
"6.6.6.6.6.6.x ' >.>.4.>.[ E ..$.<.$.t u : r 7 7 8 = t A $.| } } 6.m =.>.[ =.-.>.>.>.[ [ ! 6.6.6.6.6.",
"6.6.6.6.6.6.6.x [ [ -.[ [ =._ O.D t 9 j j k f $ # 3 ; 8 A G $.| K =.-.[ [ [ [ [ [ [ =.Q 6.6.6.6.6.6.",
"6.6.6.6.6.6.6.6.x [ [ [ [ [ >.*.; , k b b b b 2 1 1 $ @ 8 e <.) [ =.[ [ =.[ [ =.[ =.c Z 6.6.6.6.6.6.",
"6.6.6.6.6.6.6.6.6.x W [ [ [ >.M i 2 b #.%.#.#.L 1 1 1 $ % 8 o >.=.=.=.=.=.=.=.=.x x 6.6.6.6.6.6.6.6.",
"6.6.6.6.6.6.6.6.6.6.P x [ 4.N @ i h +.%.#.%.#.%.K K d d @ q . M :.=.c x x x x x 6.6.6.6.6.6.6.6.6.6.",
"6.6.6.6.6.6.6.6.6.6.{ o.m ) B g p } %.%.%.%.%.%.#.^ B d a & q M ^ c 6.6.6.6.6.6.6.6.6.6.6.6.6.6.6.6.",
"6.6.6.6.6.6.6.6.6.6.} $.1.y ; i H %.%.&.&.&.%.%.%.#.K z a 6 7 > y | | 6.6.6.6.6.6.6.$.6.6.6.6.6.6.6.",
"6.6.6.6.6.6.6.6.6.6.} &.1.y V 3 { %.&.&.&.&.%.%.%.#.Y b a 3 6 w y o.} 6.6.6.6.6.6.6.6.6.6.6.6.6.6.6.",
"6.6.6.6.6.6.6.6.6.6.X.o.1.y V 3 { %.&.&.&.&.&.%.%.%.Y b a a < w u | } 6.6.6.6.6.6.6.6.6.6.6.6.6.6.6.",
"6.6.6.6.6.6.6.6.6.6.} ,.1.y V 3 { %.&.&.&.&.%.%.%.#.Y b M a > w y | | 6.6.6.6.6.6.6.6.6.6.6.6.6.6.6.",
"6.6.6.6.6.6.6.6.6.6.} $.1.e V * d +.%.%.&.&.&.%.#.^ n d a 3 > w y | } 6.6.6.6.6.6.6.6.6.6.6.6.6.6.6.",
"6.6.6.6.6.6.6.6.6.6.6.,.1.u * S n P +.#.#.&.#.+.Y J B d 3 < w : A | } 6.6.6.6.6.6.6.6.6.6.6.6.6.6.6.",
"6.6.6.6.6.6.6.6.6.6.6.,.,.1.u 6 l J Y I I I { J n n d a < 5 > e $.} 6.6.6.6.6.6.6.6.6.6.6.6.6.6.6.6.",
"6.6.6.6.6.6.6.6.6.6.6.6.,.%.<.y j k k J J Z Z Z 2 3 + & & 8 w $.| } 6.6.6.6.6.6.6.6.6.6.6.6.6.6.6.6.",
"6.6.6.6.6.6.6.6.6.6.6.6.6.o.3.( ; j s k 1 1 $ $ # + o & 8 o ) 2.} 6.6.6.6.6.6.6.6.6.6.6.6.6.6.6.6.6.",
"6.6.6.6.6.6.6.6.6.6.6.6.6.,.x ;.> r V   # # + # & % & e X 9 4.x 4 6.6.6.6.6.6.6.6.6.6.6.6.6.6.6.6.6.",
"6.6.6.6.6.6.6.6.6.6.6.6.6.x [ [ :.M & w 8 o o o & 8 8 < @.>.[ [ ' 6.6.6.6.6.6.6.6.6.6.6.6.6.6.6.6.6.",
"6.6.6.6.6.6.6.6.6.6.6.6.6.x x K ( ,.U U > w w e w O S Y ] _ _ _ _ ! 6.6.6.6.6.6.6.6.6.6.6.6.6.6.6.6.",
"6.6.6.6.6.6.6.6.6.6.6.6.6.6.6.6.o.$.$.<.$.| #.o. . .$.#.I C 6.6.n 6.6.6.6.6.6.6.6.6.6.6.6.6.6.6.6.6.",
"6.6.6.6.6.6.6.6.6.6.6.6.6.6.6.6.6.$.$.,.o.$.,.%.} } $.| F 6.6.6.6.6.6.6.6.6.6.6.6.6.6.6.6.6.6.6.6.6.",
"6.6.6.6.6.6.6.6.6.6.6.6.6.6.6.6.6.6.6.6.$.$.$.$.} } 6.6.6.6.6.6.6.6.6.6.6.6.6.6.6.6.6.6.6.6.6.6.6.6.",
"6.6.6.6.6.6.6.6.6.6.6.6.6.6.6.6.6.6.6.6.6.6.6.6.6.6.6.6.6.6.6.6.6.6.6.6.6.6.6.6.6.6.6.6.6.6.6.6.6.6.",
"6.6.6.6.6.6.6.6.6.6.6.6.6.6.6.6.6.6.6.3.<.6.6.6.6.6.6.6.6.6.6.6.6.6.6.6.6.6.6.6.6.6.6.6.6.6.6.6.6.6.",
"6.6.6.6.6.6.6.6.6.6.6.6.6.6.6.6.6.6.<.3.<.<.6.6.6.6.6.6.6.6.6.6.6.6.6.6.6.6.6.6.6.6.6.6.6.6.6.6.6.6.",
"6.6.6.6.6.6.6.6.6.6.6.6.6.6.6.6.6.6.6.3.<.6.6.6.6.6.6.6.6.6.6.6.6.6.6.6.6.6.6.6.6.6.6.6.6.6.6.6.6.6.",
"6.6.6.6.6.6.6.6.6.6.6.6.6.6.6.6.6.6.6.6.6.6.6.6.6.6.6.6.6.6.6.6.6.6.6.6.6.6.6.6.6.6.6.6.6.6.6.6.6.6.",
"6.6.6.6.6.6.6.6.6.6.6.6.6.6.6.6.6.6.6.6.6.6.6.6.6.6.6.6.6.6.6.6.6.6.6.6.6.6.6.6.6.6.6.6.6.6.6.6.6.6.",
"6.6.6.6.6.6.6.6.6.6.6.6.6.6.6.6.6.6.6.6.6.6.6.6.6.6.6.6.6.6.6.6.6.6.6.6.6.6.6.6.6.6.6.6.6.6.6.6.6.6.",
"6.6.6.6.6.6.6.6.6.6.6.6.6.6.6.6.6.6.6.6.6.6.6.6.6.6.6.6.6.6.6.6.6.6.6.6.6.6.6.6.6.6.6.6.6.6.6.6.6.6.",
"6.6.6.6.6.6.6.6.6.6.6.6.6.6.6.6.6.6.6.6.6.6.6.6.6.6.6.6.6.6.6.6.6.6.6.6.6.6.6.6.6.6.6.6.6.6.6.6.6.6.",
"6.6.6.6.6.6.6.6.6.6.6.6.6.6.6.6.6.6.6.6.6.6.6.6.6.6.6.6.6.6.6.6.6.6.6.6.6.6.6.6.6.6.6.6.6.6.6.6.6.6.",
"6.6.6.6.6.6.6.6.6.6.6.6.6.6.6.6.6.6.6.6.6.6.6.6.6.6.6.6.6.6.6.6.6.6.6.6.6.6.6.6.6.6.6.6.6.6.6.6.6.6.",
"6.6.6.6.6.6.6.6.6.6.6.6.6.6.6.6.6.6.6.6.6.6.6.6.6.6.6.6.6.6.6.6.6.6.6.6.6.6.6.6.6.6.6.6.6.6.6.6.6.6."
};
