/* XPM */
static char *result[] = {
/* columns rows colors chars-per-pixel */
"50 50 131 2 ",
"   c #779BE9",
".  c #7D9EEC",
"X  c #5FB6E7",
"o  c #66AEE7",
"O  c #6AAFE8",
"+  c #7FA1EA",
"@  c #72AAE9",
"#  c #66B2E7",
"$  c #69B5E7",
"%  c #67BCE6",
"&  c #6DBDE7",
"*  c #66B2E8",
"=  c #6CB4E8",
"-  c #6BBAE8",
";  c #7CB6E7",
":  c #73BFE7",
">  c #73B5EA",
",  c #7BB5EC",
"<  c #74BDE9",
"1  c #7EBDED",
"2  c #65C3E6",
"3  c #6AC6E6",
"4  c #73C1E7",
"5  c #7FC9EC",
"6  c #93B3DF",
"7  c #83A3EC",
"8  c #89A7ED",
"9  c #86A8E9",
"0  c #8BA9EC",
"q  c #93ADEE",
"w  c #83BDE7",
"e  c #84B3E8",
"r  c #8DB6E8",
"t  c #82BCED",
"y  c #95B5E7",
"u  c #95BAE7",
"i  c #9ABBE6",
"p  c #93B4EA",
"a  c #9CB6EF",
"s  c #93BCEB",
"d  c #98BFEF",
"f  c #8ABFF1",
"g  c #AABFF0",
"h  c #8AC5E6",
"j  c #87CBE6",
"k  c #82C4ED",
"l  c #8DC1EC",
"z  c #84CDED",
"x  c #8ACEEB",
"c  c #95C7E7",
"v  c #9BC3E7",
"b  c #96CAE6",
"n  c #9CC6ED",
"m  c #93CCED",
"M  c #9CCCED",
"N  c #86D0ED",
"B  c #85DBED",
"V  c #8BDDED",
"C  c #95D2ED",
"Z  c #9DD4ED",
"A  c #92DEEE",
"S  c #8DC1F0",
"D  c #93C3F4",
"F  c #9CD9F0",
"G  c #A2C4E6",
"H  c #A5C8E5",
"J  c #AACCE2",
"K  c #A3CFED",
"L  c #ADD0E5",
"P  c #A2D3ED",
"I  c #ABD6ED",
"U  c #AEDAEF",
"Y  c #B0D3E4",
"T  c #B0DBED",
"R  c #BFDAEA",
"E  c #A0CFF6",
"W  c #A1D2F4",
"Q  c #ACDDF2",
"!  c #A8D6F9",
"~  c #B9DEF1",
"^  c #8DE0EF",
"/  c #91E2EF",
"(  c #9EE2EF",
")  c #8FE3F0",
"_  c #92E3F1",
"`  c #98E7F2",
"'  c #A0E1EF",
"]  c #AEE7F3",
"[  c #A1ECF6",
"{  c #ABECF5",
"}  c #B2E1F3",
"|  c #B9E3F9",
" . c #A8F0F7",
".. c #ADF1F8",
"X. c #B5F6FA",
"o. c #B7F8FB",
"O. c #BEFEFF",
"+. c #C3D3E7",
"@. c #C7D5E8",
"#. c #C8D6E9",
"$. c #C4DAE9",
"%. c #CDDCEB",
"&. c #D1DDEC",
"*. c #C3DDF2",
"=. c #CADFF0",
"-. c #D6E1EF",
";. c #D9E2EF",
":. c #CEE3F1",
">. c #C7EBF5",
",. c #C8ECFB",
"<. c #D5E6F2",
"1. c #DCE6F1",
"2. c #D6E9F2",
"3. c #DBEAF2",
"4. c #C4F2F8",
"5. c #C9F1FB",
"6. c #C2FFFF",
"7. c #CAFFFF",
"8. c #D3F1F6",
"9. c #D2F6FD",
"0. c #D4FEFE",
"q. c #DCFEFF",
"w. c #E5EDF5",
"e. c #E9EFF6",
"r. c #ECF1F7",
"t. c #EDF3F8",
"y. c #E4FFFF",
"u. c #F2F5F9",
"i. c #F7F9FA",
"p. c #F9FBFA",
"a. c None",
/* pixels */
"a.a.a.a.a.a.a.a.a.a.a.a.a.a.a.a.a.a.a.a.a.a.a.a.a.a.a.a.a.a.a.a.a.a.a.a.a.a.a.a.a.a.a.a.a.a.a.a.a.a.",
"a.a.a.a.a.a.a.a.a.a.a.a.a.a.a.a.a.a.a.a.a.a.a.a.a.a.a.a.a.a.a.a.a.a.a.a.a.a.a.a.a.a.a.a.a.a.a.a.a.a.",
"a.a.a.a.a.a.a.a.a.a.a.a.a.a.a.a.a.a.a.a.a.a.a.a.a.a.a.a.a.a.a.a.a.a.a.a.a.a.a.a.a.a.a.a.a.a.a.a.a.a.",
"a.a.a.a.a.a.a.a.a.a.a.a.a.a.a.a.a.a.a.a.a.a.a.a.a.a.a.a.a.a.a.a.a.a.a.a.a.a.a.a.a.a.a.a.a.a.a.a.a.a.",
"a.a.a.a.a.a.a.a.a.a.a.a.a.a.a.a.a.a.a.a.a.a.a.a.a.a.a.a.a.a.a.a.a.a.a.a.a.a.a.a.a.a.a.a.a.a.a.a.a.a.",
"a.a.a.a.a.a.a.a.a.a.a.a.a.a.a.a.a.a.a.a.a.a.a.a.a.a.a.a.a.a.a.a.a.a.a.a.a.a.a.a.a.a.a.a.a.a.a.a.a.a.",
"a.a.a.a.a.a.a.a.a.a.a.a.a.a.a.a.a.a.a.a.a.a.a.a.a.a.a.a.a.a.a.a.a.a.a.a.a.a.a.a.a.a.a.a.a.a.a.a.a.a.",
"a.a.a.a.a.a.a.a.a.a.a.a.a.a.a.a.a.a.a.a.a.a.a.a.a.a.a.a.a.a.a.a.a.a.a.a.a.a.a.a.a.a.a.a.a.a.a.a.a.a.",
"a.a.a.a.a.a.a.a.a.a.a.a.a.a.a.a.a.a.a.a.a.a.a.a.a.a.a.a.a.a.a.a.a.a.a.a.a.a.a.a.a.a.a.a.a.a.a.a.a.a.",
"a.a.a.a.a.a.a.a.a.a.a.a.a.a.a.a.a.a.a.a.a.a.a.a.a.a.a.a.a.a.a.a.a.a.a.a.a.a.a.a.a.a.a.a.a.a.a.a.a.a.",
"a.a.a.a.a.a.a.a.a.a.a.a.a.a.a.a.a.a.a.a.a.a.a.a.a.a.a.a.a.a.a.a.a.a.a.a.a.a.a.a.a.a.a.y a.a.a.a.a.a.",
"a.a.a.a.a.a.a.a.a.a.a.a.a.a.a.a.a.a.a.a.a.a.a.a.a.a.a.a.a.a.a.a.a.a.a.a.a.a.a.a.a.a._ V a.a.a.a.a.a.",
"a.a.a.a.a.a.a.a.a.a./ _ a.a.a.a.a.a.a.a.a.a.a.a.a.a.a.a.a.a.a.a.a.a.a.a.a.a.a.a.a.[ 0.o.a.a.a.a.a.a.",
"a.a.a.a.a.a.a.a.a.a.` o.V a.a.a.a.a.a.a.a.a.a.a.a.a.a.a.a.a.a.a.a.a.a.a.a.a.a.B X.y.y.o.j a.a.a.a.a.",
"a.a.a.a.a.a.a.a.a.B 7.7.V a.a.a.a.a.a.a.a.a.a.a.a.a.a.a.a.a.a.a.a.a.a.a.a.a.a.X.y.y.y.o.h a.a.a.a.a.",
"a.a.a.a.a.a.a.a.a.V 7.y.6.B a.a.a.a.a.a.a.a.a.a.a.a.a.a.a.a.a.a.a.a.a.a.a.a.` q.y.y.y.q.[ a.a.a.a.a.",
"a.a.a.a.a.a.a.a.a.V 7.y.O.^ a.e.a.a.a.a.a.a.a.a.a.a.a.a.a.a.a.a.a.a.a.a.a.^ 7.y.y.y.y.y.[ a.a.a.a.a.",
"a.a.a.a.a.a.a.a.B 6.y.y.7.) a.a.a.a.a.a.-.-.1.-.@.#.a.a.a.a.a.a.a.a.a.a.) 7.y.y.y.y.y.q.[ a.a.a.a.a.",
"a.a.a.a.a.a.a.a.B O.y.y.q.O.5 $.%.-.-.1.e.e.r.e.1.1.;.&.#.a.a.a.a.a.B  .0.y.y.y.y.y.y.q.` a.a.a.a.a.",
"a.a.a.a.a.a.a.a.B O.y.y.6.O.B -.-.-.u.i.0 0 0 0 8 7 t.1.#.#.#.a.a.B o.y.O.y.y.y.y.y.6.o.a.a.a.a.a.a.",
"a.a.a.a.a.a.a.a.B 6.O.O.O.6.7.B w.u.7 8 # u i u i # . g t.#.#.#.J  .y.O.O.O.O.O.O.O.6.B a.a.a.a.a.a.",
"a.a.a.a.a.a.a.a.a.B O.O.O.O.O.O.8.a # s d t > = $ i u @ <.u.@.#.^ 0.6.O.O.O.O.O.O.7.B a.a.a.a.a.a.a.",
"a.a.a.a.a.a.a.a.a.B O.O.O.6.O.9.f s n m m C C 3 2 % $ u 9 7 u.V 7.7.O.O.O.O.O.6.o.B a.a.a.a.a.a.a.a.",
"a.a.a.a.a.a.a.a.a.a.( o.O.O.q.| w : m I T U U j 2 3 2 $ ; 0 *.,.O.O.6.O.6.O.o. .B a.a.a.a.a.a.a.a.a.",
"a.a.a.a.a.a.a.a.a.a.a./ _ q.! < h b >.2.<.<.<.:.F C 5 5 % u O W 7.6.` _ / _ / a.a.a.a.a.a.a.a.a.a.a.",
"a.a.a.a.a.a.a.a.a.a.a.1.1.] 1 v j %.<.2.2.2.2.2.:.} F N k $ u D ] V J a.a.a.a.a.a.a.a.a.a.a.a.a.a.a.",
"a.a.a.a.a.a.a.a.a.a.&.;.u.7 X G x <.3.3.3.3.3.2.2.-.F N k t i o q ;.#.a.a.a.a.a.a.a.a.a.a.a.a.a.a.a.",
"a.a.a.a.a.a.a.a.a.a.%.1.u.7 v : $.<.3.3.3.3.2.2.2.<.U C k k , p q 1.#.a.a.a.a.a.a.a.a.a.a.a.a.a.a.a.",
"a.a.a.a.a.a.a.a.a.a.a.1.u.7 G < R 2.1.3.3.3.3.2.2.2.Q C k 1 1 r p <.#.a.a.a.a.a.a.a.a.a.a.a.a.a.a.a.",
"a.a.a.a.a.a.a.a.a.a.a.1.u.7 G 4 R 2.3.3.3.3.3.2.2.2.Q C k 5 , p q -.#.a.a.a.a.a.a.a.a.a.a.a.a.a.a.a.",
"a.a.a.a.a.a.a.a.a.a.a.1.u.. G 3 x :.2.2.3.3.2.2.<.} Z x k 1 , p q 1.#.a.a.a.a.a.a.a.a.a.a.a.a.a.a.a.",
"a.a.a.a.a.a.a.a.a.a.a.1.t.. * H M ~ <.2.2.3.2.:.Q Q Z z 1 t y o p -.#.a.a.a.a.a.a.a.a.a.a.a.a.a.a.a.",
"a.a.a.a.a.a.a.a.a.a.a.w.;.i.8 G m I U <.<.1.3.} Z P N k t # u 7 e.#.a.a.a.a.a.a.a.a.a.a.a.a.a.a.a.a.",
"a.a.a.a.a.a.a.a.a.a.a.1.1.u.q > M K I I U L Y J C P k 5 > y o 0 w.+.a.a.a.a.a.a.a.a.a.a.a.a.a.a.a.a.",
"a.a.a.a.a.a.a.a.a.a.a.-.w.;.u.n l m m P m b b b % & # = > e s e.#.+.a.a.a.a.a.a.a.a.a.a.a.a.a.a.a.a.",
"a.a.a.a.a.a.a.a.a.a.a.-.&.&.` 5.t s v < % % % % $ # = r , f 9.' +.a.a.a.a.a.a.a.a.a.a.a.a.a.a.a.a.a.",
"a.a.a.a.a.a.a.a.a.a.a.a.&.B O.O.q.f O p p = O # O p r , ,.0.O.O.V a.a.a.a.a.a.a.a.a.a.a.a.a.a.a.a.a.",
"a.a.a.a.a.a.a.a.a.a.a.a.N 7.6.o._ t.7 7 o y y p y o , W q.6.O.O.o.a.a.a.a.a.a.a.a.a.a.a.a.a.a.a.a.a.",
"a.a.a.a.a.a.a.a.a.a.a.a.a.V B V 1.&.u.i.7 7 7 7 +   t.>.B B 7.O.6.[ a.a.a.a.a.a.a.a.a.a.a.a.a.a.a.a.",
"a.a.a.a.a.a.a.a.a.a.a.a.a.a.a.a.a.&.1.1.e.t.t.r.e.e.-.&.#.3.V A A V a.a.a.a.a.a.a.a.a.a.a.a.a.a.a.a.",
"a.a.a.a.a.a.a.a.a.a.a.a.a.a.a.a.a.a.a.;.-.;.1.-.@.@.a.a.1.3.1.1.1.a.a.a.a.a.a.a.a.a.a.a.a.a.a.a.a.a.",
"a.a.a.a.a.a.a.a.a.a.a.a.a.a.a.a.a.a.a.a.a.a.a.a.a.a.a.a.3.1.1.1.3.a.a.a.a.a.a.a.a.a.a.a.a.a.a.a.a.a.",
"a.a.a.a.a.a.a.a.a.a.a.a.a.a.a.a.a.a.a.a.a.a.a.a.a.a.a.a.a.1.1.1.a.a.a.a.a.a.a.a.a.a.a.a.a.a.a.a.a.a.",
"a.a.a.a.a.a.a.a.a.a.a.a.a.a.a.a.a.a.a.a.a.e.e.a.a.a.a.a.a.a.a.a.a.a.a.a.a.w.a.a.a.a.a.a.a.a.a.a.a.a.",
"a.a.a.a.a.a.a.a.a.a.a.a.a.a.a.a.a.a.a.a.e.e.e.e.a.a.a.a.a.a.a.a.a.a.a.a.a.a.a.a.a.a.a.a.a.a.a.a.a.a.",
"a.a.a.a.a.a.a.a.a.a.a.a.a.a.a.a.a.a.a.a.w.3.w.w.a.a.a.a.a.a.a.a.a.a.a.a.a.a.a.a.a.a.a.a.a.a.a.a.a.a.",
"a.a.a.a.a.a.a.a.a.a.a.a.a.a.a.a.a.a.a.a.a.w.e.a.a.a.a.a.a.a.a.a.a.a.a.a.a.a.a.a.a.a.a.a.a.a.a.a.a.a.",
"a.a.a.a.a.a.a.a.a.a.a.a.a.a.a.a.a.a.a.a.a.a.a.a.a.a.a.a.a.a.a.a.a.a.a.a.a.a.a.a.a.a.a.a.a.a.a.a.a.a.",
"a.a.a.a.a.a.a.a.a.a.a.a.a.a.a.a.a.a.a.a.a.a.a.a.a.a.a.a.a.a.a.a.a.a.a.a.a.a.a.a.a.a.a.a.a.a.a.a.a.a.",
"a.a.a.a.a.a.a.a.a.a.a.a.a.a.a.a.a.a.a.a.a.a.a.a.a.a.a.a.a.a.a.a.a.a.a.a.a.a.a.a.a.a.a.a.a.a.a.a.a.a."
};
