/* XPM */
static char *result[] = {
/* columns rows colors chars-per-pixel */
"50 50 120 2 ",
"   c #6AAEE7",
".  c #67AFE8",
"X  c #7FAEE8",
"o  c #65B7E7",
"O  c #69B5E7",
"+  c #66BBE6",
"@  c #6CBAE7",
"#  c #6BB4E8",
"$  c #6EBDE9",
"%  c #71B4E7",
"&  c #76BDE7",
"*  c #7EBAE6",
"=  c #73B3E9",
"-  c #7EB2E9",
";  c #73BBEA",
":  c #7EBBEC",
">  c #64C5E6",
",  c #6AC3E7",
"<  c #73C1E7",
"1  c #7EC2E7",
"2  c #8BADE9",
"3  c #95ADE9",
"4  c #89B5E7",
"5  c #8CBCE7",
"6  c #85B4EA",
"7  c #8BB4E9",
"8  c #8BBCEC",
"9  c #94BBE7",
"0  c #99BAE6",
"q  c #94B4E9",
"w  c #9CB7ED",
"e  c #92BAE9",
"r  c #9ABAEC",
"t  c #8ABFF1",
"y  c #A3BBEC",
"u  c #8CC3E7",
"i  c #89CCE7",
"p  c #82C4ED",
"a  c #86CDED",
"s  c #8DCCEB",
"d  c #9BC2E7",
"f  c #93C6ED",
"g  c #9DC6ED",
"h  c #94CDED",
"j  c #9BCDEE",
"k  c #8BD1ED",
"l  c #84DAEC",
"z  c #89DDEE",
"x  c #94D2ED",
"c  c #9ED4ED",
"v  c #94DEEE",
"b  c #8EC5F1",
"n  c #93C3F4",
"m  c #96CAF5",
"M  c #9CCBF5",
"N  c #8CDFF0",
"B  c #A2C5E6",
"V  c #A7CEE2",
"C  c #ADCDE6",
"Z  c #A7CEED",
"A  c #B0CAE0",
"S  c #ABD1E6",
"D  c #A4D3EE",
"F  c #ACD4ED",
"G  c #A3D9EE",
"H  c #AFD9ED",
"J  c #B1D3E5",
"K  c #BAD0E4",
"L  c #BDD5E8",
"P  c #B2DCED",
"I  c #BBDCEC",
"U  c #A5CCF0",
"Y  c #B9CBF0",
"T  c #ACDEF1",
"R  c #B6D7F2",
"E  c #B1DFF2",
"W  c #8EE0EF",
"Q  c #90E0EF",
"!  c #92E3F0",
"~  c #98E6F3",
"^  c #9CEAF4",
"/  c #AEE4F2",
"(  c #A3ECF5",
")  c #BCE3F2",
"_  c #B7EBF4",
"`  c #ACF1F8",
"'  c #B9F0F7",
"]  c #B5F5FA",
"[  c #B7F8FB",
"{  c #BFFFFF",
"}  c #C0D2E7",
"|  c #C6D5E8",
" . c #C8D6E9",
".. c #C0DBEA",
"X. c #CCDBEC",
"o. c #D2DDED",
"O. c #C9D7F2",
"+. c #CCD9F1",
"@. c #D4DEF2",
"#. c #D6E1EF",
"$. c #D9E2EF",
"%. c #C6E3F2",
"&. c #CFE1F1",
"*. c #CEE9F4",
"=. c #D4E6F2",
"-. c #DCE4F1",
";. c #D6E9F2",
":. c #DBEBF2",
">. c #C2FFFF",
",. c #CAFDFE",
"<. c #D1F6FD",
"1. c #D4FDFE",
"2. c #DCFFFF",
"3. c #E1E6F2",
"4. c #E3E9F3",
"5. c #EAEFF5",
"6. c #ECF0F6",
"7. c #E4FFFF",
"8. c #F0F4F6",
"9. c None",
/* pixels */
"9.9.9.9.9.9.9.9.9.9.9.9.9.9.9.9.9.9.9.9.9.9.9.9.9.9.9.9.9.9.9.9.9.9.9.9.9.9.9.9.9.9.9.9.9.9.9.9.9.9.",
"9.9.9.9.9.9.9.9.9.9.9.9.9.9.9.9.9.9.9.9.9.9.9.9.9.9.9.9.9.9.9.9.9.9.9.9.9.9.9.9.9.9.9.9.9.9.9.9.9.9.",
"9.9.9.9.9.9.9.9.9.9.9.9.9.9.9.9.9.9.9.9.9.9.9.9.9.9.9.9.9.9.9.9.9.9.9.9.9.9.9.9.9.9.9.9.9.9.9.9.9.9.",
"9.9.9.9.9.9.9.9.9.9.9.9.9.9.9.9.9.9.9.9.9.9.9.9.9.9.9.9.9.9.9.9.9.9.9.9.9.9.9.9.9.9.9.9.9.9.9.9.9.9.",
"9.9.9.9.9.9.9.9.9.9.9.9.9.9.9.9.9.9.9.9.9.9.9.9.9.9.9.9.9.9.9.9.9.9.9.9.9.9.9.9.9.9.9.9.9.9.9.9.9.9.",
"9.9.9.9.9.9.9.9.9.9.9.9.9.9.9.9.9.9.9.9.9.9.9.9.9.9.9.9.9.9.9.9.9.9.9.9.9.9.9.9.9.9.9.9.9.9.9.9.9.9.",
"9.9.9.9.9.9.9.9.9.9.9.9.9.9.9.9.9.9.9.9.9.9.9.9.9.9.9.9.9.9.9.9.9.9.9.9.9.9.9.9.9.9.9.9.9.9.9.9.9.9.",
"9.9.9.9.9.9.9.9.9.9.9.9.9.9.9.9.9.9.9.9.9.9.9.9.9.9.9.9.9.9.9.9.9.9.9.9.9.9.9.9.9.9.9.9.9.9.9.9.9.9.",
"9.9.9.9.9.9.9.9.9.9.9.9.9.9.9.9.9.9.9.9.9.9.9.9.9.9.9.9.9.9.9.9.9.9.9.9.9.9.9.9.9.9.9.9.9.9.9.9.9.9.",
"9.9.9.9.9.9.9.9.9.9.9.9.9.9.9.9.9.9.9.9.9.9.9.9.9.9.9.9.9.9.9.9.9.9.9.9.9.9.9.9.9.9.9.9.9.9.9.9.9.9.",
"9.9.9.9.9.9.9.9.9.9.9.9.9.9.9.9.9.9.9.9.9.9.9.9.9.9.9.9.9.9.9.9.9.9.9.9.9.9.9.9.9.9.9.9.9.9.9.9.9.9.",
"9.9.9.9.9.9.9.9.9.9.9.9.9.9.9.9.9.9.9.9.9.9.9.9.9.9.9.9.9.9.9.9.9.9.9.9.9.9.9.9.9.9.9.9.9.9.9.9.9.9.",
"9.9.9.9.9.9.9.9.9.9.9.9.9.9.9.9.9.9.9.9.9.9.9.9.9.9.9.9.9.9.9.9.9.9.9.9.9.9.9.9.9.9.9.9.9.9.9.9.9.9.",
"9.9.9.9.9.9.9.9.9.9.9.9.9.9.9.9.9.9.9.9.9.9.9.9.9.9.9.9.9.9.9.9.9.9.9.9.9.9.9.9.9.9.9.9.9.9.9.9.9.9.",
"9.9.9.9.9.9.9.9.9.9.9.9.9.9.9.9.9.9.9.9.9.9.9.9.9.9.9.9.9.9.9.9.9.9.9.9.9.9.9.9.9.9.z z 9.9.9.9.9.9.",
"9.9.9.9.9.9.9.9.9.9.9.l 9.9.9.9.9.9.9.9.9.9.9.9.9.9.9.9.9.9.9.9.9.9.9.9.9.9.9.9.9.l { [ 9.9.9.9.9.9.",
"9.9.9.9.9.9.9.9.9.9.~ ^ 9.9.9.9.9.9.9.9.9.9.9.9.9.9.9.9.9.9.9.9.9.9.9.9.9.9.9.9.z >.7.] i 9.9.9.9.9.",
"9.9.9.9.9.9.9.9.9.Z ( >.W 9.9.9.9.9.9.9.9.9.9.9.9.9.9.9.9.9.9.9.9.9.9.9.9.9.9.~ >.7.7.[ i 9.9.9.9.9.",
"9.9.9.9.9.9.9.9.9.z >.2.` W 9.9.9.9.9.9.9.9.9.9.9.9.9.9.9.9.9.9.9.9.9.9.9.9.~ ,.7.7.7.1.^ V 9.9.9.9.",
"9.9.9.9.9.9.9.9.9.z >.7.{ 1 9.9.9.9.9.9.9.9.9.9.9.9.9.9.9.9.9.9.9.9.9.9.9.z ,.7.7.7.7.7.( V 9.9.9.9.",
"9.9.9.9.9.9.9.9.l >.7.7.{ 1 9.9.9.9.9.9.$.$.-.o.| 9.9.9.9.9.9.9.9.9.9.9.l >.7.7.7.7.7.2.( 9.9.9.9.9.",
"9.9.9.9.9.9.9.9.l { 7.7.7.{ W 9.9.#.=.3.o.$.$.@.| | $.o.9.9.9.9.9.9.9.l { 7.7.7.7.7.7.7.( 9.9.9.9.9.",
"9.9.9.9.9.9.9.9.l >.7.7.7.{ l 9.$.#.$.-.4.4.4.:.-.@.$.o. .9.9.9.9.9.v >.7.7.7.7.7.7.7.<.9.9.9.9.9.9.",
"9.9.9.9.9.9.9.9.l >.1.1.{ { ^ I -.-.+.@.7 r w w q X O.+.o. . .9.9.~ >.1.{ 1.1.1.1.1.>.( 9.9.9.9.9.9.",
"9.9.9.9.9.9.9.9.9.! >.{ { { >.] *.Y % r 8 8 : ; % 9 9 4 o.-.| | ! ,.,.{ { { { { { >.! 9.9.9.9.9.9.9.",
"9.9.9.9.9.9.9.9.9.z { { >.{ { <.b e g f h x x , > + @ q q q 4.z >.,.>.>.{ { { { { l 9.9.9.9.9.9.9.9.",
"9.9.9.9.9.9.9.9.9.9.Q >.{ { 1.<.* ; x x x x x > > , + o 7 q 5.) { { >.{ { >.{ >.l 9.9.9.9.9.9.9.9.9.",
"9.9.9.9.9.9.9.9.9.9.9.] { { 2.M 5 , x &.=.&.&.J > > , > O 7 - 1.{ { { >.{ { ` z 9.9.9.9.9.9.9.9.9.9.",
"9.9.9.9.9.9.9.9.9.9.9.v v <.m : i V =.=.;.;.;.=./ G k a ; 5 = t ,.] N z z z 9.9.9.9.9.9.9.9.9.9.9.9.",
"9.9.9.9.9.9.9.9.9.9.9.$.5.U $ d i =.;.=.:.:.:.=.=.%.c a p ; r 6 Z P  .9.9.9.9.9.9.9.9.9.9.9.9.9.9.9.",
"9.9.9.9.9.9.9.9.9.9.9.-.5.w d & L ;.;.:.4.:.;.;.;.=.T x p : : 5 y X. .9.9.9.9.9.9.9.9.9.9.9.9.9.9.9.",
"9.9.9.9.9.9.9.9.9.9.9.$.5.w B < ..=.:.4.:.:.;.;.;.=.T x p : : q y o. .9.9.9.9.9.9.9.9.9.9.9.9.9.9.9.",
"9.9.9.9.9.9.9.9.9.9.9.-.5.w B < ..;.-.:.:.:.;.;.;.=./ x p 1 : q w =.| 9.9.9.9.9.9.9.9.9.9.9.9.9.9.9.",
"9.9.9.9.9.9.9.9.9.9.9.$.6.w B < I :.:.:.:.:.;.;.;.=.T x p 1 : q y +. .9.9.9.9.9.9.9.9.9.9.9.9.9.9.9.",
"9.9.9.9.9.9.9.9.9.9.9.-.5.q 9 1 s %.;.;.:.:.;.=.%.T c a 1 : 6 6 y o. .9.9.9.9.9.9.9.9.9.9.9.9.9.9.9.",
"9.9.9.9.9.9.9.9.9.9.9.-.3.=.r d h F I ;.=.;.-.) G G s p t # q 4 +.X.K 9.9.9.9.9.9.9.9.9.9.9.9.9.9.9.",
"9.9.9.9.9.9.9.9.9.9.9.3.-.5.y % g D F F P J J S c c p p # 0 O 3 -.| 9.9.9.9.9.9.9.9.9.9.9.9.9.9.9.9.",
"9.9.9.9.9.9.9.9.9.9.9.-.-.=.8.y f h h F S S C C + $ o O . q 3 4.| | 9.9.9.9.9.9.9.9.9.9.9.9.9.9.9.9.",
"9.9.9.9.9.9.9.9.9.9.9.9.9.9.6./ : s s j , , , ; + O O . 7   _ 3. .} 9.9.9.9.9.9.9.9.9.9.9.9.9.9.9.9.",
"9.9.9.9.9.9.9.9.9.9.9.9.9.9.N <.b e 9 @ @ o o o O # % e : M 2.W L C 9.9.9.9.9.9.9.9.9.9.9.9.9.9.9.9.",
"9.9.9.9.9.9.9.9.9.9.9.9.9.( >.{ ' R 6 w 6 - X - 6 - 6 f <.,.{ { ( 9.9.9.9.9.9.9.9.9.9.9.9.9.9.9.9.9.",
"9.9.9.9.9.9.9.9.9.9.9.9.9.! W v #.$.;.4.q w w y 3 2 ;.) ! W >.{ >.^ 9.9.9.9.9.9.9.9.9.9.9.9.9.9.9.9.",
"9.9.9.9.9.9.9.9.9.9.9.9.9.9.9.9.X.$.$.-.5.5.6.5.-.3.$.o. .9.l l l l 9.9.9.9.9.9.9.9.9.9.9.9.9.9.9.9.",
"9.9.9.9.9.9.9.9.9.9.9.9.9.9.9.9.9.$.$.:.=.@.-.@.| | $.o.9.9.9.9.9.9.9.9.9.9.9.9.9.9.9.9.9.9.9.9.9.9.",
"9.9.9.9.9.9.9.9.9.9.9.9.9.9.9.9.9.9.9.9.$.$.-.$.|  .X.X.9.9.9.9.9.9.9.9.9.9.9.9.9.9.9.9.9.9.9.9.9.9.",
"9.9.9.9.9.9.9.9.9.9.9.9.9.9.9.9.9.9.9.9.9.9.9.9.9.9.9.9.9.9.9.9.9.9.9.9.9.9.9.9.9.9.9.9.9.9.9.9.9.9.",
"9.9.9.9.9.9.9.9.9.9.9.9.9.9.9.9.9.9.9.9.9.9.9.9.9.9.9.9.9.9.9.9.9.9.9.9.9.9.9.9.9.9.9.9.9.9.9.9.9.9.",
"9.9.9.9.9.9.9.9.9.9.9.9.9.9.9.9.9.9.9.9.9.9.9.9.9.9.9.9.9.9.9.9.9.9.9.9.9.9.9.9.9.9.9.9.9.9.9.9.9.9.",
"9.9.9.9.9.9.9.9.9.9.9.9.9.9.9.9.9.9.9.9.9.9.9.9.9.9.9.9.9.9.9.9.9.9.9.9.9.9.9.9.9.9.9.9.9.9.9.9.9.9.",
"9.9.9.9.9.9.9.9.9.9.9.9.9.9.9.9.9.9.9.9.9.9.9.9.9.9.9.9.9.9.9.9.9.9.9.9.9.9.9.9.9.9.9.9.9.9.9.9.9.9."
};
