/* XPM */
static char *result[] = {
/* columns rows colors chars-per-pixel */
"50 50 130 2 ",
"   c #7E9EEB",
".  c #6EAFE7",
"X  c #63AFE8",
"o  c #6CACE8",
"O  c #73A6EA",
"+  c #7EA2EA",
"@  c #73ADE9",
"#  c #69B6E7",
"$  c #66BAE7",
"%  c #6CBFE7",
"&  c #6BB3E8",
"*  c #6CBEE8",
"=  c #7DB6E7",
"-  c #74BDE7",
";  c #7DB9E7",
":  c #71B1E9",
">  c #7EB4EA",
",  c #73BBE9",
"<  c #7DBCED",
"1  c #64C2E6",
"2  c #6AC5E6",
"3  c #6FC9E8",
"4  c #72C2E7",
"5  c #72C8E7",
"6  c #7FC0ED",
"7  c #7FDAEC",
"8  c #85A5EC",
"9  c #8AA6ED",
"0  c #8CAAED",
"q  c #83B5E7",
"w  c #89B5E7",
"e  c #85BBE7",
"r  c #8FB9E7",
"t  c #86B4E8",
"y  c #8DB4E8",
"u  c #87BAEC",
"i  c #8FBFEB",
"p  c #93B6E7",
"a  c #93B9E7",
"s  c #99BBE7",
"d  c #94B4EA",
"f  c #9DB6EF",
"g  c #96BEED",
"h  c #A0B8EF",
"j  c #A4BAF1",
"k  c #8AC4E7",
"l  c #81C4ED",
"z  c #8CC5ED",
"x  c #86CDED",
"c  c #94C5E6",
"v  c #9EC4E7",
"b  c #93C6ED",
"n  c #93CDED",
"m  c #9DCDED",
"M  c #84DBEC",
"N  c #8CDBED",
"B  c #95D3ED",
"V  c #9DD3ED",
"C  c #93DAEC",
"Z  c #8AC4F2",
"A  c #93C5F3",
"S  c #9BCEF3",
"D  c #9FD0F2",
"F  c #A3C4E6",
"G  c #ADCEE6",
"H  c #A0C6ED",
"J  c #A5CFED",
"K  c #AFD3E3",
"L  c #A1D4ED",
"P  c #ABD5EC",
"I  c #ACDDED",
"U  c #B7D7E8",
"Y  c #B9D7EB",
"T  c #B1DDEE",
"R  c #B8CAF1",
"E  c #A7DAF0",
"W  c #ACDDF2",
"Q  c #8DE0EF",
"!  c #95E0EF",
"~  c #8FE1F0",
"^  c #91E2F0",
"/  c #9DE4F1",
"(  c #9EEBF5",
")  c #B6E0EE",
"_  c #A2E5F2",
"`  c #AEE2F3",
"'  c #A2ECF5",
"]  c #A9EFF6",
"[  c #B3E3F3",
"{  c #BDE2F1",
"}  c #BCEEF5",
"|  c #B6E2F9",
" . c #AEF1F8",
".. c #B5F5FA",
"X. c #B7F8FB",
"o. c #BEFEFF",
"O. c #CDD7EA",
"+. c #C2DBEA",
"@. c #CED9EB",
"#. c #D3DBEC",
"$. c #C5D4F3",
"%. c #DBE2EF",
"&. c #C1E2F2",
"*. c #CCE4F2",
"=. c #C9EBF4",
"-. c #D4E5F2",
";. c #DCE5F1",
":. c #D6E9F2",
">. c #DBEBF2",
",. c #C4F3F8",
"<. c #CFF5FB",
"1. c #C2FFFF",
"2. c #CBFEFF",
"3. c #D1F2FD",
"4. c #D2FFFF",
"5. c #DDFFFF",
"6. c #E1E7F2",
"7. c #E4EAF3",
"8. c #EAEEF5",
"9. c #E3F1F7",
"0. c #EDF1F7",
"q. c #E4F3F9",
"w. c #E9F2F9",
"e. c #E4FFFF",
"r. c #E9FFFF",
"t. c #F3F5F7",
"y. c #F3F5F9",
"u. c #F7F8F9",
"i. c #FBFCFB",
"p. c None",
/* pixels */
"p.p.p.p.p.p.p.p.p.p.p.p.p.p.p.p.p.p.p.p.p.p.p.p.p.p.p.p.p.p.p.p.p.p.p.p.p.p.p.p.p.p.p.p.p.p.p.p.p.p.",
"p.p.p.p.p.p.p.p.p.p.p.p.p.p.p.p.p.p.p.p.p.p.p.p.p.p.p.p.p.p.p.p.p.p.p.p.p.p.p.p.p.p.p.p.p.p.p.p.p.p.",
"p.p.p.p.p.p.p.p.p.p.p.p.p.p.p.p.p.p.p.p.p.p.p.p.p.p.p.p.p.p.p.p.p.p.p.p.p.p.p.p.p.p.p.p.p.p.p.p.p.p.",
"p.p.p.p.p.p.p.p.p.p.p.p.p.p.p.p.p.p.p.p.p.p.p.p.p.p.p.p.p.p.p.p.p.p.p.p.p.p.p.p.p.p.p.p.p.p.p.p.p.p.",
"p.p.p.p.p.p.p.p.p.p.p.p.p.p.p.p.p.p.p.p.p.p.p.p.p.p.p.p.p.p.p.p.p.p.p.p.p.p.p.p.p.p.p.p.p.p.p.p.p.p.",
"p.p.p.p.p.p.p.p.p.p.p.p.p.p.p.p.p.p.p.p.p.p.p.p.p.p.p.p.p.p.p.p.p.p.p.p.p.p.p.p.p.p.p.p.p.p.p.p.p.p.",
"p.p.p.p.p.p.p.p.p.p.p.p.p.p.p.p.p.p.p.p.p.p.p.p.p.p.p.p.p.p.p.p.p.p.p.p.p.p.p.p.p.p.p.p.p.p.p.p.p.p.",
"p.p.p.p.p.p.p.p.p.p.p.p.p.p.p.p.p.p.p.p.p.p.p.p.p.p.p.p.p.p.p.p.p.p.p.p.p.p.p.p.p.p.p.p.p.p.p.p.p.p.",
"p.p.p.p.p.p.p.p.p.p.p.p.p.p.p.p.p.p.p.p.p.p.p.p.p.p.p.p.p.p.p.p.p.p.p.p.p.p.p.p.p.p.p.p.p.p.p.p.p.p.",
"p.p.p.p.p.p.p.p.p.p.p.p.p.p.p.p.p.p.p.p.p.p.p.p.p.p.p.p.p.p.p.p.p.p.p.p.p.p.p.p.p.p.p.p.p.p.p.p.p.p.",
"p.p.p.p.p.p.p.p.p.p.p.p.p.p.p.p.p.p.p.p.p.p.p.p.p.p.p.p.p.p.p.p.p.p.p.p.p.p.p.p.p.p.p.p.p.p.p.p.p.p.",
"p.p.p.p.p.p.p.p.p.p.p.p.p.p.p.p.p.p.p.p.p.p.p.p.p.p.p.p.p.p.p.p.p.p.p.p.p.p.p.p.p.p.p.p.p.p.p.p.p.p.",
"p.p.p.p.p.p.p.p.p.p.p.p.p.p.p.p.p.p.p.p.p.p.p.p.p.p.p.p.p.p.p.p.p.p.p.p.p.p.p.p.p.p.p.p.p.p.p.p.p.p.",
"p.p.p.p.p.p.p.p.p.p.p.p.p.p.p.p.p.p.p.p.p.p.p.p.p.p.p.p.p.p.p.p.p.p.p.p.p.p.p.p.p.p.p.p.p.p.p.p.p.p.",
"p.p.p.p.p.p.p.p.p.p.p.p.p.p.p.p.p.p.p.p.p.p.p.p.p.p.p.p.p.p.p.p.p.p.p.p.p.p.p.p.p.p.p.p.p.p.p.p.p.p.",
"p.p.p.p.p.p.p.p.p.p.p.p.p.p.p.p.p.p.p.p.p.p.p.p.p.p.p.p.p.p.p.p.p.p.p.p.p.p.p.p.p.p.p.p.p.p.p.p.p.p.",
"p.p.p.p.p.p.p.p.p.p.p.p.p.p.p.p.p.p.p.p.p.p.p.p.p.p.p.p.p.p.p.p.p.p.p.p.p.p.p.p.p.p.p.p.p.p.p.p.p.p.",
"p.p.p.p.p.p.p.p.p.p.p.p.p.p.p.p.p.p.p.p.p.p.p.p.p.p.p.p.p.p.p.p.p.p.p.p.p.p.p.p.p.p.p.p.p.p.p.p.p.p.",
"p.p.p.p.p.p.M  .M p.p.p.p.p.p.p.p.p.p.p.p.p.p.p.p.p.p.p.p.p.p.p.p.p.p.p.p.p.p.p.p.p.p.p.M ] M p.p.p.",
"p.p.p.p.p.p...e.o.N p.p.p.p.p.p.p.p.p.p.p.p.p.p.p.p.p.p.p.p.p.p.p.p.p.p.p.p.p.p.p.p.M ~ o.o.M p.p.p.",
"p.p.p.p.p.B X.r.e.1.p.p.p.p.p.p.p.p.p.p.p.p.p.p.p.p.p.p.p.p.p.p.p.p.p.p.p.p.p.p.N M o.1.r.1.M p.p.p.",
"p.p.p.p.p.V X.e.e.o.C p.p.p.p.p.p.p.p.p.;.;.6.%.@.#.p.p.p.p.p.p.p.p.p.p.p.p.p.M o.o.e.e.4.Q p.p.p.p.",
"p.p.p.p.p.V X.e.e.e...I p.p.p.p.p.%.;.6.%.7.6.6.#.#.%.#.p.p.p.p.p.p.p.p.p.p.N ..5.e.e.e.2.Q p.p.p.p.",
"p.p.p.p.p.N X.e.e.e.5. .p.p.p.p.;.;.7.8.$.$.$.$.$.R 7.;.@.p.p.p.p.p.p.p.( ' 2.5.e.e.e.e.4.Q p.p.p.p.",
"p.p.p.p.p.p.^ 2.e.e.e.5...N %.%.6.0.h j : d p p a o f R 7.#.O.#.p.p.M X.5.5.e.e.e.e.e.e.2.~ p.p.p.p.",
"p.p.p.p.p.p.N 1.e.e.e.2.o.1.M %.y.h & g g u , # # s a @ -.0.O.O.#.M X.r.o.1.2.e.e.e.e.e.' p.p.p.p.p.",
"p.p.p.p.p.p.p.M o.e.o.o.1.o.1.` O r H b n B B 3 1 1 # s 8   u.O.+.] e.o.o.1.o.o.e.e.e.o.' p.p.p.p.p.",
"p.p.p.p.p.p.p.p.M o.o.o.o.o.4.3.; - B B B B B 2 2 2 $ # w 8 u.0.^ 4.1.o.o.o.o.o.o.o.o.1.p.p.p.p.p.p.",
"p.p.p.p.p.p.p.p.p.C / ..o.1.<.A k 4 L -.:.-.*.Y 5 5 3 * # p + [ 1.1.1.o.o.1.o.o.....N M p.p.p.p.p.p.",
"p.p.p.p.p.p.p.p.p.p.+.) _ ,.Z e k Y -.:.:.:.:.-.&.E B x - = q A 4.o.o.p.p.p.p.p.p.p.p.p.p.p.p.p.p.p.",
"p.p.p.p.p.p.p.p.p.p.p.;.w.0 $ v n -.:.>.>.>.:.-.-.*.V x l < s & Z _ N p.p.p.p.p.p.p.p.p.p.p.p.p.p.p.",
"p.p.p.p.p.p.p.p.p.p.p.;.y.8 F 4 +.-.>.>.>.>.:.:.:.:.W B l < < d d 6.#.p.p.p.p.p.p.7.p.p.p.p.p.p.p.p.",
"p.p.p.p.p.p.p.p.p.p.p.;.y.8 F - +.:.;.>.>.>.>.:.:.:._ B l l < y d %.O.p.p.p.p.p.p.p.p.p.p.p.p.p.p.p.",
"p.p.p.p.p.p.p.p.p.p.p.6.y.8 F 4 Y :.>.>.>.>.:.:.:.:.W B l < < d f %.@.p.p.p.p.p.p.p.p.p.p.p.p.p.p.p.",
"p.p.p.p.p.p.p.p.p.p.p.6.0.8 F 4 P -.:.>.>.>.>.:.-.*.E n l l > y f ;.@.p.p.p.p.p.p.p.p.p.p.p.p.p.p.p.",
"p.p.p.p.p.p.p.p.p.p.p.;.y.8 , c m &.-.-.>.>.:.:.[ W V x l < y @ d ;.@.p.p.p.p.p.p.p.p.p.p.p.p.p.p.p.",
"p.p.p.p.p.p.p.p.p.p.p.7.6.y.9 v n P T -.-.-.;.| V L x l e # p 8 7.@.p.p.p.p.p.p.p.p.p.p.p.p.p.p.p.p.",
"p.p.p.p.p.p.p.p.p.p.p.;.6.y.9 # m J P P P K K G V L z l & s X 8 8.@.p.p.p.p.p.p.p.p.p.p.p.p.p.p.p.p.",
"p.p.p.p.p.p.p.p.p.p.p.6.7.%.u.0 b n n P P G G G 1 - $ # & d   w.@.@.p.p.p.p.p.p.p.p.p.p.p.p.p.p.p.p.",
"p.p.p.p.p.p.p.p.p.p.p.p.7.%.q.| = z n n * 2 2 2 # # # & t : } q.7.7.p.p.p.p.p.p.p.p.p.p.p.p.p.p.p.p.",
"p.p.p.p.p.p.p.p.p.p.p.p.p.) ' 2.| i q ; ; X # X & = > u L | 2.' { ;.>.p.p.p.p.p.p.p.p.p.p.p.p.p.p.p.",
"p.p.p.p.p.p.p.p.p.p.p.p.M X.1.X._ :.8 0 : w y y y o q S 4.1.1.o...{ ;.>.p.p.p.p.p.p.p.p.p.p.p.p.p.p.",
"p.p.p.p.p.p.p.p.p.p.p.p.M M M N 6.p.u.i.8 9 9 8 8   u.*.M M 7 o.o.( -.>.p.p.p.p.p.p.p.p.p.p.p.p.p.p.",
"p.p.p.p.p.p.p.p.p.p.p.p.p.p.p.p.p.p.p.;.u.u.y.y.0.y.%.6.8.6.7.M 7 7 -.>.p.p.p.p.p.p.p.p.p.p.p.p.p.p.",
"p.p.p.p.p.p.p.p.p.p.p.p.p.p.p.p.p.p.p.p.p.p.p.p.p.p.;.7.;.;.;.;.;.;.;.>.p.p.p.p.p.p.p.p.p.p.p.p.p.p.",
"p.p.p.p.p.p.p.p.p.p.p.p.p.p.p.p.p.p.p.p.p.p.p.p.p.p.p.p.-.;.>.-.-.;.;.p.p.p.p.p.p.p.p.p.p.p.p.p.p.p.",
"p.p.p.p.p.p.p.p.p.p.p.p.p.p.p.p.p.p.p.p.p.p.p.p.p.p.p.p.p.p.;.;.-.@.p.p.p.p.p.p.p.p.p.p.p.p.p.p.p.p.",
"p.p.p.p.p.p.p.p.p.p.p.p.p.p.p.p.p.p.p.p.p.p.p.p.p.p.p.p.p.p.p.p.p.p.p.p.p.p.p.p.p.p.p.p.p.p.p.p.p.p.",
"p.p.p.p.p.p.p.p.p.p.p.p.p.p.p.p.p.p.p.p.p.p.p.p.p.p.p.p.p.p.p.p.p.p.p.p.p.p.p.p.p.p.p.p.p.p.p.p.p.p.",
"p.p.p.p.p.p.p.p.p.p.p.p.p.p.p.p.p.p.p.p.p.p.p.p.p.p.p.p.p.p.p.p.p.p.p.p.p.p.p.p.p.p.p.p.p.p.p.p.p.p."
};
