/* XPM */
static char *result[] = {
/* columns rows colors chars-per-pixel */
"50 50 129 2 ",
"   c #6AAEE7",
".  c #61ADE8",
"X  c #6CAFE8",
"o  c #78AFE8",
"O  c #65B5E7",
"+  c #69B4E7",
"@  c #66BBE6",
"#  c #6ABCE7",
"$  c #6CB3E8",
"%  c #75B4E7",
"&  c #73BFE7",
"*  c #7AB5EC",
"=  c #73BCE9",
"-  c #7EBDED",
";  c #65C2E6",
":  c #6AC3E6",
">  c #73C1E7",
",  c #70C8E6",
"<  c #73C2E9",
"1  c #7DC1EC",
"2  c #74C9E9",
"3  c #7FCEEA",
"4  c #7CDAEC",
"5  c #94AFEA",
"6  c #86B6E7",
"7  c #8FB7E7",
"8  c #80BBE7",
"9  c #8FB8E7",
"0  c #83B4E9",
"q  c #8BB4E9",
"w  c #84BDED",
"e  c #8EBFED",
"r  c #93B7E7",
"t  c #95BAE7",
"y  c #99BAE6",
"u  c #92B5E8",
"i  c #9CB5EC",
"p  c #96BEED",
"a  c #98BFED",
"s  c #A0BFE7",
"d  c #A0B6EE",
"f  c #A4BBED",
"g  c #AABEEE",
"h  c #B5C7DE",
"j  c #81C6E6",
"k  c #8AC1E7",
"l  c #88C8E6",
"z  c #82C4ED",
"x  c #89C4EE",
"c  c #85CDED",
"v  c #8DCFED",
"b  c #9DC5E6",
"n  c #92C6EC",
"m  c #9EC5ED",
"M  c #93CDED",
"N  c #9DCDED",
"B  c #84D4EC",
"V  c #85DBEC",
"C  c #89DCED",
"Z  c #95D2ED",
"A  c #9BD4ED",
"S  c #9BDCED",
"D  c #93C3F4",
"F  c #9FD1F4",
"G  c #A3C4E6",
"H  c #A6CAE6",
"J  c #A9CEE6",
"K  c #AFC4EE",
"L  c #A6CFED",
"P  c #B1C4EE",
"I  c #AED0E4",
"U  c #A3D4ED",
"Y  c #AAD4ED",
"T  c #A3D8EF",
"R  c #ADD9ED",
"E  c #B1D4E4",
"W  c #BFDBEB",
"Q  c #BACBF0",
"!  c #ABDDF2",
"~  c #B4DCF6",
"^  c #BBDFF1",
"/  c #8EE0EF",
"(  c #8DE1F0",
")  c #92E3F0",
"_  c #9CE2F0",
"`  c #9EEBF5",
"'  c #A3E0EE",
"]  c #AFE0F2",
"[  c #A2ECF6",
"{  c #B1E3F2",
"}  c #BFE3F2",
"|  c #BBEDF6",
" . c #A9F0F7",
".. c #ACF1F8",
"X. c #B2F4F9",
"o. c #BBF7FB",
"O. c #B7F8FB",
"+. c #BEFEFE",
"@. c #C3DBEB",
"#. c #CED9EB",
"$. c #D4DDED",
"%. c #DBDFEE",
"&. c #D3DDF1",
"*. c #C9E1EE",
"=. c #D7E0ED",
"-. c #DCE3EF",
";. c #C4E4F1",
":. c #C9E5F2",
">. c #C5E9F1",
",. c #C4EAFB",
"<. c #D4E6F2",
"1. c #DDE4F0",
"2. c #D6E9F2",
"3. c #DBEBF2",
"4. c #C5F4F8",
"5. c #CAF1FB",
"6. c #C3FFFF",
"7. c #C9FFFF",
"8. c #D2FFFF",
"9. c #DAFFFF",
"0. c #E1E7F2",
"q. c #E4EAF3",
"w. c #EAEFF5",
"e. c #EDF1F5",
"r. c #E4FFFF",
"t. c #E9FFFF",
"y. c #F1F3F6",
"u. c #F6F8F8",
"i. c None",
/* pixels */
"i.i.i.i.i.i.i.i.i.i.i.i.i.i.i.i.i.i.i.i.i.i.i.i.i.i.i.i.i.i.i.i.i.i.i.i.i.i.i.i.i.i.i.i.i.i.i.i.i.i.",
"i.i.i.i.i.i.i.i.i.i.i.i.i.i.i.i.i.i.i.i.i.i.i.i.i.i.i.i.i.i.i.i.i.i.i.i.i.i.i.i.i.i.i.i.i.i.i.i.i.i.",
"i.i.i.i.i.i.i.i.i.i.i.i.i.i.i.i.i.i.i.i.i.i.i.i.i.i.i.i.i.i.i.i.i.i.i.i.i.i.i.i.i.i.i.i.i.i.i.i.i.i.",
"i.i.i.i.i.i.i.i.i.i.i.i.i.i.i.i.i.i.i.i.i.i.i.i.i.i.i.i.i.i.i.i.i.i.i.i.i.i.i.i.i.i.i.i.i.i.i.i.i.i.",
"i.i.i.i.i.i.i.i.i.i.i.i.i.i.i.i.i.i.i.i.i.i.i.i.i.i.i.i.i.i.i.i.i.i.i.i.i.i.i.i.i.i.i.i.i.i.i.i.i.i.",
"i.i.i.i.i.i.i.i.i.i.i.i.i.i.i.i.i.i.i.i.i.i.i.i.i.i.i.i.i.i.i.i.i.i.i.i.i.i.i.i.i.i.i.i.i.i.i.i.i.i.",
"i.i.i.i.i.i.i.i.i.i.i.i.i.i.i.i.i.i.i.i.i.i.i.i.i.i.i.i.i.i.i.i.i.i.i.i.i.i.i.i.i.i.i.i.i.i.i.i.i.i.",
"i.i.i.i.i.i.i.i.i.i.i.i.i.i.i.i.i.i.i.i.i.i.i.i.i.i.i.i.i.i.i.i.i.i.i.i.i.i.i.i.i.i.i.i.i.i.i.i.i.i.",
"i.i.i.i.i.i.i.i.i.i.i.i.i.i.i.i.i.i.i.i.i.i.i.i.i.i.i.i.i.i.i.i.i.i.i.i.i.i.i.i.i.i.i.i.i.i.i.i.i.i.",
"i.i.i.i.i.i.i.i.i.i.i.i.i.i.i.i.i.i.i.i.i.i.i.i.i.i.i.i.i.i.i.i.i.i.i.i.i.i.i.i.i.i.i.i.i.i.i.i.i.i.",
"i.i.i.i.i.i.i.i.i.i.i.i.i.i.i.i.i.i.i.i.i.i.i.i.i.i.i.i.i.i.i.i.i.i.i.i.i.i.i.i.i.i.i.i.i.i.i.i.i.i.",
"i.i.i.i.i.i.i.i.i.i.i.i.i.i.i.i.i.i.i.i.i.i.i.i.i.i.i.i.i.i.i.i.i.i.i.i.i.i.i.i.i.i.i.i.i.i.i.i.i.i.",
"i.i.i.i.i.i.i.i.i.i.i.i.i.i.i.i.i.i.i.i.i.i.i.i.i.i.i.i.i.i.i.i.i.i.i.i.i.i.i.i.i.i.i.i.i.i.i.i.i.i.",
"i.i.i.i.i.i.C O.V i.i.i.i.i.i.i.i.i.i.i.i.i.i.i.i.i.i.i.i.i.i.i.i.i.i.i.i.i.i.i.i.i.i.i.V X.V i.i.i.",
"i.i.i.i.i.V O.t.6.V i.i.i.i.i.i.i.i.i.i.i.i.i.i.i.i.i.i.i.i.i.i.i.i.i.i.i.i.i.i.i.i.V ( 6.+.V i.i.i.",
"i.i.i.i.i.A O.r.t.6.C i.i.i.i.i.i.i.i.i.i.i.i.i.i.i.i.i.i.i.i.i.i.i.i.i.i.i.i.i.V V 6.6.t.6.V i.i.i.",
"i.i.i.i.i.C O.r.r.+.C i.i.i.i.i.i.i.i.i.1.1.1.1.#.#.i.i.i.i.i.i.i.i.i.i.i.i.i.C +.+.r.r.8.C i.i.i.i.",
"i.i.i.i.i.V O.r.r.r.o./ i.i.i.i.i.1.1.0.0.0.0.0.$.$.1.$.i.i.i.1.i.i.i.i.i.R ) o.r.r.r.r.8./ i.i.i.i.",
"i.i.i.i.i.V O.r.r.r.9.o.C i.i.1.1.-.q.w.Q Q Q Q P P q.1.$.#.$.i.i.i.i.V ....8.r.r.r.r.r.7./ i.i.i.i.",
"i.i.i.i.i.i.C 6.r.r.r.r.+.V -.1.0.w.g P $ t t t r   f Q 1.#.#.#.i.i.V +.r.r.r.r.r.r.r.r.8./ i.i.i.i.",
"i.i.i.i.i.i.V 6.r.r.r.7.+.6.4 1.w.K . p a w = O O G r o &.0.#.#.$.V O.t.+.+.7.r.r.r.r.9.[ i.i.i.i.i.",
"i.i.i.i.i.i.i.V 6.r.+.6.+.+.+.{ q 7 m n M Z Z : ; @ $ t i i q.#.#.[ r.+.+.+.6.+.r.r.t.+.[ i.i.i.i.i.",
"i.i.i.i.i.i.i.i.V O.+.+.6.+.9.5.- & M A A A A : ; : @ # 0 i 0.1.) 8.6.+.+.+.+.+.6.+.O.+.i.i.i.i.i.i.",
"i.i.i.i.i.i.i.i.i.V '  .+.7.,.z k j R <.<.<.<.W 3 3 2 < + u 0 ! 6.6.+.+.+.+.+.+. . .C i.i.i.i.i.i.i.",
"i.i.i.i.i.i.i.i.i.i.@.*._ | z 9 l @.2.2.2.3.2.2.:.! A c 1 % 9 D 8.6.+./ ) ) ) ) i.i.i.i.i.i.i.i.i.i.",
"i.i.i.i.i.i.i.i.i.i.#.3.e.f O b M <.3.3.3.2.3.2.2.<.A B z w t + w _ V h i.i.i.i.i.i.i.i.i.i.i.i.i.i.",
"i.i.i.i.i.i.i.i.i.i.#.0.w.d G > @.<.3.3.3.3.2.2.2.:.! Z z w * u g %.$.i.i.i.i.i.i.i.i.i.i.i.i.i.i.i.",
"i.i.i.i.i.i.i.i.i.i.#.1.w.d G > @.<.3.3.3.3.2.2.2.2.! A z - - u g $.#.i.i.i.i.i.i.i.i.i.i.i.i.i.i.i.",
"i.i.i.i.i.i.i.i.i.i.#.0.e.d G < W 2.2.3.3.3.3.2.2.<.! Z z 1 - u g =.#.i.i.i.i.i.i.i.i.2.i.i.i.i.i.i.",
"i.i.i.i.i.i.i.i.i.i.*.0.w.i G > A <.2.2.3.3.2.2.2.;.T v z 1 * u f $.#.i.i.i.i.i.i.i.i.i.i.i.i.i.i.i.",
"i.i.i.i.i.i.i.i.i.i.#.1.w.i # b A W <.2.2.3.<.<.] ! A c - w u $ f %.$.i.i.i.i.i.i.i.i.i.i.i.i.i.i.i.",
"i.i.i.i.i.i.i.i.i.i.i.0.1.y.g b M Y R <.&.2.2.{ A A c z 1 + u i 0.#.i.i.i.i.i.i.i.i.i.i.i.i.i.i.i.i.",
"i.i.i.i.i.i.i.i.i.i.i.0.0.e.f + N L Y R R E E I U U x z $ y . 5 1.#.i.i.i.i.i.i.i.i.i.i.i.i.i.i.i.i.",
"i.i.i.i.i.i.i.i.i.i.i.0.0.1.e.K n M M Y L J J H ; = O + + 7 i 0.#.$.i.i.1.i.i.i.i.i.i.i.i.i.i.i.i.i.",
"i.i.i.i.i.i.i.i.i.i.i.i.0.1.;.| * n n c # : # # O # + % 0 * 4.;.#.i.i.i.i.i.i.i.i.i.i.i.i.i.i.i.i.i.",
"i.i.i.i.i.i.i.i.i.i.i.i.i.S ..6.,.e * 6 6 $ $ $ + q 0 6 ~ ,.6.X.S i.i.i.i.i.i.i.i.i.i.i.i.i.i.i.i.i.",
"i.i.i.i.i.i.i.i.i.i.i.i.C 6.+.O.S 3.d f + u u u u   * U 9.6.+.+.X.i.i.i.i.i.i.i.i.i.i.i.i.i.i.i.i.i.",
"i.i.i.i.i.i.i.i.i.i.i.i.V V B C 1.1.y.u.d d i i 5 5 y.>.4 B V 6.6.[ i.i.i.i.i.i.i.i.i.i.i.i.i.i.i.i.",
"i.i.i.i.i.i.i.i.i.i.i.i.i.i.i.i.i.1.1.0.w.w.w.w.0.0.1.$.#.i.i.V V V i.i.i.i.i.i.i.i.i.i.i.i.i.i.i.i.",
"i.i.i.i.i.i.i.i.i.i.i.i.i.i.i.i.i.1.1.0.1.1.1.1.$.#.1.$.i.i.i.i.i.i.i.i.i.i.i.i.i.i.i.i.i.i.i.i.i.i.",
"i.i.i.i.i.i.i.i.i.i.i.i.i.i.i.i.i.i.i.i.i.i.i.i.i.$.i.i.3.i.i.i.i.i.i.i.i.i.i.i.i.i.i.i.i.i.i.i.i.i.",
"i.i.i.i.i.i.i.i.i.i.i.i.i.i.i.i.i.i.i.i.i.i.i.i.i.i.i.i.1.i.i.i.i.i.i.i.i.i.i.i.i.i.i.i.i.i.i.i.i.i.",
"i.i.i.i.i.i.i.i.i.i.i.i.i.i.i.i.i.i.i.i.i.i.i.i.i.i.i.i.i.i.i.i.i.i.i.i.i.i.i.i.i.i.i.i.i.i.i.i.i.i.",
"i.i.i.i.i.i.i.i.i.i.i.i.i.i.i.i.i.i.i.i.i.i.i.i.i.i.i.i.i.i.i.i.i.i.i.i.i.i.i.i.i.i.i.i.i.i.i.i.i.i.",
"i.i.i.i.i.i.i.i.i.i.i.i.i.i.i.i.i.i.i.i.w.i.i.i.i.i.i.i.i.i.i.i.i.i.i.i.i.i.i.i.i.i.i.i.i.i.i.i.i.i.",
"i.i.i.i.i.i.i.i.i.i.i.i.i.i.i.i.i.i.i.i.i.i.i.i.i.i.i.i.i.i.i.i.i.i.i.i.i.i.i.i.i.i.i.i.i.i.i.i.i.i.",
"i.i.i.i.i.i.i.i.i.i.i.i.i.i.i.i.i.i.i.i.i.i.i.i.i.i.i.i.i.i.i.i.i.i.i.i.i.i.i.i.i.i.i.i.i.i.i.i.i.i.",
"i.i.i.i.i.i.i.i.i.i.i.i.i.i.i.i.i.i.i.i.i.i.i.i.i.i.i.i.i.i.i.i.i.i.i.i.i.i.i.i.i.i.i.i.i.i.i.i.i.i.",
"i.i.i.i.i.i.i.i.i.i.i.i.i.i.i.i.i.i.i.i.i.i.i.i.i.i.i.i.i.i.i.i.i.i.i.i.i.i.i.i.i.i.i.i.i.i.i.i.i.i.",
"i.i.i.i.i.i.i.i.i.i.i.i.i.i.i.i.i.i.i.i.i.i.i.i.i.i.i.i.i.i.i.i.i.i.i.i.i.i.i.i.i.i.i.i.i.i.i.i.i.i."
};
