/* XPM */
static char *result[] = {
/* columns rows colors chars-per-pixel */
"50 50 126 2 ",
"   c #7D9DEB",
".  c #6AAEE7",
"X  c #68AFE8",
"o  c #73A5E9",
"O  c #7BA3EA",
"+  c #7BABEB",
"@  c #65B7E7",
"#  c #69B5E7",
"$  c #66BBE6",
"%  c #6CBAE7",
"&  c #6BB4E8",
"*  c #6EBDE9",
"=  c #71B4E7",
"-  c #76BDE7",
";  c #7FBCE6",
":  c #70B3E8",
">  c #7EB2E9",
",  c #73BBEA",
"<  c #7EBBEC",
"1  c #64C5E6",
"2  c #6AC3E7",
"3  c #73C1E7",
"4  c #7EC2E7",
"5  c #7FD7EB",
"6  c #83A4EB",
"7  c #88A7ED",
"8  c #80ACEC",
"9  c #8CACEB",
"0  c #8AB6E7",
"q  c #8CBBE7",
"w  c #85B4EA",
"e  c #8CB5E8",
"r  c #8BBCEC",
"t  c #94BBE7",
"y  c #99BAE6",
"u  c #92B3EA",
"i  c #93BAEA",
"p  c #8CC3E7",
"a  c #82C4ED",
"s  c #86CDED",
"d  c #8ECCEB",
"f  c #9BC2E7",
"g  c #93C6ED",
"h  c #9BC4EE",
"j  c #94CDED",
"k  c #9BCDEE",
"l  c #8BD1ED",
"z  c #86DBED",
"x  c #8ADDEE",
"c  c #94D2ED",
"v  c #9ED4ED",
"b  c #93DDEE",
"n  c #98D9EA",
"m  c #8EC5F1",
"M  c #93C3F4",
"N  c #96CAF5",
"B  c #9CCBF5",
"V  c #A2C5E6",
"C  c #ADCDE6",
"Z  c #B0CBE0",
"A  c #ABD1E6",
"S  c #A4D3EE",
"D  c #ACD4ED",
"F  c #A3D9EE",
"G  c #AFD9ED",
"H  c #B1D3E5",
"J  c #BCD5E5",
"K  c #BBD4E9",
"L  c #BBDBEB",
"P  c #ACC2F1",
"I  c #A7D9F5",
"U  c #ACDEF1",
"Y  c #B1DFF2",
"T  c #BADAF4",
"R  c #8DE0EF",
"E  c #90E0EF",
"W  c #95E4F1",
"Q  c #9EEAF5",
"!  c #AEE4F2",
"~  c #A4ECF6",
"^  c #AAEEF6",
"/  c #B2E3F3",
"(  c #BAE1F2",
")  c #B6EAF4",
"_  c #A9F0F7",
"`  c #ACF2F8",
"'  c #B9F0F7",
"]  c #B4F5FA",
"[  c #B7F8FB",
"{  c #BEFFFF",
"}  c #C4D3E7",
"|  c #C6D5E8",
" . c #C8D6E9",
".. c #C0DBEA",
"X. c #CCDBEA",
"o. c #D3DEED",
"O. c #C6D5F4",
"+. c #CCD9F4",
"@. c #D1DEF3",
"#. c #CEE0EE",
"$. c #D6E1EF",
"%. c #D9E2EF",
"&. c #C6E3F2",
"*. c #CFE1F1",
"=. c #C4EAF4",
"-. c #D4E6F2",
";. c #DCE5F1",
":. c #D6E9F2",
">. c #DBEBF2",
",. c #C2FFFF",
"<. c #CEFFFF",
"1. c #D2F7FD",
"2. c #D2FEFF",
"3. c #DBFFFF",
"4. c #E0E7F1",
"5. c #E3EAF4",
"6. c #E8EFF6",
"7. c #E5EDF8",
"8. c #E8EFF8",
"9. c #EFF2F7",
"0. c #EDF2F8",
"q. c #E4FFFF",
"w. c #F3F5F9",
"e. c #F6F8F9",
"r. c #FAFCFB",
"t. c None",
/* pixels */
"t.t.t.t.t.t.t.t.t.t.t.t.t.t.t.t.t.t.t.t.t.t.t.t.t.t.t.t.t.t.t.t.t.t.t.t.t.t.t.t.t.t.t.t.t.t.t.t.t.t.",
"t.t.t.t.t.t.t.t.t.t.t.t.t.t.t.t.t.t.t.t.t.t.t.t.t.t.t.t.t.t.t.t.t.t.t.t.t.t.t.t.t.t.t.t.t.t.t.t.t.t.",
"t.t.t.t.t.t.t.t.t.t.t.t.t.t.t.t.t.t.t.t.t.t.t.t.t.t.t.t.t.t.t.t.t.t.t.t.t.t.t.t.t.t.t.t.t.t.t.t.t.t.",
"t.t.t.t.t.t.t.t.t.t.t.t.t.t.t.t.t.t.t.t.t.t.t.t.t.t.t.t.t.t.t.t.t.t.t.t.t.t.t.t.t.t.t.t.t.t.t.t.t.t.",
"t.t.t.t.t.t.t.t.t.t.t.t.t.t.t.t.t.t.t.t.t.t.t.t.t.t.t.t.t.t.t.t.t.t.t.t.t.t.t.t.t.t.t.t.t.t.t.t.t.t.",
"t.t.t.t.t.t.t.t.t.t.t.t.t.t.t.t.t.t.t.t.t.t.t.t.t.t.t.t.t.t.t.t.t.t.t.t.t.t.t.t.t.t.t.t.t.t.t.t.t.t.",
"t.t.t.t.t.t.t.t.t.t.t.t.t.t.t.t.t.t.t.t.t.t.t.t.t.t.t.t.t.t.t.t.t.t.t.t.t.t.t.t.t.t.t.t.t.t.t.t.t.t.",
"t.t.t.t.t.t.t.t.t.t.t.t.t.t.t.t.t.t.t.t.t.t.t.t.t.t.t.t.t.t.t.t.t.t.t.t.t.t.t.t.t.t.t.t.t.t.t.t.t.t.",
"t.t.t.t.t.t.t.t.t.t.t.t.t.t.t.t.t.t.t.t.t.t.t.t.t.t.t.t.t.t.t.t.t.t.t.t.t.t.t.t.t.t.t.t.t.t.t.t.t.t.",
"t.t.t.t.t.t.t.t.t.t.t.t.t.t.t.t.t.t.t.t.t.t.t.t.t.t.t.t.t.t.t.t.t.t.t.t.t.t.t.t.t.t.t.t.t.t.t.t.t.t.",
"t.t.t.t.t.t.t.t.t.t.t.t.t.t.t.t.t.t.t.t.t.t.t.t.t.t.t.t.t.t.t.t.t.t.t.t.t.t.t.t.t.t.t.t.t.t.t.t.t.t.",
"t.t.t.t.t.t.t.t.t.t.t.t.t.t.t.t.t.t.t.t.t.t.t.t.t.t.t.t.t.t.t.t.t.t.t.t.t.t.t.t.t.t.t.t.t.t.t.t.t.t.",
"t.t.t.t.t.t.t.t.t.t.t.t.t.t.t.t.t.t.t.t.t.t.t.t.t.t.t.t.t.t.t.t.t.t.t.t.t.t.t.t.t.t.t.t.t.t.t.t.t.t.",
"t.t.t.t.t.t.t.t.t.t.t.t.t.t.t.t.t.t.t.t.t.t.t.t.t.t.t.t.t.t.t.t.t.t.t.t.t.t.t.t.t.t.t.t.t.t.t.t.t.t.",
"t.t.t.t.t.t.t.t.t.t.t.t.t.t.t.t.t.t.t.t.t.t.t.t.t.t.t.t.t.t.t.t.t.t.t.t.t.t.t.t.t.t.t.t.t.t.t.t.t.t.",
"t.t.t.t.t.t.t.t.t.t.t.t.t.t.t.t.t.t.t.t.t.t.t.t.t.t.t.t.t.t.t.t.t.t.t.t.t.t.t.t.t.t.t.t.t.t.t.t.t.t.",
"t.t.t.t.t.t.t.t.t.t.t.t.t.t.t.t.t.t.t.t.t.t.t.t.t.t.t.t.t.t.t.t.t.t.t.t.t.t.t.t.t.t.t.t.t.t.t.t.t.t.",
"t.t.t.t.t.t.z W t.t.t.t.t.t.t.t.t.t.t.t.t.t.t.t.t.t.t.t.t.t.t.t.t.t.t.t.t.t.t.t.t.t.t.t.t.W z t.t.t.",
"t.t.t.t.t.t._ 3.` z t.t.t.t.t.t.t.t.t.t.t.t.t.t.t.t.t.t.t.t.t.t.t.t.t.t.t.t.t.t.t.t.z n ` { z t.t.t.",
"t.t.t.t.t.t.[ q.q.{ z t.t.t.t.t.t.t.t.t.t.t.t.t.t.t.t.t.t.t.t.t.t.t.t.t.t.t.t.t.z z { ,.q.,.z t.t.t.",
"t.t.t.t.t.t.[ q.q.{ z t.t.t.t.t.t.t.t.%.o.%.-.%.|  .t.t.t.t.t.t.t.t.t.t.t.t.t.x ,.,.q.q.2.z t.t.t.t.",
"t.t.t.t.t.t.[ q.q.q.` t.t.t.6.t.t.$.o.4.o.%.%.o.} } $.o.t.t.t.t.t.t.t.t.t.t.z ` q.q.q.q.2.R t.t.t.t.",
"t.t.t.t.t.t.[ q.q.q.3.Q t.t.t.t.$.-.-.4.8.8.8.0.4.7.%.o. .t.t.t.t.t.t.t.x R ,.3.q.q.q.q.2.R t.t.t.t.",
"t.t.t.t.t.t.~ 3.q.q.q.3.~ t.t.o.;.4.O.+.8 9 9 9 9 o O.+.%. . .t.t.t.t.Q <.2.q.q.q.q.q.q.2.R t.t.t.t.",
"t.t.t.t.t.t.z ,.q.q.q.2.{ ] b -.0.P & i r r - - = t u + ;.5.| |  .t.] 3.,.,.2.q.q.q.q.q.` t.t.t.t.t.",
"t.t.t.t.t.t.t.z { q.{ { { { { / + i h g j c c 2 1 $ & t 7 6 w. .L ~ q.{ ,.,.{ { q.q.q.,.~ t.t.t.t.t.",
"t.t.t.t.t.t.t.t.5 ,.,.{ { { 3.1.; - j c c c c 1 1 2 2 @ 0 6 e.w.R 3.,.{ { { ,.{ { { ,.[ t.t.t.t.t.t.",
"t.t.t.t.t.t.t.t.t.z W ,.{ { 3.B q * c *.-.-.-.A 1 1 1 $ @ u   ) { { { { { { { { { { z z t.t.t.t.t.t.",
"t.t.t.t.t.t.t.t.t.K L n ] 3.B - p A *.:.:.:.:.-.! I l s - q : M 3.{ { ] ] ] ] [ z z t.t.t.t.t.t.t.t.",
"t.t.t.t.t.t.t.t.t.@. .-.=.i % f l #.:.:.>.>.>.:.-.&.v s 4 , y > I ^ Q t.t.t.t.t.t.t.t.t.t.t.t.t.t.t.",
"t.t.t.t.t.t.t.t.t.t.X.;.w.6 f 3 L -.>.>.>.>.:.:.-.-.U c a < w r u @.| t.t.t.t.t.t.t.t.t.t.t.t.t.t.t.",
"t.t.t.t.t.t.t.t.t.t.X.;.w.6 V - ..:.>.>.>.>.:.:.-.-.! c a < < u u -. .t.t.t.t.t.t.t.t.t.t.t.t.t.t.t.",
"t.t.t.t.t.t.t.t.t.t.X.;.w.6 V - ..%.>.>.>.>.:.:.:.:.U c a 4 < u u @.+.t.t.t.t.t.t.t.t.t.t.t.t.t.t.t.",
"t.t.t.t.t.t.t.t.t.t.X.;.w.6 V 3 L -.>.>.>.>.:.>.:.-.U c a 4 < u 9 -.X.t.t.t.t.t.t.t.t.t.t.t.t.t.t.t.",
"t.t.t.t.t.t.t.t.t.t.X.;.w.  q 4 j &.-.-.>.>.:.:.&.U v s 4 4 w w u -. .t.t.t.t.t.t.t.t.t.t.t.t.t.t.t.",
"t.t.t.t.t.t.t.t.t.t.t.;.4.-.+ V j U L -.-.:.-.( F F d a r & u O @.X.t.t.t.t.t.t.t.t.t.t.t.t.t.t.t.t.",
"t.t.t.t.t.t.t.t.t.t.t.;.>.w.9 : k S D G G H H A v v a r # i . 6 7. .t.t.t.t.$.t.t.t.t.t.t.t.t.t.t.t.",
"t.t.t.t.t.t.t.t.t.t.t.4.4.@.r.9 g d g D D A C C $ * @ # @ u   w.}  .t.t.t.t.t.t.t.t.t.t.t.t.t.t.t.t.",
"t.t.t.t.t.t.t.t.t.t.t.t.4.$.e./ < g d k 2 2 * * $ # # # e # ) w. .t.t.t.t.t.t.t.t.t.t.t.t.t.t.t.t.t.",
"t.t.t.t.t.t.t.t.t.t.t.t.t.+.x 1.d t t % % @ $ @ # & : i > B 3.x } K t.t.t.t.t.t.t.t.t.t.t.t.t.t.t.t.",
"t.t.t.t.t.t.t.t.t.t.t.t.t.~ ,.{ ' T + 9 > w w > > > w m 1.<.{ { ~ L t.t.t.t.t.t.t.t.t.t.t.t.t.t.t.t.",
"t.t.t.t.t.t.t.t.t.t.t.t.z E R b $.-.4.7.6 6 7 7 6 O 4.=.R W z { { Q t.t.t.t.t.t.t.t.t.t.t.t.t.t.t.t.",
"t.t.t.t.t.t.t.t.t.t.t.t.t.t.t.t.X.%.$.;.e.e.e.e.9.w.$.o. .t.t.z z z t.t.t.t.t.t.t.t.t.t.t.t.t.t.t.t.",
"t.t.t.t.t.t.t.t.t.t.t.t.t.t.t.t.t.%.%.4.-.o.;.o.| | $.o.t.t.t.t.t.t.t.t.t.t.t.t.t.t.t.t.t.t.t.t.t.t.",
"t.t.t.t.t.t.t.t.t.t.t.t.t.t.t.t.t.t.t.t.%.%.%.-.| t.t.t.t.t.t.t.t.t.t.t.t.t.t.t.t.t.t.t.t.t.t.t.t.t.",
"t.t.t.t.t.t.t.t.t.t.t.t.t.t.t.t.t.t.t.t.t.t.t.t.t.t.t.>.@.t.t.t.t.t.t.t.t.t.t.t.t.t.t.t.t.t.t.t.t.t.",
"t.t.t.t.t.t.t.t.t.t.t.t.t.t.t.t.t.t.t.t.t.t.t.t.;.>.5.4.;.t.t.t.t.t.t.t.t.t.t.t.t.t.t.t.t.t.t.t.t.t.",
"t.t.t.t.t.t.t.t.t.t.t.t.t.t.t.t.t.t.t.t.t.t.t.t.;.;.6.7.;.Z t.t.t.t.t.t.t.t.t.t.t.t.t.t.t.t.t.t.t.t.",
"t.t.t.t.t.t.t.t.t.t.t.t.t.t.t.t.t.t.t.t.t.t.t.t.>.;.6.7.>.t.t.t.t.t.t.t.t.t.t.t.t.t.t.t.t.t.t.t.t.t.",
"t.t.t.t.t.t.t.t.t.t.t.t.t.t.t.t.t.t.t.t.t.t.t.t.t.t.6.4.t.t.t.t.t.t.t.t.t.t.t.t.t.t.t.t.t.t.t.t.t.t."
};
