/* XPM */
static char *result[] = {
/* columns rows colors chars-per-pixel */
"50 50 113 2 ",
"   c #5CB6E6",
".  c #65ADE7",
"X  c #66AEE8",
"o  c #6AAEE8",
"O  c #75AFE9",
"+  c #65B4E7",
"@  c #6BB6E7",
"#  c #66BBE6",
"$  c #6ABBE7",
"%  c #6CB3E8",
"&  c #6CBBE8",
"*  c #74BFE7",
"=  c #74B0E8",
"-  c #7BB4EC",
";  c #77BBEA",
":  c #7EBDED",
">  c #66C3E6",
",  c #6AC4E6",
"<  c #73C0E7",
"1  c #7CC3E7",
"2  c #7BC4EA",
"3  c #7DD7EA",
"4  c #7ED9EC",
"5  c #8AA9E8",
"6  c #91ADEB",
"7  c #82B7E7",
"8  c #86BDE7",
"9  c #83B6E9",
"0  c #83BEED",
"q  c #89BDED",
"w  c #95B5E7",
"e  c #94BAE7",
"r  c #99BAE7",
"t  c #92B4E9",
"y  c #9BB5ED",
"u  c #96BFED",
"i  c #9FB8EB",
"p  c #A0B7EF",
"a  c #A4BBED",
"s  c #A9BEEF",
"d  c #8BC4E7",
"f  c #86C9E6",
"g  c #82C4ED",
"h  c #85CDEC",
"j  c #8BCCEB",
"k  c #9CC2E6",
"l  c #92CCED",
"z  c #9BCCED",
"x  c #87D0ED",
"c  c #85DBEC",
"v  c #8ADDED",
"b  c #95D2ED",
"n  c #9ED4ED",
"m  c #93DCED",
"M  c #89C0F0",
"N  c #94C3F4",
"B  c #9BCCF7",
"V  c #9FD0F4",
"C  c #A3C4E6",
"Z  c #A2CDE5",
"A  c #ACCEE5",
"S  c #ADC3ED",
"D  c #A3D1E6",
"F  c #AFD2E5",
"G  c #A2D4ED",
"H  c #ABD5ED",
"J  c #ADDAED",
"K  c #BCDAEA",
"L  c #BBCBF0",
"P  c #A4D2F6",
"I  c #ACDDF2",
"U  c #B2DFF1",
"Y  c #8DE0EF",
"T  c #97E0EF",
"R  c #92E3F1",
"E  c #9AE1F0",
"W  c #9CE9F4",
"Q  c #ADE0F2",
"!  c #A5ECF6",
"~  c #BBE0F2",
"^  c #B3ECF3",
"/  c #BEEAF5",
"(  c #B6F6FB",
")  c #B9F6FA",
"_  c #B7F8FB",
"`  c #BEFEFE",
"'  c #C7D5E8",
"]  c #C8D6E9",
"[  c #C0DBEA",
"{  c #CCDBEB",
"}  c #D2DDED",
"|  c #C5DFF1",
" . c #D7E1EF",
".. c #D9E2EF",
"X. c #C5E2F1",
"o. c #CEE2F1",
"O. c #CFEFFC",
"+. c #D5E6F2",
"@. c #DDE5F1",
"#. c #D6E9F2",
"$. c #DBEBF2",
"%. c #C2FFFF",
"&. c #CBFFFF",
"*. c #D1F6FD",
"=. c #D4FFFF",
"-. c #DCFFFF",
";. c #E4EAF4",
":. c #EAEFF5",
">. c #ECF0F6",
",. c #E4FFFF",
"<. c #E8FFFF",
"1. c #F2F5F7",
"2. c None",
/* pixels */
"2.2.2.2.2.2.2.2.2.2.2.2.2.2.2.2.2.2.2.2.2.2.2.2.2.2.2.2.2.2.2.2.2.2.2.2.2.2.2.2.2.2.2.2.2.2.2.2.2.2.",
"2.2.2.2.2.2.2.2.2.2.2.2.2.2.2.2.2.2.2.2.2.2.2.2.2.2.2.2.2.2.2.2.2.2.2.2.2.2.2.2.2.2.2.2.2.2.2.2.2.2.",
"2.2.2.2.2.2.2.2.2.2.2.2.2.2.2.2.2.2.2.2.2.2.2.2.2.2.2.2.2.2.2.2.2.2.2.2.2.2.2.2.2.2.2.2.2.2.2.2.2.2.",
"2.2.2.2.2.2.2.2.2.2.2.2.2.2.2.2.2.2.2.2.2.2.2.2.2.2.2.2.2.2.2.2.2.2.2.2.2.2.2.2.2.2.2.2.2.2.2.2.2.2.",
"2.2.2.2.2.2.2.2.2.2.2.2.2.2.2.2.2.2.2.2.2.2.2.2.2.2.2.2.2.2.2.2.2.2.2.2.2.2.2.2.2.2.2.2.2.2.2.2.2.2.",
"2.2.2.2.2.2.2.2.2.2.2.2.2.2.2.2.2.2.2.2.2.2.2.2.2.2.2.2.2.2.2.2.2.2.2.2.2.2.2.2.2.2.2.2.2.2.2.2.2.2.",
"2.2.2.2.2.2.2.2.2.2.2.2.2.2.2.2.2.2.2.2.2.2.2.2.2.2.2.2.2.2.2.2.2.2.2.2.2.2.2.2.2.2.2.2.2.2.2.2.2.2.",
"2.2.2.2.2.2.2.2.2.2.2.2.2.2.2.2.2.2.2.2.2.2.2.2.2.2.2.2.2.2.2.2.2.2.2.2.2.2.2.2.2.2.2.2.2.2.2.2.2.2.",
"2.2.2.2.2.2.2.2.2.2.2.2.2.2.2.2.2.2.2.2.2.2.2.2.2.2.2.2.2.2.2.2.2.2.2.2.2.2.2.2.2.2.2.2.2.2.2.2.2.2.",
"2.2.2.2.2.2.2.2.2.2.2.2.2.2.2.2.2.2.2.2.2.2.2.2.2.2.2.2.2.2.2.2.2.2.2.2.2.2.2.2.2.2.2.2.2.2.2.2.2.2.",
"2.2.2.2.2.2.2.2.2.2.2.2.2.2.2.2.2.2.2.2.2.2.2.2.2.2.2.2.2.2.2.2.2.2.2.2.2.2.2.2.2.2.2.2.2.2.2.2.2.2.",
"2.2.2.2.2.2.2.2.2.2.2.2.2.2.2.2.2.2.2.2.2.2.2.2.2.2.2.2.2.2.2.2.2.2.2.2.2.2.2.2.2.2.2.2.2.2.2.2.2.2.",
"2.2.2.2.2.2.2.2.2.2.2.2.2.2.2.2.2.2.2.2.2.2.2.2.2.2.2.2.2.2.2.2.2.2.2.2.2.2.2.2.2.2.2.2.2.2.2.2.2.2.",
"2.2.2.2.2.2.2.2.2.2.2.2.2.2.2.2.2.2.2.2.2.2.2.2.2.2.2.2.2.2.2.2.2.2.2.2.2.2.2.2.2.2.2.2.2.2.2.2.2.2.",
"2.2.2.2.2.2.c c 2.2.2.2.2.2.2.2.2.2.2.2.2.2.2.2.2.2.2.2.2.2.2.2.2.2.2.2.2.2.2.2.2.2.2.2.2.c v 2.2.2.",
"2.2.2.2.2.2.c %.c 2.2.2.2.2.2.2.2.2.2.2.2.2.2.2.2.2.2.2.2.@.2.2.2.2.2.2.2.2.2.2.2.2.2.2.c _ c 2.2.2.",
"2.2.2.2.2.2._ ,.%.v 2.2.2.2.2.2.2.2.2.2.2.2.2.2.2.2.2.2.2.2.2.2.2.2.2.2.2.2.2.2.2.2.v Y %.` c 2.2.2.",
"2.2.2.2.2.2._ <.,.` c 2.2.2.2.2.2.2.2.2.2.2.2.2.2.2.2.2.2.2.2.2.2.2.2.2.2.2.2.2.R R &.&.-._ c 2.2.2.",
"2.2.2.2.2.2._ ,.,.=.! 2.2.2.2.2.2.2. .@.@. .@.+.' ' @.} 2.2.2.2.2.2.2.2.2.2.v ! =.=.,.,.&.Y 2.2.2.2.",
"2.2.2.2.2.2._ ,.,.,.-.W 2.2.2.2.2. ...@.;.;.;.;.@.@. .{ ] 2.2.2.2.2.2.2.c v ` -.,.,.,.,.=.Y 2.2.2.2.",
"2.2.2.2.2.2._ ,.,.,.,.=.v 2.2. . . .:.1.y y y y 6 5 >.} ] ] ] 2.2.2.2.c %.&.,.,.,.,.,.,.&.v 2.2.2.2.",
"2.2.2.2.2.2.c %.,.,.,.,.%.3 @. .@.>.s s X w r r r . p L @.] ] ] 2.2.c ` ,.<.,.,.,.,.,.,.=.Y 2.2.2.2.",
"2.2.2.2.2.2.c ` ,.,.,.&.` ` c +.$.S % u u q ; $ @ r q - ] +.] ] ' v ` ,.` %.&.,.,.,.,.-.! 2.2.2.2.2.",
"2.2.2.2.2.2.2.c ! =.` ` ` ` &./ 9 8 z l l b b , > > @ 9 t y ;.} J ) =.` ` ` ` ` =.=.-.` W 2.2.2.2.2.",
"2.2.2.2.2.2.2.2.2.R W %.` ` -.P g & b [ | X.X.D > > > # @ w a / _ %.` ` %.` ` %.` %.T E 2.2.2.2.2.2.",
"2.2.2.2.2.2.2.2.2.2.K c ` -.B $ d Z +.+.+.#.#.#.I G x h $ e . N =.` %.` ` ` ` ` c c 2.2.2.2.2.2.2.2.",
"2.2.2.2.2.2.2.2.2.2.] ..c ^ : k f { #.#.#.#.#.#.+.I n x g + r N -.%.` c c c c c 2.2.2.2.2.2.2.2.2.2.",
"2.2.2.2.2.2.2.2.2.2.{ @.:.i + k b +.$.$.$.$.$.#.#.+.n x g 0 r o 0 E c 2.2.2.2.2.2.2.2.2.2.2.2.2.2.2.",
"2.2.2.2.2.2.2.2.2.2.{ @.:.i C < K #.$.@.$.$.$.#.#.#.I b g : : t i } ] 2.2.2.2.2.2.2.2.2.2.2.2.2.2.2.",
"2.2.2.2.2.2.2.2.2.2.{ @.:.i C < [ +.$.$.$.$.#.#.#.#.I b g 0 ; t a  .] 2.2.2.2.2.2.2.2.2.2.2.2.2.2.2.",
"2.2.2.2.2.2.2.2.2.2.{ @.:.i C < K #.$.$.$.$.#.#.#.+.I b g g - t a { ] 2.2.2.2.2.2.2.2.2.2.2.2.2.2.2.",
"2.2.2.2.2.2.2.2.2.2.{ @.>.6 C $ h o.#.#.$.$.#.#.+.Q n h g : - t a } ] 2.2.2.2.2.2.2.2.2.2.2.2.2.2.2.",
"2.2.2.2.2.2.2.2.2.2.{ ..>.6   C P ~ #.+.+.@.#.+.Q I n h 0 : w X i } ] 2.2.2.2.2.2.2.2.2.2.2.2.2.2.2.",
"2.2.2.2.2.2.2.2.2.2.2.;.@.:.a k l H J +.o.#.+.U n n j g : @ t t @.] 2.2.2.2.2.2.2.2.2.2.2.2.2.2.2.2.",
"2.2.2.2.2.2.2.2.2.2.2.@.;.;.L 0 z z G H J F F F j l 2 ; % w O S } ] 2.2.2.2.2.2.2.2.2.2.2.2.2.2.2.2.",
"2.2.2.2.2.2.2.2.2.2.2.2.@.} :.I 9 l l b 1 1 1 1 # # % % 9 = U @.] ' 2.2.2.2.2.2.2.2.2.2.2.2.2.2.2.2.",
"2.2.2.2.2.2.2.2.2.2.2.2.2...c *.0 e k # # # # # % % % t = N -.v ] 2.2.2.2.2.2.2.2.2.2.2.2.2.2.2.2.2.",
"2.2.2.2.2.2.2.2.2.2.2.2.2.4 %.%.,.M X t w o o . o t t ; O.-.` %.c 2.2.2.2.2.2.2.2.2.2.2.2.2.2.2.2.2.",
"2.2.2.2.2.2.2.2.2.2.2.2.c &.%._ m ;.y p o t t t t . - V -.%.%.` ` 2.2.2.2.2.2.2.2.2.2.2.2.2.2.2.2.2.",
"2.2.2.2.2.2.2.2.2.2.2.2.c c v m +. .;.>.s a s a i y ;.X.v c c ) _ W 2.2.2.2.2.2.2.2.2.2.2.2.2.2.2.2.",
"2.2.2.2.2.2.2.2.2.2.2.2.2.2.2.2.{  ...@.@.;.;.;.} }  . .] 2.2.2.2.2.2.2.2.2.2.2.2.2.2.2.2.2.2.2.2.2.",
"2.2.2.2.2.2.2.2.2.2.2.2.2.2.2.2.2.{ {  . . .#. .' ' 2.2.2.2.2.2.2.2.2.2.2.2.2.2.2.2.2.2.2.2.2.2.2.2.",
"2.2.2.2.2.2.2.2.2.2.2.2.2.2.2.2.2.2.2.2.2.2.2.2.2.2.2.2.2.2.2.2.2.2.2.2.2.2.2.2.2.2.2.2.2.2.2.2.2.2.",
"2.2.2.2.2.2.2.2.2.2.2.2.2.2.2.2.2.2.2.2.2.2.2.2.2.2.2.2.2.2.2.2.2.2.2.2.2.2.2.2.2.2.2.2.2.2.2.2.2.2.",
"2.2.2.2.2.2.2.2.2.2.2.2.2.2.2.2.2.2.2.2.2.2.2.2.2.2.2.2.2.2.2.@.#.2.2.2.2.2.2.2.2.2.2.2.2.2.2.2.2.2.",
"2.2.2.2.2.2.2.2.2.2.2.2.2.2.2.2.2.2.2.2.2.2.2.2.2.2.2.2.2.2.2.@.2.2.2.2.2.2.2.2.2.2.2.2.2.2.2.2.2.2.",
"2.2.2.2.2.2.2.2.2.2.2.2.2.2.2.2.2.2.2.2.2.2.2.2.2.2.2.2.2.2.2.2.2.2.2.2.2.2.2.2.2.2.2.2.2.2.2.2.2.2.",
"2.2.2.2.2.2.2.2.2.2.2.2.2.2.2.2.2.2.2.2.2.2.2.2.2.2.2.2.2.2.2.2.2.2.2.2.2.2.2.2.2.2.2.2.2.2.2.2.2.2.",
"2.2.2.2.2.2.2.2.2.2.2.2.2.2.2.2.2.2.2.2.2.2.2.2.2.2.2.2.2.2.2.2.2.2.2.2.2.2.2.2.2.2.2.2.2.2.2.2.2.2.",
"2.2.2.2.2.2.2.2.2.2.2.2.2.2.2.2.2.2.2.2.2.2.2.2.2.2.2.2.2.2.2.2.2.2.2.2.2.2.2.2.2.2.2.2.2.2.2.2.2.2."
};
