/* XPM */
static char *result[] = {
/* columns rows colors chars-per-pixel */
"50 50 121 2 ",
"   c #67ADE7",
".  c #70ADE7",
"X  c #70AFE9",
"o  c #7FAFE9",
"O  c #66B6E7",
"+  c #6BB6E7",
"@  c #65BAE6",
"#  c #68BFE7",
"$  c #6AB3E8",
"%  c #6CBDE8",
"&  c #73B6E7",
"*  c #7CB5E7",
"=  c #74BEE7",
"-  c #7DBBE7",
";  c #72B2E9",
":  c #7CB4EB",
">  c #70BEE8",
",  c #7DBBEC",
"<  c #5DC3E5",
"1  c #65C2E6",
"2  c #69C4E6",
"3  c #73C1E7",
"4  c #7FD8EB",
"5  c #91AFEA",
"6  c #88B5E7",
"7  c #85BAE7",
"8  c #8BBCE7",
"9  c #84B3EA",
"0  c #8DB4E8",
"q  c #8ABAEA",
"w  c #94BAE7",
"e  c #99BAE6",
"r  c #92B5E8",
"t  c #99B5EB",
"y  c #93BBE9",
"u  c #9EB9ED",
"i  c #A4BCED",
"p  c #A9BEED",
"a  c #85C1E7",
"s  c #8BC4E7",
"d  c #89CAE7",
"f  c #81C4ED",
"g  c #85CBED",
"h  c #8BCCEB",
"j  c #9CC2E6",
"k  c #93C4ED",
"l  c #9BC1ED",
"z  c #92CCED",
"x  c #99CDEE",
"c  c #87D0ED",
"v  c #8FD2ED",
"b  c #85DBED",
"n  c #89DDED",
"m  c #95D3ED",
"M  c #9CD3ED",
"N  c #93DCEC",
"B  c #9ADCED",
"V  c #8CC0F2",
"C  c #94C4F2",
"Z  c #93CDF5",
"A  c #9ACAF6",
"S  c #A2C5E6",
"D  c #A1CDE5",
"F  c #ABCDE6",
"G  c #A1C0ED",
"H  c #B6C8EF",
"J  c #B9CAEE",
"K  c #A2D4ED",
"L  c #ACD4EB",
"P  c #A4DBEB",
"I  c #B3D3E5",
"U  c #BAD9E7",
"Y  c #B5DEEE",
"T  c #B9DAEB",
"R  c #A6DAF0",
"E  c #ABDDF1",
"W  c #B4D2F1",
"Q  c #B3DCF2",
"!  c #8DE0EF",
"~  c #9DE0EF",
"^  c #93E4F1",
"/  c #98E6F2",
"(  c #9BE9F4",
")  c #B7E0EE",
"_  c #AFE3F3",
"`  c #A3EDF6",
"'  c #AFEDF6",
"]  c #B2E0F2",
"[  c #BCE4F2",
"{  c #B6E9F4",
"}  c #B9EFF5",
"|  c #AAF0F7",
" . c #B4F6FA",
".. c #BEFFFF",
"X. c #C2DAEB",
"o. c #CFD9EB",
"O. c #D5DDED",
"+. c #C4D3F1",
"@. c #CBD7F4",
"#. c #D3DEF2",
"$. c #D5E1EF",
"%. c #DBE3EF",
"&. c #C7E4F2",
"*. c #CCE2F1",
"=. c #D4E6F2",
"-. c #DDE4F1",
";. c #D6E9F2",
":. c #DBEBF2",
">. c #CDF3FC",
",. c #C2FFFF",
"<. c #CBFEFE",
"1. c #D3F6FD",
"2. c #D3FFFF",
"3. c #DBFFFF",
"4. c #E0E7F2",
"5. c #E3E9F3",
"6. c #EAEEF5",
"7. c #F0EFF5",
"8. c #EFF2F6",
"9. c #E4FFFF",
"0. c None",
/* pixels */
"0.0.0.0.0.0.0.0.0.0.0.0.0.0.0.0.0.0.0.0.0.0.0.0.0.0.0.0.0.0.0.0.0.0.0.0.0.0.0.0.0.0.0.0.0.0.0.0.0.0.",
"0.0.0.0.0.0.0.0.0.0.0.0.0.0.0.0.0.0.0.0.0.0.0.0.0.0.0.0.0.0.0.0.0.0.0.0.0.0.0.0.0.0.0.0.0.0.0.0.0.0.",
"0.0.0.0.0.0.0.0.0.0.0.0.0.0.0.0.0.0.0.0.0.0.0.0.0.0.0.0.0.0.0.0.0.0.0.0.0.0.0.0.0.0.0.0.0.0.0.0.0.0.",
"0.0.0.0.0.0.0.0.0.0.0.0.0.0.0.0.0.0.0.0.0.0.0.0.0.0.0.0.0.0.0.0.0.0.0.0.0.0.0.0.0.0.0.0.0.0.0.0.0.0.",
"0.0.0.0.0.0.0.0.0.0.0.0.0.0.0.0.0.0.0.0.0.0.0.0.0.0.0.0.0.0.0.0.0.0.0.0.0.0.0.0.0.0.0.0.0.0.0.0.0.0.",
"0.0.0.0.0.0.0.0.0.0.0.0.0.0.0.0.0.0.0.0.0.0.0.0.0.0.0.0.0.0.0.0.0.0.0.0.0.0.0.0.0.0.0.0.0.0.0.0.0.0.",
"0.0.0.0.0.0.0.0.0.0.0.0.0.0.0.0.0.0.0.0.0.0.0.0.0.0.0.0.0.0.0.0.0.0.0.0.0.0.0.0.0.0.0.0.0.0.0.0.0.0.",
"0.0.0.0.0.0.0.0.0.0.0.0.0.0.0.0.0.0.0.0.0.0.0.0.0.0.0.0.0.0.0.0.0.0.0.0.0.0.0.0.0.0.0.0.0.0.0.0.0.0.",
"0.0.0.0.0.0.0.0.0.0.0.0.0.0.0.0.0.0.0.0.0.0.0.0.0.0.0.0.0.0.0.0.0.0.0.0.0.0.0.0.0.0.0.0.0.0.0.0.0.0.",
"0.0.0.0.0.0.0.0.0.0.0.0.0.0.0.0.0.0.0.0.0.0.0.0.0.0.0.0.0.0.0.0.0.0.0.0.0.0.0.0.0.0.0.0.0.0.0.0.0.0.",
"0.0.0.0.0.0.0.0.0.0.0.0.0.0.0.0.0.0.0.0.0.0.0.0.0.0.0.0.0.0.0.0.0.0.0.0.0.0.0.0.0.0.0.0.0.0.0.0.0.0.",
"0.0.0.0.0.0.0.0.0.0.0.0.0.0.0.0.0.0.0.0.0.0.0.0.0.0.0.0.0.0.0.0.0.0.0.0.0.0.0.0.0.0.0.0.0.0.0.0.0.0.",
"0.0.0.0.0.0.0.0.0.0.0.0.0.0.0.0.0.0.0.0.0.0.0.0.0.0.0.0.0.0.0.0.0.0.0.0.0.0.0.0.0.0.0.0.0.0.0.0.0.0.",
"0.0.0.0.0.0.0.0.0.0.0.0.0.0.0.0.0.0.0.0.0.0.0.0.0.0.0.0.0.0.0.0.0.0.0.0.0.0.0.0.0.0.0.0.b b 0.0.0.0.",
"0.0.0.0.0.0.0.0.0.0.0.0.0.0.0.0.0.0.0.0.0.0.0.0.0.0.0.0.0.0.0.0.-.0.0.0.0.0.0.0.0.0.0.! ,.! 0.0.0.0.",
"0.0.0.0.0.0.0.0.b 0.0.0.0.0.0.0.0.0.0.0.0.0.0.0.0.0.0.0.0.0.0.0.0.0.0.0.0.0.0.0.0.0.b ,.2.! 0.0.0.0.",
"0.0.0.0.0.0.0.b ,.n 0.0.0.0.0.0.0.0.0.0.0.0.0.0.0.0.0.0.0.0.0.0.0.0.0.0.0.0.0.0.0.b ,.9.<.! 0.0.0.0.",
"0.0.0.0.0.0.n ,.9.,.^ 0.0.0.0.0.0.0.0.0.0.0.0.0.0.0.0.0.0.0.0.0.0.0.0.0.0.0.0.0.^ <.9.9.2.! 0.0.0.0.",
"0.0.0.0.0.0.b ,.9.9. .0.0.0.0.0.0.0.0.0.0.0.0.0.0.0.0.0.0.0.0.0.0.0.0.0.0.0.0.` 3.9.9.9.<.! 0.0.0.0.",
"0.0.0.0.0.0.b ,.9.9.3.( 0.0.0.0.0.0.0.0.-.-.-.-.o.O.0.0.0.0.0.0.0.0.0.0.0.b ( 3.9.9.9.9.2.! 0.0.0.0.",
"0.0.0.0.0.0.b ,.9.9.9.3.n 0.0.0.0.%.-.4.-.-.4.-.o.o.-.O.0.0.0.0.0.0.0.0.b ,.<.9.9.9.9.9.2.n 0.0.0.0.",
"0.0.0.0.0.0.n ,.9.9.9.<.b 0.0.0.0.-.-.5.6.8.7.6.5.6.%.#.o.0.0.0.0.0.0.b ..9.9.9.9.9.9.9.3.! 0.0.0.0.",
"0.0.0.0.0.0.b ..9.9.9.9.,.b 0.-.-.%.5.7.u u i u t 5 5.-.o.o.o.0.0.0.n ,.3.9.9.9.9.9.3.3.( 0.0.0.0.0.",
"0.0.0.0.0.0.0.| 3.3.3.3...( ) -.5.#.q G : y 7 7 7 * u l -.O.o.O.0./ <.3.....,.3.3.2.,...( 0.0.0.0.0.",
"0.0.0.0.0.0.0.b ....,....... .[ l y k k z z m 2 @ % & w i p 4.o.B <.,.........,.,.....^ 0.0.0.0.0.0.",
"0.0.0.0.0.0.0.0.b ,.,.......3.>.7 = z z m m N 2 2 2 @ @ 7 t 5.{ ....,.............,.b 0.0.0.0.0.0.0.",
"0.0.0.0.0.0.0.0.0.b ^ ,.,...3.A s 1 m =.=.=.*.I < 1 1 @ O 0 X 9.....,.,.,.,.,.,.b b 0.0.0.0.0.0.0.0.",
"0.0.0.0.0.0.0.0.0.0.0.b ..3.A & s D *.=.;.=.;.;.E P c g % e   C 3.,.n b b n b n 0.0.0.0.0.0.0.0.0.0.",
"0.0.0.0.0.0.0.0.0.0.0.-.B _ Z j d #.;.;.;.;.;.;.=.] M c f $ e V E N 0.0.0.0.0.0.0.0.0.0.0.0.0.0.0.0.",
"0.0.0.0.0.0.0.0.0.0.0.5.6.i 8 a L =.:.:.6.:.;.;.=.=.R v f 7 q 9 p O.O.0.0.0.0.0.0.0.0.0.0.0.0.0.0.0.",
"0.0.0.0.0.0.0.0.0.0.0.-.8.i S 3 X.=.:.:.:.:.;.;.;.=.E m g q , 0 p $.o.0.0.0.0.0.0.0.0.0.0.0.0.0.0.0.",
"0.0.0.0.0.0.0.0.0.0.0.-.6.i S 3 T =.:.:.:.:.;.;.;.=._ Z f 3 , r p O.o.0.0.0.0.0.0.0.0.0.0.0.0.0.0.0.",
"0.0.0.0.0.0.0.0.0.0.0.4.6.i S = X.=.;.:.:.:.;.;.;.;.E m g 3 9 q p #.#.0.0.0.0.0.0.0.0.0.0.0.0.0.0.0.",
"0.0.0.0.0.0.0.0.0.0.0.-.6.u S % d =.=.;.:.:.;.;.=._ M g f 7 : t i #.O.0.0.0.0.0.0.0.0.0.0.0.0.0.0.0.",
"0.0.0.0.0.0.0.0.0.0.0.4.5.H : S x Q &.=.=.:.-.&.R R m g 3 , r o J O.o.0.0.0.0.0.0.0.0.0.0.0.0.0.0.0.",
"0.0.0.0.0.0.0.0.0.0.0.4.:.8.p - x K L T Y T U L M K g 7 & 6 . t -.o.0.0.0.0.0.0.0.0.0.0.0.0.0.0.0.0.",
"0.0.0.0.0.0.0.0.0.0.0.4.4.-.6.p k z z L L F F F 2 = O $ $ r r 5.O.o.0.0.0.0.0.0.0.0.0.0.0.0.0.0.0.0.",
"0.0.0.0.0.0.0.0.0.0.0.0.4.-.8._ , h z x 1 1 # % @ O $ $ 6   } 4.O.0.0.0.0.0.0.0.0.-.0.0.0.0.0.0.0.0.",
"0.0.0.0.0.0.0.0.0.0.0.0.0.4.4 1., y j @ @ @ @ @ $ $ $ r X V 9.b b 0.0.0.0.0.0.0.0.0.0.0.0.0.0.0.0.0.",
"0.0.0.0.0.0.0.0.0.0.0.0.0.b  . .1.C ; t 6 X X X X 0 0 , >.3..... .m 0.0.0.0.0.0.0.0.0.0.0.0.0.0.0.0.",
"0.0.0.0.0.0.0.0.0.0.0.0.0.N P Y [ -.+.@.6 t t t r : W Q { ` ` ` ` ^ 0.0.0.0.0.0.0.0.0.0.0.0.0.0.0.0.",
"0.0.0.0.0.0.0.0.0.0.0.0.0.0.0.0.$.-.-.5.5.5.:.-.#.-.-.$.X.0.0.0.0.0.0.0.0.0.0.0.0.0.0.0.0.0.0.0.0.0.",
"0.0.0.0.0.0.0.0.0.0.0.0.0.0.0.0.0.%.-.4.-.-.-.-.O.o.-.$.0.0.0.0.0.0.0.0.0.0.0.0.0.0.0.0.0.0.0.0.0.0.",
"0.0.0.0.0.0.0.0.0.0.0.0.0.0.0.0.0.0.0.0.-.-.-.-.o.o.0.0.0.0.0.0.0.0.0.0.0.0.0.0.0.0.0.0.0.0.0.0.0.0.",
"0.0.0.0.0.0.0.0.0.0.0.0.0.0.0.0.0.0.0.0.0.0.0.0.0.0.0.0.0.0.0.0.0.0.0.0.0.0.0.0.0.0.0.0.0.0.0.0.0.0.",
"0.0.0.0.0.0.0.0.0.0.0.0.0.0.0.0.0.0.0.0.0.0.0.0.0.0.0.0.0.0.0.0.0.0.0.0.0.0.0.0.0.0.0.0.0.0.0.0.0.0.",
"0.0.0.0.0.0.0.0.0.0.0.0.0.0.0.0.0.0.0.0.0.0.0.0.0.0.0.0.0.0.0.0.0.0.0.0.0.0.0.0.0.0.0.0.0.0.0.0.0.0.",
"0.0.0.0.0.0.0.0.0.0.0.0.0.0.0.0.0.0.0.0.0.0.0.0.0.0.0.0.0.0.0.0.0.0.0.0.0.0.0.0.0.0.0.0.0.0.0.0.0.0.",
"0.0.0.0.0.0.0.0.0.0.0.0.0.0.0.0.0.0.0.0.0.0.0.0.0.0.0.0.0.0.0.0.0.0.0.0.0.0.0.0.0.0.0.0.0.0.0.0.0.0.",
"0.0.0.0.0.0.0.0.0.0.0.0.0.0.0.0.0.0.0.0.0.0.0.0.0.0.0.0.0.0.0.0.0.0.0.0.0.0.0.0.0.0.0.0.0.0.0.0.0.0."
};
