/* XPM */
static char *result[] = {
/* columns rows colors chars-per-pixel */
"50 50 130 2 ",
"   c #7799E9",
".  c #7C9EEB",
"X  c #5EBAE6",
"o  c #63ACE7",
"O  c #6BABE6",
"+  c #6CAEE8",
"@  c #7BA0EA",
"#  c #74ABEA",
"$  c #66B6E7",
"%  c #6BB7E7",
"&  c #65BBE6",
"*  c #6ABDE7",
"=  c #67B3E8",
"-  c #6AB4E8",
";  c #6ABCE8",
":  c #74B3E7",
">  c #74BFE7",
",  c #7BBBE7",
"<  c #74B5E9",
"1  c #7BB3EB",
"2  c #75BCEA",
"3  c #7DBCED",
"4  c #66C3E6",
"5  c #6AC3E7",
"6  c #73C1E7",
"7  c #7AD7EA",
"8  c #84A4EC",
"9  c #82ABEC",
"0  c #8BACEB",
"q  c #92AFEF",
"w  c #83B7E7",
"e  c #82BDE7",
"r  c #8CB9E7",
"t  c #8CB3E9",
"y  c #8CBBEB",
"u  c #95BAE7",
"i  c #99BAE7",
"p  c #92B4EA",
"a  c #93B9E9",
"s  c #9FBDEF",
"d  c #A4BCEE",
"f  c #A9BEF1",
"g  c #B2C9DF",
"h  c #8BC2E7",
"j  c #88CAE6",
"k  c #81C4ED",
"l  c #8FC7ED",
"z  c #86CCEC",
"x  c #8CCBEC",
"c  c #99C1E6",
"v  c #9FCCE5",
"b  c #94C5ED",
"n  c #94CDED",
"m  c #98CEED",
"M  c #8CD3EC",
"N  c #85DBEC",
"B  c #89DCED",
"V  c #95D3ED",
"C  c #9CD3ED",
"Z  c #93DEEE",
"A  c #92C3F3",
"S  c #9DCDF7",
"D  c #A2C4E6",
"F  c #ACCCE3",
"G  c #A3D5EC",
"H  c #ACD5EC",
"J  c #A2D9ED",
"K  c #B6D4E6",
"L  c #B7D7EA",
"P  c #BFD6E9",
"I  c #B7DAEA",
"U  c #BEDEEF",
"Y  c #A3C4F0",
"T  c #AEC2F2",
"R  c #A3CAF1",
"E  c #ABDCF2",
"W  c #B4DEF1",
"Q  c #8DE0EF",
"!  c #93E1EF",
"~  c #8FE2F0",
"^  c #94E3F1",
"/  c #98E7F2",
"(  c #9BE8F3",
")  c #A2E5F1",
"_  c #AFE1F1",
"`  c #A1ECF6",
"'  c #AAEFF7",
"]  c #B2E3F2",
"[  c #B2E9F4",
"{  c #ACF1F8",
"}  c #BBF1F5",
"|  c #B4F6FA",
" . c #BDF1F8",
".. c #B7F8FB",
"X. c #BEFEFF",
"o. c #C7D5E8",
"O. c #C8D6E9",
"+. c #C0DBEA",
"@. c #CBDAEA",
"#. c #D3DEED",
"$. c #CBDFF0",
"%. c #D1DDF4",
"&. c #C3E0EE",
"*. c #CFE0EE",
"=. c #D7E1EF",
"-. c #DAE3EF",
";. c #C0E3F2",
":. c #CEE4F2",
">. c #CAEFFC",
",. c #D5E5F3",
"<. c #DCE4F1",
"1. c #D6E9F2",
"2. c #DBEBF2",
"3. c #CEF6FC",
"4. c #C2FFFF",
"5. c #CBFFFF",
"6. c #D4F6FD",
"7. c #D3FEFF",
"8. c #DDFFFF",
"9. c #E5EDF5",
"0. c #EAEFF6",
"q. c #E2EBFE",
"w. c #EBF1F7",
"e. c #EDF2F8",
"r. c #E4FFFF",
"t. c #F2F5F7",
"y. c #F2F5F9",
"u. c #F6F9F9",
"i. c #F9FAFA",
"p. c None",
/* pixels */
"p.p.p.p.p.p.p.p.p.p.p.p.p.p.p.p.p.p.p.p.p.p.p.p.p.p.p.p.p.p.p.p.p.p.p.p.p.p.p.p.p.p.p.p.p.p.p.p.p.p.",
"p.p.p.p.p.p.p.p.p.p.p.p.p.p.p.p.p.p.p.p.p.p.p.p.p.p.p.p.p.p.p.p.p.p.p.p.p.p.p.p.p.p.p.p.p.p.p.p.p.p.",
"p.p.p.p.p.p.p.p.p.p.p.p.p.p.p.p.p.p.p.p.p.p.p.p.p.p.p.p.p.p.p.p.p.p.p.p.p.p.p.p.p.p.p.p.p.p.p.p.p.p.",
"p.p.p.p.p.p.p.p.p.p.p.p.p.p.p.p.p.p.p.p.p.p.p.p.p.p.p.p.p.p.p.p.p.p.p.p.p.p.p.p.p.p.p.p.p.p.p.p.p.p.",
"p.p.p.p.p.p.p.p.p.p.p.p.p.p.p.p.p.p.p.p.p.p.p.p.p.p.p.p.p.p.p.p.p.p.p.p.p.p.p.p.p.p.p.p.p.p.p.p.p.p.",
"p.p.p.p.p.p.p.p.p.p.p.p.p.p.p.p.p.p.p.p.p.p.p.p.p.p.p.p.p.p.p.p.p.p.p.p.p.p.p.p.p.p.p.p.p.p.p.p.p.p.",
"p.p.p.p.p.p.p.p.p.p.p.p.p.p.p.p.p.p.p.p.p.p.p.p.p.p.p.p.p.p.p.p.p.p.p.p.p.p.p.p.p.p.p.p.p.p.p.p.p.p.",
"p.p.p.p.p.p.p.p.p.p.p.p.p.p.p.p.p.p.p.p.p.p.p.p.p.p.p.p.p.p.p.p.p.p.p.p.p.p.p.p.p.p.p.p.p.p.p.p.p.p.",
"p.p.p.p.p.p.p.p.p.p.p.p.p.p.p.p.p.p.p.p.p.p.p.p.p.p.p.p.p.p.p.p.p.p.p.p.p.p.p.p.p.p.p.p.p.p.p.p.p.p.",
"p.p.p.p.p.p.p.p.p.p.p.p.p.p.p.p.p.p.p.p.p.p.p.p.p.p.p.p.p.p.p.p.p.p.p.p.p.p.p.p.p.p.p.p.p.p.p.p.p.p.",
"p.p.p.p.p.p.N N p.p.p.p.p.p.p.p.p.p.0.p.p.p.p.p.p.p.p.p.p.p.p.p.p.p.p.p.p.p.p.p.p.p.p.p.p.N N p.p.p.",
"p.p.p.p.p.p.Q 5.B p.p.p.p.p.p.p.p.p.p.p.p.p.p.p.p.p.p.p.p.p.p.p.p.p.p.p.p.p.p.p.p.p.p.p.Q ..N p.p.p.",
"p.p.p.p.p.p...r.7.` p.p.p.p.p.p.p.p.p.p.p.p.p.p.p.p.p.p.p.p.p.p.p.p.p.p.9.p.p.p.p.p.` ' 7.4.N p.p.p.",
"p.p.p.p.p.p...r.r.X.B p.p.p.p.p.p.p.p.=.,.,.q.q.p.p.p.p.p.p.p.p.p.p.p.p.p.p.p.B ..| 8.r.7.^ F p.p.p.",
"p.p.p.p.p.p...r.r.r.| p.p.p.p.p.p.-.=.<.=.-.-.=.o.o.=.#.p.p.p.p.p.p.p.p.p.p.B { r.r.r.r.5.Q g p.p.p.",
"p.p.p.p.p.p...r.r.r.8./ p.p.p.p.p.-.=.-.i.i.i.i.t.u.#.#.O.p.p.p.p.p.p.p.N B X.8.r.r.r.r.7.Q p.p.p.p.",
"p.p.p.p.p.p...r.r.r.r.5.Q p.p.-.=.,.y.u.8 8 8 8 9 . w.2.O.O.O.p.p.p.F B 4.4.r.r.r.r.r.r.7.B p.p.p.p.",
"p.p.p.p.p.p.B 4.r.r.r.8.X.^ +.<.9.<.9 q < a a r r : 0 s 9.#.O.O.p.F ! 5.8.8.8.r.r.r.r.r.4.! p.p.p.p.",
"p.p.p.p.p.p.p.( 5.r.5.5.X.4.{ ] Y a y b b n j 5 & 6 , t d d 9.o.P ) 7.5.X.X.4.5.r.r.r.5.` p.p.p.p.p.",
"p.p.p.p.p.p.p.p.N X.X.X.X.X.8.3.w > n n V V V 4 4 5 * % t 8 t.0.! 5.5.X.X.X.X.X.4.4.4...M p.p.p.p.p.",
"p.p.p.p.p.p.p.p.p.N ^ X.X.X.8.A h 4 V =.,.,.,.K 4 4 4 ; $ a   [ 4.X.X.X.X.X.X.X.X.4.N N p.p.p.p.p.p.",
"p.p.p.p.p.p.p.p.p.p.L N 4.8.S % h v ,.,.1.,.1.,.) J z z % i o A 7.X.X.4.4.4.4.5.B B p.p.p.p.p.p.p.p.",
"p.p.p.p.p.p.p.p.p.p.+.=.Z ] 3 c j :.,.1.1.1.1.1.,.E C z k - i A 6.X...N B B B B p.p.p.p.p.p.p.p.p.p.",
"p.p.p.p.p.p.p.p.p.p.@.<.t.8 , h G ,.1.2.2.2.2.1.1.,.J M k e r : r W J p.p.p.p.p.p.p.p.p.p.p.p.p.p.p.",
"p.p.p.p.p.p.p.p.p.p.#.-.u.8 D 6 P 1.2.2.2.2.1.1.1.,.E V k 6 y y q -.O.p.p.p.p.p.p.p.p.p.p.p.p.p.p.p.",
"p.p.p.p.p.p.p.p.p.p.@.-.e.8 D 6 +.1.2.2.2.2.2.1.1.,.E V k k 3 p q <.O.p.p.p.p.p.p.p.p.p.p.p.p.p.p.p.",
"p.p.p.p.p.p.p.p.p.p.@.-.t.8 D 6 +.1.2.2.2.2.1.1.,.1._ V k k 1 p p #.O.p.p.p.p.p.p.p.p.p.p.p.p.p.p.p.",
"p.p.p.p.p.p.p.p.p.p.@.<.t.. D * z :.1.2.2.2.1.1.,._ C z k 3 1 p q ,.O.p.p.p.p.p.p.p.p.p.p.p.p.p.p.p.",
"p.p.p.p.p.p.p.p.p.p.p.<.e.q - D C I ,.,.,.1.1.:.E E C z 6 3 p # d #.O.p.p.p.p.p.p.p.p.p.p.p.p.p.p.p.",
"p.p.p.p.p.p.p.p.p.p.p.<.<.y.0 e C G H U U U +.L C G x 6 3 w 1 8 9.O.p.p.p.p.p.p.p.p.p.p.p.p.p.p.p.p.",
"p.p.p.p.p.p.p.p.p.p.p.9.9.%.0.0 b n n H H F F R 5 2 % % - t @ q.@.O.p.p.p.p.p.p.p.p.p.p.p.p.p.p.p.p.",
"p.p.p.p.p.p.p.p.p.p.p.p.<.-.u.[ 3 l x n & 4 5 ; & $ - - t + } w.O.p.p.p.p.p.p.p.p.p.p.p.p.p.p.p.p.p.",
"p.p.p.p.p.p.p.p.p.p.p.p.p.-.7 6.1 a D X & & & & - - - a O A r.N O.p.p.p.p.p.p.p.p.p.p.p.p.p.p.p.p.p.",
"p.p.p.p.p.p.p.p.p.p.p.p.p.B 4.4.7.b - p t + + # - t t 3 >.7.X.X.B p.p.p.p.p.p.p.p.p.p.p.p.p.p.p.p.p.",
"p.p.p.p.p.p.p.p.p.p.p.p.N | { ' _ 9.T T # t 0 p 0 # R E  .{ { 4...^ p.p.p.p.p.p.p.p.p.p.p.p.p.p.p.p.",
"p.p.p.p.p.p.p.p.p.p.p.p.p.p.p.p.2.9.w.2.,.%.,.%.%.%.<.%.L p.p.^ ^ Q p.p.p.p.p.p.p.p.p.p.p.p.p.p.p.p.",
"p.p.p.p.p.p.p.p.p.p.p.p.p.p.p.p.9.w.w.e.=.-.<.=.O.O.=.#.p.p.p.p.p.p.p.p.p.p.p.p.p.p.p.p.p.p.p.p.p.p.",
"p.p.p.p.p.p.p.p.p.p.p.1.p.p.p.9.0.9.9.w.w.=.<.=.O.O.p.p.p.p.p.p.p.p.p.p.p.p.p.p.p.p.p.p.p.p.p.p.p.p.",
"p.p.p.p.p.p.p.p.p.p.p.p.p.p.p.9.9.9.9.0.9.p.p.p.p.p.p.p.p.p.p.p.p.p.p.p.p.p.p.p.p.p.p.p.p.p.p.p.p.p.",
"p.p.p.p.p.p.p.p.p.p.p.p.p.p.p.9.9.9.0.w.0.p.p.p.p.p.p.p.p.p.p.p.p.p.p.p.p.p.p.p.p.p.p.p.p.p.p.p.p.p.",
"p.p.p.p.p.p.p.p.p.p.p.p.p.p.p.p.9.w.9.p.p.p.p.p.p.p.p.p.p.p.p.p.p.p.p.p.p.p.p.p.p.p.p.p.p.p.p.p.p.p.",
"p.p.p.p.p.p.p.p.p.p.p.p.p.p.p.p.p.p.p.p.p.p.p.p.p.p.p.p.p.p.p.p.p.p.p.p.p.p.p.p.p.p.p.p.p.p.p.p.p.p.",
"p.p.p.p.p.p.p.p.p.p.p.p.p.p.p.p.p.p.p.p.p.p.p.p.p.p.p.p.p.p.p.p.p.p.p.p.p.p.p.p.p.p.p.p.p.p.p.p.p.p.",
"p.p.p.p.p.p.p.p.p.p.p.p.p.p.p.p.p.p.p.p.p.p.p.p.p.p.p.p.p.p.p.p.p.p.p.p.p.p.p.p.p.p.p.p.p.p.p.p.p.p.",
"p.p.p.p.p.p.p.p.p.p.p.p.p.p.p.p.p.p.p.p.p.p.p.p.p.p.p.p.p.p.p.p.p.p.p.p.p.p.p.p.p.p.p.p.p.p.p.p.p.p.",
"p.p.p.p.p.p.p.p.p.p.p.p.p.p.p.p.p.p.p.p.p.p.p.p.p.p.p.p.p.p.p.p.p.p.p.p.p.p.p.p.p.p.p.p.p.p.p.p.p.p.",
"p.p.p.p.p.p.p.p.p.p.p.p.p.p.p.p.p.p.p.p.p.p.p.p.p.p.p.p.p.<.p.p.p.p.p.p.p.p.p.p.p.p.p.p.p.p.p.p.p.p.",
"p.p.p.p.p.p.p.p.p.p.p.p.p.p.p.p.p.p.p.p.p.p.p.p.p.p.p.p.p.p.p.p.p.p.p.p.p.p.p.p.p.p.p.p.p.p.p.p.p.p.",
"p.p.p.p.p.p.p.p.p.p.p.p.p.p.w.p.p.p.p.p.p.p.p.p.p.p.p.p.p.p.p.p.p.p.p.p.p.p.p.p.p.p.p.p.p.p.p.p.p.p.",
"p.p.p.p.p.p.p.p.p.p.p.p.p.p.p.p.p.p.p.p.p.p.p.p.p.p.p.p.p.p.p.p.p.p.p.p.p.p.p.p.p.p.p.p.p.p.p.p.p.p."
};
