/* XPM */
static char *result[] = {
/* columns rows colors chars-per-pixel */
"50 50 247 2 ",
"   c #363323",
".  c #3E3E3A",
"X  c #423D33",
"o  c #503F37",
"O  c #3E403B",
"+  c #59550B",
"@  c #4E4F13",
"#  c #4D4917",
"$  c #4D4C1C",
"%  c #554E19",
"&  c #565414",
"*  c #5B5B14",
"=  c #54531B",
"-  c #5A561C",
";  c #5B5A1B",
":  c #615E12",
">  c #61571E",
",  c #635F1B",
"<  c #66660C",
"1  c #76770C",
"2  c #636413",
"3  c #696513",
"4  c #6B6C15",
"5  c #64621C",
"6  c #68651B",
"7  c #6C6B1B",
"8  c #746A1D",
"9  c #6F7217",
"0  c #797716",
"q  c #74731C",
"w  c #7C7C1C",
"e  c #4D4C24",
"r  c #48432B",
"t  c #4D4B2C",
"y  c #524C24",
"u  c #524D2D",
"i  c #594C2A",
"p  c #555324",
"a  c #5A5524",
"s  c #565926",
"d  c #5C5A22",
"f  c #55532C",
"g  c #5C552B",
"h  c #5B5B2C",
"j  c #474335",
"k  c #4B4435",
"l  c #454836",
"z  c #4D4A34",
"x  c #45433C",
"c  c #4B453C",
"v  c #4B4A3B",
"b  c #524B32",
"n  c #544439",
"m  c #534B3C",
"M  c #4E5235",
"N  c #545334",
"B  c #5B5434",
"V  c #5C5B33",
"C  c #55523B",
"Z  c #5A533C",
"A  c #5D5A3A",
"S  c #625C24",
"D  c #625C2C",
"F  c #685B28",
"G  c #635B32",
"H  c #695D37",
"J  c #625D3C",
"K  c #5D6021",
"L  c #626325",
"P  c #6A6524",
"I  c #646C22",
"U  c #6C6C25",
"Y  c #64612C",
"T  c #6B662C",
"R  c #6B6B2C",
"E  c #726D22",
"W  c #72682B",
"Q  c #6E7023",
"!  c #737224",
"~  c #787726",
"^  c #79732C",
"/  c #7C7B2A",
"(  c #6A6535",
")  c #6D6A33",
"_  c #64613B",
"`  c #6B643C",
"'  c #6A6838",
"]  c #736D32",
"[  c #746839",
"{  c #746D3B",
"}  c #757131",
"|  c #7A7634",
" . c #75723B",
".. c #7A753C",
"X. c #7C7938",
"o. c #473E42",
"O. c #4B4A44",
"+. c #544D42",
"@. c #5B4E40",
"#. c #565144",
"$. c #5B5444",
"%. c #5C5942",
"&. c #56554C",
"*. c #5B554A",
"=. c #5E5A4B",
"-. c #524C54",
";. c #5B5951",
":. c #625644",
">. c #675847",
",. c #635D44",
"<. c #645D4B",
"1. c #6B5E4D",
"2. c #725E47",
"3. c #655752",
"4. c #645D54",
"5. c #5E6047",
"6. c #666345",
"7. c #6A6444",
"8. c #6D6A44",
"9. c #666249",
"0. c #6C634C",
"q. c #6D684A",
"w. c #736B44",
"e. c #7A6A45",
"r. c #73644D",
"t. c #746C4B",
"y. c #7A6B4D",
"u. c #757144",
"i. c #7B7344",
"p. c #787548",
"a. c #7C744C",
"s. c #7E794D",
"d. c #6A6657",
"f. c #6C6554",
"g. c #6B6359",
"h. c #726553",
"j. c #736B54",
"k. c #7B6C53",
"l. c #73665E",
"z. c #746C5C",
"x. c #7A6E5B",
"c. c #777255",
"v. c #7B7353",
"b. c #7E7A53",
"n. c #77715C",
"m. c #7C735C",
"M. c #7E795C",
"N. c #746D62",
"B. c #7D7463",
"V. c #7C7664",
"C. c #7E7669",
"Z. c #827B28",
"A. c #827B3B",
"S. c #856949",
"D. c #837648",
"F. c #827B4B",
"G. c #836E59",
"H. c #847354",
"J. c #837C53",
"K. c #8A7B53",
"L. c #83745C",
"P. c #837A5C",
"I. c #8A7D5A",
"U. c #937D58",
"Y. c #827562",
"T. c #847B63",
"R. c #8B7D64",
"E. c #857668",
"W. c #847C6A",
"Q. c #8A7E6B",
"!. c #907F6B",
"~. c #867E72",
"^. c #7E8216",
"/. c #7F8127",
"(. c #81850E",
"). c #858716",
"_. c #86842B",
"`. c #94932F",
"'. c #888738",
"]. c #898247",
"[. c #8B8356",
"{. c #868359",
"}. c #8C835B",
"|. c #948657",
" X c #958C5C",
".X c #939052",
"XX c #A39558",
"oX c #878163",
"OX c #8C8364",
"+X c #86806A",
"@X c #8C826D",
"#X c #948464",
"$X c #948B64",
"%X c #9A8866",
"&X c #92856C",
"*X c #948B6C",
"=X c #9B8B6C",
"-X c #97926C",
";X c #8D8472",
":X c #8F8975",
">X c #8C8578",
",X c #928672",
"<X c #938A74",
"1X c #9B8D74",
"2X c #948C7B",
"3X c #9A8D79",
"4X c #9D9274",
"5X c #959179",
"6X c #9C937C",
"7X c #A28B64",
"8X c #A28D6C",
"9X c #A5916E",
"0X c #A6976C",
"qX c #A69273",
"wX c #A39476",
"eX c #AB9476",
"rX c #A99976",
"tX c #A2947C",
"yX c #A49B7C",
"uX c #AC9B7C",
"iX c #B29A75",
"pX c #B49C7C",
"aX c #B6A37D",
"sX c #C0A279",
"dX c #8E8881",
"fX c #958C82",
"gX c #9A8F83",
"hX c #9D9583",
"jX c #9A9486",
"kX c #A29582",
"lX c #A49B84",
"zX c #AB9D83",
"xX c #A1978B",
"cX c #A49C8A",
"vX c #AB9E8A",
"bX c #B29E84",
"nX c #A49E91",
"mX c #ABA185",
"MX c #AAA18C",
"NX c #B2A284",
"BX c #B3A38C",
"VX c #B8A88A",
"CX c #A7A295",
"ZX c #ACA393",
"AX c #B5A997",
"SX c #BDB09B",
"DX c #B9B5A6",
/* pixels */
").t.D.8 7 C ; { 4XOXm.5XV Y C f d n.) I I } e O O x Z n Z j.<.8.j.z.Q.b.' <.6.7.@XT.Y.T.@X$X;X$X$XQ ",
"F.h T ZXcXwX4Xp.1X=.#.= ;XW.E.,Xb.'.>X:X2X:XhX:X5XM.-.jXhXfXgX2XfXdXfX2X{ m.6.O.@XY.;XQ.;X<X:X<XjXh.",
"*XaX0.W.,XzXcXMXkXcXhXz Q.Y.G.E.5.;X:X2X2X<X2X{.*Xb.O.yXgXjXfXjXgX~.fXfX7.8.` u T.~.V.Q.W.@X!.<X3X1X",
"rXvX$.x.B.Q.@X,Xx.,.q.d ;.E.4.4.5 b.dXfX3X>XF.a.:X>XO.yXgX5XjXjXdX2X2Xd.q.m.w.Y &X;X,Xz.g.g.>Xg.O.wX",
"6.m w.1.t.t.j.' ] w.Y 5 ; t @ $ * K h u.M 7.B D Z 3 $ t ,.^ V g.U Z V V B v L U d %.C j.C.C.R y z p ",
"Q.| P.I.OX4XAXjXS 7 w 7 < 0 0 _.| *XT <X6X| ].] F.E w 0 7 -XzXlX6XvXAXcXAX' u.j.h.h.h.r.t. .u.4 { Q.",
"L.I.&X1X6XlXhXMX^ yX2X;XJ.OX6X6X6XkX-XMX$.4X4X*X-XF.s.OX/.0XcXcXkXkXhX6X,X_ D H y.j.k.h.x.x.R.( R.r.",
"R.!.1XtXwXtX=XyX) lXkXmXlX6XmX5XlXlX@XMX+X6X1X#X#X<X4X.X' 4XkXhXhXtX,X2X<X#.k.w.[ Y.k.Y.k.L.#Xu l.H.",
"R.R.1X1X1XtXwX1.p tXcXvXCXMXhXC.z.l.B.h x B C @.Q.A _ d q ( 6XhX3X<X<X3X>.$.8.P u E r.Q.e.7.] S h.L.",
"o m B i q.8.1.u $ d Z o Q ].yXJ f.f.h.0.g D T 4 ) 7 1 p 4 4 ! g } k 5 8 |.W ) Z.K.XX! P * p P d 5 e ",
"Q.,XR.7.i 1X=Xc.CXcXCXCX5X-X XcXAX&XMXAXa.*X{.MXa.MX'..XyX.XyX4X$X}.H XXpXiXZ.U.|.9X8XK.F > a.Y.Y.Q.",
"@X3X,XY.F 1X,X+.CXCXCXjXcXp.i.*X%X#.mXMXlXmXmXMXyX6X&X1XBXBXBXvXbXbX- %XaX7XS.9X9X9X8X%X[ d Y.Y.E.Q.",
";X,X&Xw.H h.x.x OXoXlX2X@X[.i.rX%.#.v.vXyXR.a.,XBXlXj.H.VXVXvXNXVXlXb U.7X7X%Xm.eX8X8X7XG p w { Y.,X",
"* +.b Z g I.7.B #.( |. X[.A e v w.t t _ J A =.q.<.f.N.0.y.E.&X2.r.,.1.c l N & c J J m T ^.* U V B & ",
"4 D.*XwXg g E < < , 7 ~ G ) R X.! ^ '.q [ | ! P Z.E W < q | 0 aX].-X%Xl A.^ E ,X@XT.w.R ) P.!  .3.* ",
"v.*X&X<Xf.yXeX6X>X;XT.s.} ] ~ F.,X{.P.'..XA.$XuX#X X< ].<Xu.p.{.kXhXhXzXD.U.A &XT.Y.T.@Xm.oXi.w.Y - ",
"n.T.OXR.5.t.:X:XoXoXP.' P.w.P J.@XK.{ /  XoXzXbX9XVXJ !.v.w.G.<XjXjXjXcX}.eX#.Y.Q.&X,X3XhX,XR.` 6 w.",
"0.W.Y.M.V V.&X+XT.P.oXb.@XD.C X.E u.,.L AXZXSXH.P.S w 1XI.1X*XZ AXZXfX%.f.g.+.g.B.3X6X3X6X3X<XY.d 1.",
"=.9.A v ! A W.@Xb.c.+Xi.` V t B - S g b N Y 8.u ~ * # $ g = $ l B.;.B.,X6X2XzXF.&.+.O.<.g.f.<.#.+.>.",
"BX( ].F.4Xi.I.F - $ V g P.) 1X=XA.K. XH pXuX1XP XXVXsXaXpXt SXmXpXbXeXeXeXwXeXtX[.lXyX4X*XT.lXwX6XuX",
"*X3XT.z.n.,X@Xm.6.iXeXW.Q.L.@X@X=X=XwXzX4XyX*Xx.vXzXeXzXtXW.uXeXiXeXbXNX#X$X%XuX[ zX1X5XlX}.wXwX4X4X",
"*XL.n.z.z.j.j.V.D 8XpXpXaX1.;X&X@X*X=XwXL.#X0.m BXNXNXrXwXm.- x.w.k.R.H.D.iX=X=Xp aX6XjXm.5XwX=X=XwX",
"L.Y.@XT.W.W.<X<X! ( H.%X$Xg f.T.@X[.%Xz.6X,.w.D j.f.$.*Xf.g , Z 7.Z b B z +.z c c k.wXMXf $.T.R.P.T.",
"; : u m +.; h I 7 1 A.; 9 4 1 S ^.(.2 k u a : W 1 3 : 9.bXF i.w R vXDXY.,XvX..D '.; ~ 6.@ 5 y k.D.s ",
"%XtX!.1XH 7.w.P.@Xj.*X, E X._.Z.).).^ ] ] *X6X3XrX&X*XH Q.<X@X( v bXVXVXvX,X<X0.6X .J.<XJ.{.OXlXyXNX",
"1XB.W.&X1Xx.P.Y.@XQ.a wXm.[ y.BXF. .J.;X+.<X=X4X<X}.6Xy.B.n.T.3Xq.NX#X].J.#Xk.k J.3XcXlXoX6XkX6X%XyX",
"<XT.T.@X0.g z.V.n.x.,.,.j.T.L.x.B.C.E.z.+.3X*X<X<X}.[.6.1.n.h.%.t j.v.M.T.&X1.x 6XcXhXtXOXkX3X3XE.tX",
"+.O.#.X z J $.<.f.1.2.1.$.#.R.h.1.1.>.:.C C.V.V.oX..i.Z Y ` <.u j e O.e A  .J 5 D l c c =.#.*.&.*.3.",
"OX#Xj k c n Y * ^.'.8.b v ; p ; ( S 2 4 5 Q f X T 9 @ : S 4 ^ u.G 0X'.+ 5 7 ^.`.`.) u : Q P =.d.<.7.",
"oXQ.x @X@XY.@XP.| H.J.k.w w '.U ~ OXb.< < Z.P + 3 T S.|.S D.A.$Xs.3X@X$XX.X.-X0XkXQ.S ,X2XgX7Xl nXW.",
"y.Y.j Q.@XT.,.P.v.@X~.Q.:.b.Q :Xm.>X>Xp.E 5 S.U.D.|.S.y.r.k.r.B z T.a.V.;XhXkXSX5XC.3.~.fX>X~.i E.C.",
"B.P.t 4.@X:Xm.q.j.P.H.,X+.J. .v.;X~.2X5Xi.L.2.U.qX[ k.S.k.m.:.F z W.u.t.T.t.N.B.E.N.c <X<XE.:Xn C.B.",
"p.Q J #.D.{.F.w.) t.+Xb.M 7. .u.R.y.k.Q.` J 9.k.H.w.B y 5 p , ; S %.J X.{ w.n.n.z.&.+.x.m.v.$ S.f.$.",
"U A.; R H.} D 4 M z = ; N } F.F.F.n.*XB q.#.4.a - e 4 P U / ).).Z.R a y $ y j r b i p . d x % G U q ",
"! s.S j./.'..Xp.{.f Q '.].7 < D ! h 4 ,.K.> > - R ]...a -X8.d.N.N.m.J.8 /.~ *X4Xs.;X,X@XR. .L.J ,XK.",
"` 5XM.].2Xu.8.x.q.; t...[.{._./.MX` VX3Xx.m.L.T.t.x.Y.@Xz.N.C.V.z.N.d.+X,X X@X;X@X;X;X,X;X{ T.y.*X[ ",
"A 0.t.W.Y.B.m.n.4.g.w.t.q.P.2XW.I.T.n.f.n.h.T.L.w.j.f.g.N.N.N.W.z.d.d.N.7.Q.;X,X;XQ.;X@X,XW.Y.[ | H ",
"v ( 7.w.B.x.n.j.B A <._ A a.[.@XT.L.z.T.T.T.Q.T.j.B.4.:.f.4.z.z.O.C.d.8.L *.I.oXm.Q.x.l.r.` J a d ; ",
"- <.( 6.v v +.#.v a Z D V t $.#.#.%.O.C &.;.;.z ; & c & @ # v &.O.M Y L z f u x j x j r t 4 P Z.4 & ",
"J.@Xk.L.T.. #.E.AXvX{ | ' ) ..~ 4 i.| s.2 + 7.T.T.T.T.>X,X+XD 7 5X*X:X@XQ.@X@X,X*XE.n W.~.@XT.t.oXa.",
"C.T.m.P.T.f s.lXvXvXAX` R.{ W.P.T.m.T.P.@XH.>Xn.d.M.dX<XV.7.;Xm.&XP.Y.n.T.!.&X#XT.8.D ;XW.W.W.T.T.W.",
"a.m.T.T.v.$.P.n.xXhX<Xy l.@XM.t.m.E.T.T.v.7.z.&XT.j.+X~.n.:XR.;X*Xy.y.j.R.!.L.!.Q.t.R *.f.;XW.Y.Y.n.",
"M.b.T.R.@X$._ :X@X;XoXn C.2Xt.a.a.P.I.;XM.H n J.@Xq.f.q.D S :.a 7.H.L.Y.P.T.I.F.j.* E ! m z g.;XQ.m.",
"T.:Xv.B.T U b 7.,X<Xm.k Y.r *.#.G ,.` +.` g k x . c o % r u X X y Z $.$.$ g @ q 0 w } 6 G.H.2.v &.T.",
"h = ] q.K .Xf s p ; t m :.1.n r.e.[ L 3 : 7 5 ] - % = , = % # # a - d & 6 %X7XiX1.U.; = g s $ p e z ",
"AXMXAXZX4.mX6XAXSXDX6XlXz.h.tXwXrXc W  .F 0 0 : 8 G I.0 ~ ^ , G P * >.S X X o.B p z T Z.].F.6XcXxXAX",
"2X<X5X6Xz hX@X:X:XjXcXhXx +X$.oXJ.V.hXa.6 H 1.tX[. .oXi.( A...F.tXkX` 6X<X6X5X3X1XDXDXa.4XvXlXcXcXhX",
"j.j.q.B G ' <X:X2XT.W.V.O.C.E.C.;XQ.Q.Q.) F q * v O.&.=.ZXoX .$XlXzXC.,X<X,X,X5XhX6X5Xt d.2X5X2XW.C.",
"' V L | : T 2 B c c x 1.Z Z V.C.~.>X;X;XF P e.R - 6 @   1X=Xc.}.2Xf.e d.;X:X@X@X@X*XQ.&.m m 7.$XC.} ",
"L Q ! q P ! J.a.T.v.r.,.>.s p p p ( g.C.~ d.w :.@XeX%XH.h.v v v x e K h V V m >.p h f h ,.- g h z C "
};
