/* XPM */
static char *result[] = {
/* columns rows colors chars-per-pixel */
"50 50 254 2 ",
"   c #0F391B",
".  c #0E3C24",
"X  c #143C2A",
"o  c #143F32",
"O  c #094D19",
"+  c #12461A",
"@  c #0B641E",
"#  c #0C4727",
"$  c #184626",
"%  c #154D24",
"&  c #13442B",
"*  c #134C2B",
"=  c #1B4C2C",
"-  c #0A5628",
";  c #155424",
":  c #14532B",
">  c #1C542B",
",  c #185A28",
"<  c #1C5B2B",
"1  c #094A37",
"2  c #134D32",
"3  c #194937",
"4  c #134D3B",
"5  c #095636",
"6  c #0C5D3C",
"7  c #155537",
"8  c #1B5434",
"9  c #1C5C34",
"0  c #145B3C",
"q  c #1D5C3C",
"w  c #22592C",
"e  c #254F37",
"r  c #235C34",
"t  c #255738",
"y  c #18662B",
"u  c #106A2F",
"i  c #08673C",
"p  c #1C6334",
"a  c #186837",
"s  c #1C633B",
"d  c #1A7538",
"f  c #25672D",
"g  c #246433",
"h  c #246B35",
"j  c #28653A",
"k  c #236B3B",
"l  c #2B6D3D",
"z  c #267739",
"x  c #24743C",
"c  c #2B7D3D",
"v  c #31753C",
"b  c #1D4944",
"n  c #0D5C42",
"m  c #095A47",
"M  c #145D42",
"N  c #1A5845",
"B  c #0B5D54",
"V  c #1C5F53",
"C  c #245C42",
"Z  c #225848",
"A  c #32554F",
"S  c #0D6343",
"D  c #096748",
"F  c #136344",
"G  c #186745",
"H  c #136B4B",
"J  c #1B6B4C",
"K  c #0A764B",
"L  c #197647",
"P  c #0B6A56",
"I  c #136B53",
"U  c #1A6856",
"Y  c #0C7454",
"T  c #097B56",
"R  c #187758",
"E  c #246444",
"W  c #23644B",
"Q  c #246C4C",
"!  c #296B48",
"~  c #33694D",
"^  c #247B44",
"/  c #277749",
"(  c #337B46",
")  c #216C54",
"_  c #276C57",
"`  c #267656",
"'  c #357B59",
"]  c #0C7B63",
"[  c #187763",
"{  c #177275",
"}  c #257A66",
"|  c #2B796A",
" . c #1C8438",
".. c #24833B",
"X. c #2A833D",
"o. c #2C903E",
"O. c #078558",
"+. c #128E53",
"@. c #17865B",
"#. c #278747",
"$. c #2C8344",
"%. c #338649",
"&. c #2C9549",
"*. c #339549",
"=. c #339B4B",
"-. c #288657",
";. c #358754",
":. c #299758",
">. c #33925C",
",. c #379A58",
"<. c #33A64C",
"1. c #37A659",
"2. c #39B456",
"3. c #178965",
"4. c #148C6D",
"5. c #179768",
"6. c #0A8B70",
"7. c #1B8978",
"8. c #179877",
"9. c #288866",
"0. c #348966",
"q. c #2A9869",
"w. c #389866",
"e. c #34936B",
"r. c #298878",
"t. c #368C75",
"y. c #269778",
"u. c #349375",
"i. c #3B9B73",
"p. c #3B9879",
"a. c #14A372",
"s. c #18A777",
"d. c #1DB47B",
"f. c #39A767",
"g. c #34B16F",
"h. c #27A678",
"j. c #3CA675",
"k. c #468C55",
"l. c #449859",
"z. c #43A558",
"x. c #418469",
"c. c #439867",
"v. c #439A76",
"b. c #529D77",
"n. c #46A766",
"m. c #42AC6C",
"M. c #54AC6C",
"N. c #48B468",
"B. c #43AC73",
"V. c #45A778",
"C. c #49B778",
"Z. c #58BA79",
"A. c #61BA75",
"S. c #4AC36B",
"D. c #4CC47C",
"F. c #55C577",
"G. c #60C27B",
"H. c #0D7183",
"J. c #1A7B84",
"K. c #207D88",
"L. c #149289",
"P. c #298A88",
"I. c #328E85",
"U. c #269A84",
"Y. c #379688",
"T. c #2C9195",
"R. c #359597",
"E. c #1BA786",
"W. c #1CB687",
"Q. c #1DA997",
"!. c #1FB19A",
"~. c #28A887",
"^. c #39A788",
"/. c #2BB582",
"(. c #26B689",
"). c #35B887",
"_. c #26A697",
"`. c #37AA9A",
"'. c #25B897",
"]. c #37B89C",
"[. c #1B97A3",
"{. c #339DA6",
"}. c #1FA6A5",
"|. c #25B6A5",
" X c #30B0AF",
".X c #419C84",
"XX c #49AA87",
"oX c #50AD8F",
"OX c #4AB587",
"+X c #53B989",
"@X c #48A896",
"#X c #46B994",
"$X c #55B999",
"%X c #62BC93",
"&X c #47A7AA",
"*X c #4AB3AF",
"=X c #59BBA8",
"-X c #45A9B7",
";X c #58BCB8",
":X c #64BCB1",
">X c #2AC38A",
",X c #39C68A",
"<X c #28C699",
"1X c #35C697",
"2X c #2ED697",
"3X c #33D497",
"4X c #2BC5A8",
"5X c #34C9A8",
"6X c #37D3A9",
"7X c #38C7B9",
"8X c #3ED3B7",
"9X c #4DC987",
"0X c #56C888",
"qX c #5AC696",
"wX c #54CD90",
"eX c #6DCF8F",
"rX c #62C598",
"tX c #6AD39A",
"yX c #58C6A8",
"uX c #4BD6AB",
"iX c #44CCB6",
"pX c #58C6B8",
"aX c #45D5BA",
"sX c #69C9A8",
"dX c #6FD2AC",
"fX c #68C6BB",
"gX c #75DAB1",
"hX c #54E3B7",
"jX c #6EE7BB",
"kX c #39ABD1",
"lX c #58B9C6",
"zX c #4EBCD2",
"xX c #6BBECE",
"cX c #3BC8C4",
"vX c #3FD0C3",
"bX c #45CACA",
"nX c #4AD6C9",
"mX c #55CCDD",
"MX c #4ED0D2",
"NX c #4DD6D3",
"BX c #55D9D8",
"VX c #68C7C6",
"CX c #78D5C4",
"ZX c #73CCD2",
"AX c #56E2CA",
"SX c #55CCE1",
"DX c #74CDE9",
"FX c #5BE1E2",
"GX c #67E8E9",
"HX c #87E4B6",
"JX c #8FD8D8",
"KX c #91E5D6",
"LX c #89D3EA",
"PX c #A6E9FF",
/* pixels */
"s ( l., + q.n t N 9X^.CXCXpX#X#X_ 3 _ 1.o.X.z o.2.f < #.i 5.(.O.<XaXiX6XU.8.[ n M f g w v g <.- S 9 ",
"H 4 %.x ; L M q q.^.U.pXZXpX#XR W N ~ ,.N.+ X.1.2.z ; - Y 3.O.3X'.4XiXaX4.4.4.U n ; w , h z.c H K S ",
"a.F 5 / w k * | qX].=XZXJXZX].U R Z s :.j y 1.i.w.d > - @.5.Y E.8XAX7XnX].L.s.] 6 F g c , ..^ 5.8.3X",
"<Xn L i : l C ) qX_.VX&XDXZXU.t.} V : $.j $.j.XXsXL > 6 3.5.5.1XhXnXNX X7X7.] 8.I M 5 c h h G 1X6X5X",
"7XO.K R y 8 ) u.yX`.VXJXDXlX7.r.} Z E O / -.u.XXOXL > a K +.5.5 AXvXbXbXcX!.8.U.4.n M A.l %.9 8.4X4X",
"7XaXS D p = ` ^.yX[.DXPXDXlXP.Y.| 8 / : ;.1.j.sXXXL : / @.s.8.8.AXNXNXcXbXcX6.Q.8.m n 8 l %.D E.cX7X",
"7X'.T 3.s ! F #X=XK.LXPXkXkXR.^.} 3 e , $.>.rXj.XXd < i ` 5.d.(.vXAXcXMXBXcX|.E.7.m n 6 r %.E.5XBXcX",
"7X'.).K # Q ) $X^.H.LXLXLXzXP.=XW # w %.$.w.0.i.+X-.: p G 3.d.W.4XGXGXNXMXcX}.] 8.] ^.0 d 6 D 7XFXcX",
"cX'.E.@.X ~ 9.9X#XJ.DXLXxXlXP.9.8   r ,.<.>.rXp.qX-.h =.-.H a.W.'.iXnXNXbX7X|.|.h.'.I 6 2 o 3.7XFXcX",
"7X|.W.0 . 5 | qX=X{ lXZX XP.~.9.+ $ w *.B.>.sXv.sXZ.d O ^ m K W.!.E.8X7XNXL.|.|.5X~.P 6 e m r.6XNXcX",
"cX4X6X  9 9 _ tXfX&X&X-XP.^.q.- r > = 1.x n.i.t.e.s #.% ( 5 n h.6XW.6.aXvX6.}.!.E.D m # A b U.|.nXcX",
"NX4XO.> k & E R dX;X| { u.u.5 & = k.$ 2.f.L i.u.>.=., d 9 &.0 F ,XW.!.8.E.Q.Q.E.6.I Y 3 b b [ } 8XcX",
"nX6XR 7 #.W V ) dX$XR u.9.S Q * g M.= -.N.f.9.sXJ :.d ( / u s 0 H a.d.(.4.(.s.~.R 3.3 e X e b [ 7.iX",
"|.E.2 l w.W ' W G XXq.-.%X2 q C ^ b.t 9 N.B.9.t.5 ^ ;.eXb.' : ' 5 F (.8.s.s.K K K 7 . W 0X;.o t.4.E.",
"E.Y & ;.B._ 3 4 _ ` :.L 2 Z N c.f.6 Z 4 f.B.oX} v.L 0.v.sXb.0 C > 5 H 5.5.s.5.T F s B jXO y t N [ [ ",
"R O.s g.qXqXG q ~ E L O 1 m t.:XqXV.b 4 f.B.$Xm :.>.v.t.dX| XX' 8 + f - @.5.O.6 t R E.2X>XuXc.9 P P ",
"Y # L +XXXwX-.2 # k * >.A t.J gXHXtX0.b v.C.9.1 - e.p.:XJXJX@XoXu =   t e i 5 @.) P <X6X2XW.K , E H ",
"H g -.+XdXOXg.u = $.$.& b t.V.qXqX+Xx.N 3 V.R v.w.i.oXxXxXxXKX$Xc.f $ + k F.# : m <X<X<X<XW.u y > H ",
"< p &.R sX9Xf.u < ..p ` 5 5 i.rXrX+XgX-.# XXM w.w.c.[ :XxXZXKXR B.eXr w % ^ *.> D <X>X<X<X5X1.$.s , ",
"v %.&.qXi.C.&., , ; # -.3.h.h.sX5 G C.i.3 N M ,.0.$Xt.P { { oXoX0X*.l e > : j k.< K a.>Xs.rXrX,.c f ",
"w =.S.+XV.:.s , ; * t C h.,X,X/.)./.f.p -.- d L w.-.gX=X:X=X:XXXf.i t e j *.h j a g ` V.i.0.c.#.z h ",
"+ F.2.,.B.#.y ; Z.;.W A N 1X'.d././.q.9Xf., O $.w.V.+XsX%X$XV.0.b.C X ~ ;.+X- z y j f n.w.e.w.tXX.X.",
"l.@ z.z.:.^ > z >.HX+X' A N ~.]./.,X,X>Xg.@ : ;.>.C.qXsXXXV.e._ Z . ~ ` _ $Xf.z.$.h % h ;.>.-.,.N.X.",
"v + =.1.m.g ; <.+XrX$XOXM X N `.).<XuXg.9X- ^ w.g.XXOX` i J W C & ( 0..X@X#Xf.<.$.M.*.( l.:.>.f.h X.",
"X.o.O o.< %.t s f.9XOXj.XX9.' o 0.h.i.G e.` G tX  v.i.0.~ C C e $.-.t.oXp.f.z  .o.=.=.X.( z.=.1.<.X.",
"=.*.X., @.-.:.3X* q.j.B.Z.j.m.q.t.1 4 dX[ 0.p.C.B.Q 2 G ' 2 &.F.B.@XY.XXj.! , ; :.+.:.q.n.> =.<.<.<.",
"<.*.*., +.,Xd.d.a.O  .m.>.f.n.1.qXN V @X$Xt.t.oX9XC.* c.E *.z.&.XX.X@Xj.d =.L 5.+.s.>Xs.Y 5 n.1.z.1.",
"! >.=., /.d.d.d.(.8.- 0X2.1.1./ 0 4 U $X@X@X;Xt.i.C.! > w y u C.j..XOX^  .R 5.5.s.s.d.<Xy.B 2 # ! Q ",
"~ W ! 2 uX6X'.s.8.8.h.2 g.j ! N / Q M $X@XI.Y.I gXf.y r O y / ` r.XX/ $.y 6X2X(.1X'.P I 9.I ' ` Q e ",
"3 X & o & Z V V m 4 2 # & N W C 8 W P @X*X;Xm '.'.hXd f ` y x a / d 9 c i D P I L R R H 8 ; > = = 3 ",
"e j ~ & 8 4 N 7 M 4 1 # X u.[ 4.` 4 U R.pX&X_.'.<X,XG , @.K R p %.y z h ^ b.` Q G G q G E E w f ! ' ",
"y g z N @.3.].T 5.8.(.H 2 R ] T T _ _ { *X7.|.'.<XR G ( @.5./.H @.j d h L 0.L t.} } i.` 0.,.w o., M.",
"h ; %.G >XE.|.Q.!.8.L.I 1 ] 8.E.` ) 1 U T.T.'.Q.R 6 $.$.K O.5.5./.2 $.h ` ` y.t.r.r.| p.v.e.> $., X.",
"F.g h K E.8XBX}.}.nXP B 4 [ 8.8.R Q J U m _.'.3.6 h ^ ^ - 9.5.+.K ! ;.( e.$XP.T.T.{ yXY.I i.s X.z.=.",
"0Xr l T Q.NXbX XJ. X|.P N P 6.r.0._ w.Q ) P 8.U p #.>.^ < @.3.h.8 < ( J U r.*XT.K.lXfXCXY..XG r X.0X",
"9Xy j h.L.-XGXbXmXQ.|.B b 1 B Y i Q j.Q 2 J Y 5 -.i.j.` ^ +.q.8.t p l J e.{ T.lX{.VXCX:X.X.X_ > z wX",
"9X%.k 8.`.L.SXkX[. X XB 4 N U Y Q Q V.,.s j = >.$X0.i./ c < 9.# 9 j h / u.r.P.R.lXVXCX=Xr.I._ e %.wX",
"tX..> D _.FXSXSX[.}.|.1 W 8 F H / M c.2.#.^ q R ^.u.H E =.s R ;.& y p G e.r.J.L.;XlXVXfXr..X_ t =.0X",
"D.n.; y.L.SXSXSX[. XL.b # j : = ;.7 c.S.z ; L XXXXqX` k #.E q Q # a ^ q -.t.T.{ ;X&XZXfXP.I._ G  .0X",
"D.N.* 8.6.SXSXzX}. XB 3 E k % ; / 0 >.O < $.f.j.v.B.;.h =.x 7 * H Y D # t.0.Y.P.;XxXVXVXI.I.) j 2.9X",
"wXd ; y.L.SXH.SX[.Q.F 3 0.! l v ! 5 d % l eXV.j.V.m.l.l &., x F T ).S G N u.} P.-X&X*XVXP.P._ s N.9X",
"wXp % s.E.L.}. XL.] 8 b.f.1.g   ;.9 % ( 2.#.0.+X+Xz.*.f N.< * K 5.3.R Y & R t.P *X{.;XpX{ I.9.s S.9X",
"tXz % 8.P iXcXBXQ.F 9 k 1.f./ w ;.= 8 2.C.i.n.w.N.,.z y h ; 5 5.5.5.K [ 0 9 R I.Y.pX;XpXR.I.U 7 N.D.",
"wXk e q.8.5X!.].P 7 E ;.f.D.1.t > = * 1.g.w.K f.1.h X., y $ @.a.5.y.R R I & J R y.P.=XfX| I.} = 1.wX",
"0Xk r i >X<XE.4.5 8 ;.V.9XD.2.j 3 X ;.1.n.w.j.F./ N.=.w p - @.s.d.i 8.D m M q J r.XX@X[ I.U _ E z D.",
"#.p , R +.O.hX3.2 r m.g.HXC.N.:.3 & / 1.j.i ,.w.k G.&.y x H a./.s.@.4.3.U m # G U 9.i.u.u._ N C./ S.",
"c > ; i 5.d.5.q.e +X9X).gX9Xf.C.N X ! f.f.d ,.;.y X.#.d c Y a.W.d.uX] L.] S S 7 ! -.L j.9.b t < ; %.",
"c = l 9 3.q.+.s = 0.tXj.yXgXg.1.x.o / f.,.u #.x X. ...@ L K d.d.8.<X~.6.4.I n # s s 0Xf.W * % d ; X.",
"$.w l ; R i :.0 C j.qXq.CXyXq.q.) & ;.:.=.l.*.> <.o.; =.i 3.a.1X4.6XAXY 8.R n S r g $.+Xe %.l.d f f ",
"f l z w w q.H * _ 9X#XfXCXyXwXh.) 3 _ ,.Z.l.v N.z.@ w &.R i d.W.'.6.uXW.4.7.B n - r p 8 : g S.h X.k."
};
