/* XPM */
static char *result[] = {
/* columns rows colors chars-per-pixel */
"50 50 200 2 ",
"   c #020102",
".  c #070508",
"X  c #080709",
"o  c #0C0A0C",
"O  c #090707",
"+  c #110D0F",
"@  c #0F0D11",
"#  c #110E12",
"$  c #141114",
"%  c #191516",
"&  c #1A161A",
"*  c #1D191D",
"=  c #191617",
"-  c #221E1E",
";  c #1F1A20",
":  c #231E24",
">  c #281F29",
",  c #272124",
"<  c #2A2526",
"1  c #2C252B",
"2  c #2F282F",
"3  c #26202B",
"4  c #322B2D",
"5  c #2F2730",
"6  c #342C34",
"7  c #372E38",
"8  c #3B3235",
"9  c #373039",
"0  c #3C343B",
"q  c #3F383D",
"w  c #42363B",
"e  c #423A3E",
"r  c #4A3F3E",
"t  c #3F4638",
"y  c #3E5F3F",
"u  c #444C3A",
"i  c #4C453D",
"p  c #4A533E",
"a  c #41573E",
"s  c #403741",
"d  c #443B43",
"f  c #483E43",
"g  c #473E48",
"h  c #4C4345",
"j  c #4D4349",
"k  c #524545",
"l  c #554C47",
"z  c #51464A",
"x  c #554A4C",
"c  c #5A4D4C",
"v  c #4F5D41",
"b  c #525D44",
"n  c #5D514D",
"m  c #535241",
"M  c #5A4E52",
"N  c #554B50",
"B  c #5D5252",
"V  c #62544D",
"C  c #615555",
"Z  c #655B54",
"A  c #6C5D54",
"S  c #645759",
"D  c #665959",
"F  c #6A5D5C",
"G  c #4A6D4B",
"H  c #496A45",
"J  c #516246",
"K  c #546C4C",
"L  c #5C6A4D",
"P  c #556748",
"I  c #4D7746",
"U  c #477848",
"Y  c #4A744A",
"T  c #55764D",
"R  c #59724B",
"E  c #5B7A4E",
"W  c #53794D",
"Q  c #596E57",
"!  c #4D7951",
"~  c #567C53",
"^  c #597C52",
"/  c #587455",
"(  c #60714B",
")  c #6E615E",
"_  c #666150",
"`  c #72645C",
"'  c #766A5D",
"]  c #78695F",
"[  c #637151",
"{  c #73725F",
"}  c #6D5F60",
"|  c #736561",
" . c #766963",
".. c #7B6D64",
"X. c #7C6E69",
"o. c #7E7167",
"O. c #7F7169",
"+. c #777761",
"@. c #817267",
"#. c #83746A",
"$. c #86786D",
"%. c #897A6E",
"&. c #8A7C71",
"*. c #877771",
"=. c #2A9F3C",
"-. c #2CA33C",
";. c #33A43D",
":. c #35A93D",
">. c #35B33E",
",. c #37BB3F",
"<. c #38BD3F",
"1. c #338E41",
"2. c #329241",
"3. c #389642",
"4. c #329941",
"5. c #3A9B42",
"6. c #3B9A4A",
"7. c #35A641",
"8. c #36AC41",
"9. c #3CAC42",
"0. c #3EA642",
"q. c #37B441",
"w. c #38B441",
"e. c #3ABE41",
"r. c #36B840",
"t. c #4A8446",
"y. c #4B8A4C",
"u. c #53864F",
"i. c #4B954E",
"p. c #47974E",
"a. c #4F8952",
"s. c #528552",
"d. c #5B8353",
"f. c #5F8F59",
"g. c #549654",
"h. c #549C52",
"j. c #5E995C",
"k. c #5B9857",
"l. c #628B4C",
"z. c #628455",
"x. c #678F5B",
"c. c #6B925F",
"v. c #659B5C",
"b. c #639850",
"n. c #42A544",
"m. c #42AB45",
"M. c #49AD44",
"N. c #44A34C",
"B. c #4EA34E",
"V. c #49AF4B",
"C. c #42B544",
"Z. c #41BB46",
"A. c #44B54A",
"S. c #49B24D",
"D. c #43BB49",
"F. c #4AB64A",
"G. c #51BA45",
"H. c #53BD4C",
"J. c #4DAC51",
"K. c #4FA650",
"L. c #53A553",
"P. c #5EA457",
"I. c #54AC54",
"U. c #5AAC54",
"Y. c #5CA45B",
"T. c #4DB551",
"R. c #51B253",
"E. c #5BB35F",
"W. c #61AD55",
"Q. c #66A35A",
"!. c #6DB958",
"~. c #6B9660",
"^. c #6F9961",
"/. c #729B62",
"(. c #5AB060",
"). c #67A661",
"_. c #3CC040",
"`. c #43C442",
"'. c #49C744",
"]. c #4BC944",
"[. c #44C14A",
"{. c #57C447",
"}. c #52CC45",
"|. c #5CCB48",
" X c #56C64A",
".X c #56D046",
"XX c #5BD347",
"oX c #57D148",
"OX c #5ED549",
"+X c #4DC453",
"@X c #61CE49",
"#X c #63D54A",
"$X c #64DA4A",
"%X c #6ADD4B",
"&X c #65CD51",
"*X c #65D651",
"=X c #6BDA53",
"-X c #6DE14B",
";X c #75E355",
":X c #918175",
/* pixels */
"e.e.e.e.e.e.e.e.e.e.e.e.e.e.e.e.e.e.e.e.e.e.e.e.e.e.e.e._.e.e.e.e.e.e.e.e.e.e.e.e.e.e.e.e.e.e.e.e.e.",
"[.e.e.e.e.e.e.e.e.e.e.e.e.e._.<.e.e.<.<.e.e.e.e.e.e.e.e.e.e.e.e.e.e.e.e.e.e.e.e.e.e.e.e.e.e.e.e.e.e.",
"[.e.e.e.e.e.e.e.e.e.e.e.e._.e.e.e.e._.e.e.e.e.e.e.e.e.e.e.e.e.e.e.e.e.e.e.e.e._.e.e.e.e._._.e.e.e.e.",
"[.e.e.e.e.e.e.e.e.e.e.e.e.e.e.e.e.e.e.e.e.e.e.e.e.e.e.e.e.e.e.e.e.e.e.e.e.e.e.e.e._.<.'.}._.e.e.e.e.",
"[.e.e.e.e.e.e.e.e.e.e.e.e.e.e.e.e.e.e.e.e.e.e.e.e.e.e.e.e.e.e.e.e.e.e.e.e.e.e.e.e.e._.oX$X].e.e.e.e.",
"}.]._.e.e.e.e.e.e.e.e.e.e.e.e.e.e.e.e.e.e.e.e.e.e.e.e.e.e.e.e.e.e.e.e.e.e.e.e.e.e.e._.'.oX'.e.e.e.e.",
"*XOX`.<.e.e.e.e.e.e.e.e.e.e.e.e.e.e.e.e.D.I.R.R.R.R.R.I.J.e.e.e.<.e.e.e.e.e.e.e.e.e.e.e._.e.e.e.e.e.",
"=X=X.X'._._.`.'.`.e.e._.e.e.e.e.e.e.e.e.I.z.~././.~.~.x.h.H.]._.e.e.e.e.e.e.e.e.e.e.e.e.e.e.e.e.e.e.",
"*X-X$XOX`._.XXOX].e.e.e._.e.e.e.e.e.e.I.P A ` ` ` ` ` ` ( Q.#X`.<.e.e.e.e.e.e.e.e.e.e.e.e.e.e.e.e.e.",
"=X%X-X$X}.].$X%X]._.e.e.<.Z.e.e.e.e.e.Y.V #.#.#.#.#.O.$.] l.#X`.e.e.e.e.e.e.e.e._.e.e.e.e.e.e.e.e._.",
"=X%X-X-X$X$X-X$X].e.e.e.Z.L.).Q.T.e.e.L.A @.#.o.X.X.o.#.' b.#X`.r.Y.).Q.R.e.e.e.e.e.e.e.e.e.e._.e.e.",
";X$X|.|.%X%X@X{.D.e.e.e.h.L ` Z d.).Y.G l ' #.#.@.#.#.#.Z P b.Q.v.A A A L I.e.e.e.e.e.e.e.e.e.e.e.e.",
";X#Xn.n.#X#XM.5.w.e.F.h.[ X...o.O.` V h 0 x ..#.o.#.#.F d e c ) ' o.o.X...L I.e.e.e.e.e.e.e.e.e.e.e.",
"&XG.3.3.G.{.0.4.8.e.U.b #.#.O.o.O.O.o.F 0 s F | | | | N 7 j ' @.X.O.@.#.%.A T C.e.e.e.e.e.e.e.e.e.e.",
"N.5.1.1.3.5.8.r.e.e.Y.i ] #.#.o.O.#.#.A h f z C C C n h f x ..$.#.o.O.#.#.n s.C.e.e.e.e.e.e.e.e.e.e.",
"6.2.2.4.2.4.w._.e.e.D.a.l | ..#.#.O.| D Z 8 * 4 8 8 , : l F F ..#.#.o. .Z I J.e.e.e.e.e.e.e.e.e.e.e.",
"A.r.r.r.q.r.r.e.e.e.e.D.s.f Z | X.| Z D S 6 .         $ j F C )  .X.` x H J.e.e.e.e.e.e.e.e.e.e.e.e.",
"[.e.e.<.e._._.e.e.e._.e.(.> w x B F } C 8 2 6 *     5 6 2 h F } Z c h 2 ! e.e._.e.e.e.e.e.e.e.e.e.e.",
"[.e.<.<.e.e.e.e.e.e.e.e.(.6 8 h z i h 6 . ; g 1   X s 0 X = f h k z s 2 a.e.Z._.e.e.e.e.e.e.e.e.e.e.",
"[._.`.`.e.e.e.e.e.e.R.g.c.|  ...x = . .   * d :   . 9 9 X   . . 6 F ..` x.k.L.F.e.e.e.e.e._.`._.e.e.",
"[.`.oX.X`.e.e.e.e.T.T A ..%.%.%...8     . : d 1 X + s 9 @     % B $.%.%.#.' R h.D.e.<.e.<.}.XX].e.e.",
"D.`.OX%X'.<.e.e.e.v.c #.o.o.o.#.&.B # $ 1 6 h z i h z e 6 , . 2  .&.o.X.o.#.` E C._.`.<.<..X%XoX_._.",
"_.`.$X$X].<.e.e.<.j.V #.#.@.@.#.$.x o : g 0 0 j x x d 0 d 0 o < | %.o.o.o.#.' ~ C.}.XX`._..X-X%XXX'.",
"[.`.|.OX`.e.e.e.e.J.P ..%.#.$.#.X.x $ X & 2 s 2 $ & 9 9 , %   4 ) O.#.$.$.%.Z W A.XX%X}.`..X$X-X%XoX",
"[.e.m.m.w.e.e.e.e.e.x.M ) ` | ) F f o     ; s ;     7 7 X     < M ) ) ) ` D T J.`.OX%X$XXX$X%X-X-X$X",
"[.q.4.4.w._._.e.e.e.a.8 e s h e 4 &       * d :   . 9 7 X     o , 8 h d d 6 U e.`.}.#X%X%X%X%X#X#X$X",
"[.e.8.8.r.e.e.e.D.i.a h j j j 6 X   o # @ 4 z 0 * < h f * o #     & f z h 8 Y T.Z.m.M.|.-X-X%X{.M.{.",
"[._.e.e.e.e.e.D.B.E ' o.o.o.o.C 1 . 1 d 0 h x M B M N z d s s % @ h | o.o...o.+.d.p.3.G.$X%X#XM.2.S.",
"D.e.e.e.e.e.e.L.E @.$.#.#.#.%.*.h X * 9 6 9 0 0 7 9 0 0 6 6 6 o - ) &.#.#.#.@.o.` W V.9.M.M.M.5.1.5.",
"[.e.e.e.e.e._.d.c *.#.#.#.#.$.*.x o . X X : s , . o 7 7 # . .   < | &.#.#.#.#.%.' p J.7.2.1.2.1.2.1.",
"[.e.e.e.e.e.e.L.p ` $.@.o.#...| z o       & d *     7 6 .       < D  .@.@.O.#.o.L t.T.w.7.7.7.7.7.7.",
"[.e.e.e.e.e.e.e.B.v C C C C C c 6         : g <   o e 9 o       & f C C C C Z K y.N.e.e.e.e.e.e.e.e.",
"[.e.e.e.e.e.e.e.D.s.2 9 0 0 g 6 o   * 1 : 0 B h q i N z 5 : 3 @   : e s 0 q 6 y m.e.e.<._.<._.<._._.",
"[.e.e.e.e.e.e.e.e.j.e n B C B e o . 6 j f d j j x z j h d d g &   : z C B C i G A.e.e.e.e.e.e._.e.e.",
"[.e.e.e.e.e.e.e.e.f.| #.#.%.#.| 0 O # * = 1 s 1 $ * 9 9 * = * O & N O.$.#.#...z.V.Z.e.e.e.e.e.e.e.e.",
"[._.e.e.e.e.e.e.j.Z %.&.$.*.&.&.c X       1 s 3 X # 9 0 %       1 X.:X%.%.%.%.{ d.m.e.e.e.e.e.e.e.e.",
"[.e.e.e.e.e.e.e.g.l | ] ` | ..#.d   . & 6 s 7 6 9 0 9 0 6 : $   * F #.| | | ..A J 9.e.e.e.e._.e.e.e.",
"[.e.e.e.e.e.e.e.A.t.u r x D D d = % 6 S  .j > 6 M B 6 5 d C z 3 o 2 M S S C f u g.Z.e.e.e.e.e.e.e.e.",
"[.e.e.e.e.e.e._.e.V.P.Q.~ t 6 $ = h | %.&.C 0 z  ...h q B *.O.D 4 X : e 8 u u.L.D._.e.e.e.e.e.e.e.e.",
"[.e.e.e.e.e.e.e.<.e.Z.e.A.u.! Y u C X.@.#.X. ...O.O. . .O.O.O. .P H ! s.G g.A.e.e._.e.e.e.e.e.e.e.e.",
"[.e.e.e.e.e.e.e.e.e.e.<.Z.A.Z.A.i.m h x l c V c l l c n c l c i U m.D.A.w.e.e.e.e._.e.e.e.e.e.e.e.e.",
"[.e.e.e.e.e.e.e.e.e.e.e.<.<.e.<.A.g.K Q / ^ ^ z.z.^ ^ ^ [ z.z.W I.e.e.e.e.e.e.e.e.e.e.e.e.e.e.e.e.e.",
"[.e.e.e.e.e.e.e.e.e.e.e.e.e.e.e.`.T.i.y.i.L.U.W.W.U.R.K.U.!.!.L.D.e.e.e.e.e.e.e.e.e.e.e.e.e._.e.e.e.",
"[.e.e.e.e._.e.e.e.e.e.e.e.e.e.e.e.e.e.,.r.e.>.-.C.#XXX_.'.$XOX`.e.e.e.e.e.e.e.e.e.e.e.e.e.e.e.e.e.e.",
"[.e.e.e.e.e.e.e.e.e.e.e.e.e.e.e.e.e._._.<.<.>.-.C.#X#X_.`.$XOX`.e.e.e.e.e.e.e.e.e.e.e.e.e.e.e.e.e.`.",
"[.e.e.e.e.e.e.e.e.e.e.e.<.e.e.e.e.e.e.e.e.<.,.,.'.%XOX`.'.$X$X`.r.e.e.e.e.e.e.e.e.e.e.e.e.e.e.e.e.}.",
"[.e.e.e.e._.e.e.e.e.e.e.e.e.e.e.e.e.e.e.e.e.<._.`.|.}.<.`.{.}._.e.e.e.e.e.e.e.e.e.e.e.e.e.e.e.e.e.].",
"[.e.e.e.e.e.e.e.e.e.e._.e.e.e.e.e.e.e.e.e.e._.<.>.;.:.<.r.7.7.r._.e.e.e.e.e._.e.e.e.e.e.e.e.e.e.e._.",
"e._.e.e.e.e.e.e.e.e.e.e.e.e.e.e.e.e.e.e.e.e._.e.q.=.7.e.q.-.7.r._.e.e.e.e.e.e.e.e.e.e.e.e.e.e.e.e.e.",
"+X[.[.[.[.[.[.[.[.[.[.[.[.[.[.[.[.[.[.[.[.[.[.[.D.e.e.D.D.e.D.D.[.[.[.[.[.[.[.[.[.[.[.[.[.[.[.[.[.[."
};
