/* XPM */
static char *aa5d2b5c2a144260df8c8e7c302ac788UbOWUwtPotLrDWAI[] = {
/* columns rows colors chars-per-pixel */
"50 50 253 2 ",
"   c #000000",
".  c #0B0000",
"X  c #010B01",
"o  c #04030B",
"O  c #160605",
"+  c #031400",
"@  c #06190A",
"#  c #061B05",
"$  c #191906",
"%  c #0D1316",
"&  c #250603",
"*  c #30140C",
"=  c #022805",
"-  c #013301",
";  c #043905",
":  c #182818",
">  c #18351B",
",  c #112F09",
"<  c #292B19",
"1  c #26391A",
"2  c #33300F",
"3  c #0F1126",
"4  c #172E2C",
"5  c #302F2D",
"6  c #201225",
"7  c #551202",
"8  c #4E130C",
"9  c #661705",
"0  c #731D1A",
"q  c #492502",
"w  c #5B2803",
"e  c #492E0F",
"r  c #6A3313",
"t  c #59042A",
"y  c #482B27",
"u  c #51322B",
"i  c #6B322A",
"p  c #004201",
"a  c #044806",
"s  c #075703",
"d  c #064617",
"f  c #075615",
"g  c #154F0D",
"h  c #35401C",
"j  c #2B4C1A",
"k  c #056501",
"l  c #176703",
"z  c #036718",
"x  c #017D1B",
"c  c #147313",
"v  c #256E14",
"b  c #184C22",
"n  c #155622",
"m  c #055128",
"M  c #274626",
"N  c #2E5434",
"B  c #186527",
"V  c #057726",
"C  c #177829",
"Z  c #177A36",
"A  c #016E31",
"S  c #257725",
"D  c #36673C",
"F  c #277A38",
"G  c #327133",
"H  c #6B5B04",
"J  c #5B670B",
"K  c #696A05",
"L  c #7B6709",
"P  c #534E35",
"I  c #734B33",
"U  c #517433",
"Y  c #6C5D21",
"T  c #1B2C46",
"R  c #332971",
"E  c #6B324F",
"W  c #413857",
"Q  c #394C4A",
"!  c #0F7149",
"~  c #31714A",
"^  c #175447",
"/  c #564C50",
"(  c #6F5451",
")  c #4B7647",
"_  c #6E6C4D",
"`  c #494E6E",
"'  c #6B6077",
"]  c #93550F",
"[  c #8F6C0E",
"{  c #AB6A0C",
"}  c #896D35",
"|  c #AF7824",
" . c #92552F",
".. c #C87D35",
"X. c #947C52",
"o. c #A87857",
"O. c #B4796C",
"+. c #8D6B64",
"@. c #028703",
"#. c #009600",
"$. c #008817",
"%. c #0E9611",
"&. c #309215",
"*. c #0AA410",
"=. c #2BA800",
"-. c #37A802",
";. c #36AA1B",
":. c #31B30E",
">. c #038525",
",. c #078C36",
"<. c #2F9031",
"1. c #3AA42C",
"2. c #2DA33C",
"3. c #34A73B",
"4. c #35B53F",
"5. c #38BD3E",
"6. c #37B939",
"7. c #34B432",
"8. c #4E900E",
"9. c #44AC07",
"0. c #5AA800",
"q. c #4EAF10",
"w. c #6AAF0A",
"e. c #4C8F28",
"r. c #49B627",
"t. c #4EAE2E",
"y. c #72A631",
"u. c #6E9028",
"i. c #75D201",
"p. c #6AD717",
"a. c #018F44",
"s. c #328E40",
"d. c #3E8A42",
"f. c #359341",
"g. c #349D41",
"h. c #3A9944",
"j. c #34A341",
"k. c #36AD40",
"l. c #3AA743",
"z. c #3ABE41",
"x. c #38B741",
"c. c #29B24B",
"v. c #08A448",
"b. c #559958",
"n. c #4A8D4D",
"m. c #6F9846",
"M. c #44A844",
"N. c #42BD49",
"B. c #47BA45",
"V. c #53BB47",
"C. c #55A759",
"Z. c #4CBE52",
"A. c #4FBD59",
"S. c #56B959",
"D. c #66A558",
"F. c #69B95A",
"G. c #7BBD58",
"H. c #53AC6F",
"J. c #67A178",
"K. c #3CC141",
"L. c #44C443",
"P. c #4CCA44",
"I. c #45C14B",
"U. c #4BC44D",
"Y. c #4CC545",
"T. c #52CC46",
"R. c #57C648",
"E. c #5DD548",
"W. c #59D247",
"Q. c #4DC252",
"!. c #56C456",
"~. c #5BD050",
"^. c #61CF49",
"/. c #62D649",
"(. c #64DA4A",
"). c #6ADD4B",
"_. c #67C35B",
"`. c #6CDA53",
"'. c #77DF57",
"]. c #6DE14B",
"[. c #76CB63",
"{. c #B8AA00",
"}. c #B19039",
"|. c #B5B32E",
" X c #96972C",
".X c #CDB704",
"XX c #D7BA02",
"oX c #C8AD12",
"OX c #E2B100",
"+X c #CA9B31",
"@X c #CFAC39",
"#X c #D3A11A",
"$X c #89CC02",
"%X c #A7DA0E",
"&X c #D9C500",
"*X c #DBC41C",
"=X c #E9C500",
"-X c #EED508",
";X c #D8F000",
":X c #F5E700",
">X c #FEFE00",
",X c #F8F802",
"<X c #F2ED0F",
"1X c #F1D034",
"2X c #FEFD2A",
"3X c #F7F32E",
"4X c #DBC423",
"5X c #948D4D",
"6X c #AF8A54",
"7X c #B1A84D",
"8X c #B49A73",
"9X c #99AE6B",
"0X c #D09A48",
"qX c #D7AC4C",
"wX c #EBB34E",
"eX c #C59568",
"rX c #D2A676",
"tX c #EFAA67",
"yX c #BCCD69",
"uX c #F4CC4E",
"iX c #FDFB44",
"pX c #CFD674",
"aX c #E1DB60",
"sX c #311288",
"dX c #55658B",
"fX c #9E7E93",
"gX c #8A7CC0",
"hX c #7FB9BC",
"jX c #289AE5",
"kX c #94AD96",
"lX c #B2B08E",
"zX c #A7BAA8",
"xX c #9B90A9",
"cX c #DCB88E",
"vX c #F2B18A",
"bX c #D3BDA4",
"nX c #B8C7B5",
"mX c #D7CB8C",
"MX c #EDD594",
"NX c #D3C9AD",
"BX c #E7D9A6",
"VX c #F2EBAF",
"CX c #E6FA8F",
"ZX c #A1A8C7",
"AX c #C2B0D1",
"SX c #B3D5CA",
"DX c #F8D9C9",
"FX c #FFF6C8",
"GX c #FAFBD9",
"HX c #F8ECD3",
"JX c #FFFBEB",
"KX c #FFFFFE",
"LX c #CED5CC",
/* pixels */
"z.z.z.z.z.z.z.z.z.z.z.z.z.c.k.k.K.z.k.k.x.K.K.z.z.z.z.z.z.z.z.z.z.z.z.z.z.z.z.z.z.z.z.z.z.z.x.4.x.x.",
"z.z.z.z.z.z.z.z.z.z.z.K.K.K.z.z.z.z.K.K.z.z.z.z.z.z.z.z.z.z.z.z.z.z.z.z.z.z.z.z.z.z.z.z.z.z.z.z.z.I.",
"z.z.z.z.z.z.z.z.z.z.z.z.K.z.K.K.z.z.K.z.z.z.K.K.z.z.z.z.z.z.z.z.z.z.z.5.z.z.z.z.z.z.z.z.z.z.z.z.z.I.",
"z.z.z.z.z.K.z.z.z.z.z.z.z.z.z.z.z.z.z.z.z.K.K.L.z.z.K.z.z.z.K.z.z.z.z.5.z.z.z.z.z.z.K.K.z.z.z.z.z.I.",
"z.z.z.z.z.z.z.z.z.z.z.z.z.z.K.K.z.z.z.z.n.<.t.r.t.V.Q.h.m v G U U n.D.Z.z.5.z.z.z.5.P.W.L.z.z.z.z.I.",
"K.z.5.z.z.z.z.z.z.z.z.z.z.z.K.K.Q.K.I.!.F l =.=.=.&.e.v d l 8.J H [ | 9XU.B.N.z.z.K.W.(.T.z.z.z.z.I.",
"T.P.K.z.z.z.z.z.z.z.z.z.z.z.K.K.M.V ,.Z t.9.-.=.r.e., l :.i.;X;X,X=XOXwXtXO.m.z.z.z.L.P.L.z.z.z.z.I.",
"(.E.L.z.z.z.z.z.z.K.z.z.K.Q.I.Q.g.k @.c <.1.;.7.2.S p v 5X|.3X>X2X-XXX=X@X}.X.^.L.z.z.z.z.z.z.z.z.I.",
"(.(.E.P.z.K.T.T.K.z.z.z.C.- ^ ~ t.;.=.;.;.;.t.<.; z t.5XrX@X.X&XOX3X3X<X3XuX0X Xm.5.K.6.z.z.z.z.z.I.",
"/.).).W.L.L.(.E.L.K.N.Q.n.- A A <.9.-.-.-.=.r.<.- k :. XwX1X1X@X#XwX<X:X:X:X&X{. X_.R.K.z.z.z.z.z.I.",
"(.].].(.W.E.].E.K.6.C.+ B G >.>.1.t.t.t.r.9.t.e.; l %.$X2X>X3XoX] +XuXOX.X-X2X>XiX5X_ P.K.z.z.z.z.I.",
").).).(.).].).E.U.S.n.- B F @.#.&.<.G <.c &.e.U ; n j.i.,X>X>X&X{ ....0X4X-X:X>X,X X5XI.z.z.z.z.z.I.",
"]./.B.V.`./.V.M.b.  @ p A >.c l v v d - - a S.n.- f <.w..X;XiX*X] i 9 O.vXqXXX>XiXX.m.B.z.z.z.z.z.I.",
").V.h.M./.R.h.g.b.  , z V >.c S c C z f v c S F B &.i.|.0X*XoX@XeXO.+.O.eX0XoX.XoXF.F.z.z.z.z.z.z.I.",
"B.M.<.d.M.M.l.3.b.  b ~ x $.A ! >.>.>.$.V.e.p s 8.%X>X1XtX#X[ 6XbXbXMX7X X{  .9 7 !.z.z.z.z.z.z.z.I.",
"s.s.s.s.d.j.z.z.C.  b <.x x V a.$.$.x C <.&.a a v w.,X-XtX+X6XcXDXNXpXY 2 F.F.S.S.z.z.z.z.z.z.z.z.I.",
"j.j.j.j.j.k.z.K.C.  b C V $.V C *.#.S S C V a m f -.>X:X0XqXcXDXKXHXmXe X _.z.z.z.z.z.z.z.z.z.z.z.I.",
"z.z.K.z.z.z.Z.b.D = m Z $.$.Z V #.$.m 1 j k m ! 9X}.|.&X:XaXMXlX( X.5X2   Z.z.z.z.z.z.z.z.z.z.z.z.I.",
"K.K.K.z.K.z.C.  # d B <.x x ! Z %.l ; X + p f ) MXtXH {.>XaXHX_ . $ P &   A.K.z.z.z.K.z.z.z.z.z.z.I.",
"z.z.z.z.z.z.C.  = d n C x $.A m g g hXzXkX9X9Xy.] { eXoX.XaXFXbXxX' W ' +.n.b.Q.z.z.z.z.z.z.z.K.z.I.",
"z.K.P.P.z.z.C.  + b n S V $.g , $ 2 VXKXJXGXBXrX9 ] 1X+X} 7XFXJXKXxXsXZXFXO   S.z.z.z.z.L.P.L.z.z.I.",
"z.L.(.E.K.z.N.Z.n.o n ~ z k = . & $  XpXVXHXDXvX0 ] ,X@Xr 6XFXJXKXgXsXZXCX<   Z.z.z.z.K.W.(.T.K.z.I.",
"K.P.).E.K.z.z.z.C.  M D f p % % o + K }.MXGXGXnX9 [ >X@Xt O.FXHXKXgXR xXaX5 : Z.I.P.L.K.W.).E.T.I.I.",
"K.P.(.E.K.z.z.z.C.  > j # X kXAX3 X $ w 6XkXhXhX5XXX>X#X8 6XFXHXJXLXAX( $ S.Z.K.W.(.P.K.T.).].(.P.I.",
"z.z.V.B.z.z.z.z.b.@ : > X @ ~.P.5 o O & [ J.jXjXnX-X,X.X9 o.VXVXVXVXmXP + U.5.z.E.).E.T.E.).].).E.~.",
"z.k.f.j.x.K.z.z.z.Q.D X C.!.(.`.:X=XqX6XO % 4 N 3X-X] }.yXpXBXBXCX_ 6 b.B.z.z.L.T.).).).).).).`.(.'.",
"z.x.j.j.x.z.z.z.z.z.b.: U.L.).'.;X:XwX7XX     2 >XOXt I pXcXlXlXlXy   C.4.x.x.5.B.V./.).].).R.V.E.'.",
"z.z.x.z.K.z.z.z.z.z.x.L.5.L.(.(.B o 3 # >.V X 0 3X{.  # j h 5 6 6 o . 1 T Z.z.x.3.h.V.).].).V.s.V.`.",
"z.5.K.K.z.z.z.z.z.z.z.z.K.L.(./.F M / N ~ B o e yXm.  # a ; ; # X o 3 o   D.I.z.l.3.M.V.R.V.M.s.M.S.",
"z.z.z.z.z.z.z.z.z.z.z.z.5.L.(./.U.Q.(.(.6     + ~ ^   - $.l a - X T ` / I * h Q.z.x.l.f.f.f.<.s.s.h.",
"z.z.z.z.z.z.z.z.z.z.z.z.z.K.V.Y.K.B.Y.!.X   1 v V d & ; $.B b : 3 T Q / ( .   A.z.z.k.2.g.g.j.j.g.l.",
"z.z.z.z.z.K.z.z.z.z.z.z.K.4.2.3.x.k.N @   5 KXLXk n ] G >.A D ~ N @   y _ .   S.z.z.z.x.x.x.x.x.x.Z.",
"z.z.z.K.z.z.z.z.z.z.z.z.K.x.2.2.Z.S.>   @ Q LXSXH.) 0 B a.V v e.y.v < e u P b.Z.5.5.5.K.K.K.5.K.K.K.",
"z.z.z.z.z.K.z.z.z.z.z.z.z.z.z.z.N     X Q ` T dXKXzX. , a.S k p.CXi.0.,   A.B.4.z.z.z.z.K.z.z.z.z.I.",
"z.z.z.z.z.z.z.z.z.z.z.z.z.x.I.S.>   $ * / ` R dXAXfX& 1 Z v l 0.%Xi.9.g   A.z.z.z.5.K.z.z.z.K.z.z.I.",
"z.z.z.z.z.z.z.z.z.z.z.z.z.x.)   X X w I E E dX` o % I r r w H K 9.0.w.a   A.z.K.B.K.z.z.z.z.z.z.K.I.",
"z.z.z.K.z.z.z.z.z.K.P.L.K.z.~   * 2 } o.E i 5 4 # g U K [ H J U q.;.1.;   b.S.C.S.z.z.z.z.z.z.z.z.I.",
"z.z.z.z.z.z.z.z.z.L./.W.K.z.D   0 } BXBX} i o - $.#.9.w.0.q.t.2.K.a.! m   o     @ K.z.K.z.z.z.z.z.I.",
"z.z.z.z.z.z.z.z.z.L.W.W.L.5.D   0 u U _ 2 * > z *.*.-.;.;.q.r.;.2.A ; @   * q 2 < b.C.K.z.z.z.z.z.I.",
"z.z.z.z.z.z.z.z.z.z.L.K.z.z.D   y y X   X & D v.c.4.r.r.7.1.t.&.c ; o   O r ] ] I   @ z.z.z.z.z.z.I.",
"z.z.z.z.z.z.z.K.z.z.5.5.z.z.A.b.5 * : * O O > m N 1 h N d j M 5 6 5 5 8 7 w i E /   $ K.z.z.z.z.z.I.",
"z.z.z.z.z.z.z.z.z.z.z.z.z.z.z.z.< o 5 / O                   .   . 5 ( i w q e ( /   @ z.z.z.z.z.K.I.",
"z.z.z.z.z.z.z.z.z.z.z.z.z.z.z.z.!.C.M     1 _._.F.S.S.S.[.[._.) X * u u y y y * 1 C.S.z.z.z.z.z.K.I.",
"z.K.z.z.z.z.z.z.z.z.z.z.z.z.z.z.z.x.M     D j.l.W.E.L.K.E.(.P.C.  < y y y u y . % K.K.K.z.z.z.z.K.I.",
"z.z.z.z.z.z.z.z.z.z.z.z.z.z.z.z.z.K.Q.A.S.N.2.3.E.).L.z.E.(.P.z.S.) . . . . O D.Q.z.z.z.z.z.z.z.K.Q.",
"z.z.z.z.z.z.z.z.N.z.z.z.z.z.z.z.z.z.z.z.z.z.4.B./.).L.L./.(.P.z.z.b.        : U.z.z.z.z.z.z.z.z.P.`.",
"z.z.z.z.z.z.z.z.5.K.z.z.z.z.z.z.z.z.z.z.z.z.z.L.T.R.L.z.R.W.L.z.z.K.kXzXzXzXZ.z.z.z.z.z.z.z.z.z.P.`.",
"z.z.z.z.z.z.z.z.z.z.z.z.z.z.z.z.z.z.z.z.z.z.z.z.3.3.5.x.3.2.x.z.z.K.K.K.z.z.z.z.z.z.z.z.z.z.z.z.K.U.",
"z.z.z.z.z.z.z.z.K.z.z.z.z.z.z.z.z.z.z.z.z.z.K.x.j.2.k.x.2.2.x.z.z.K.z.z.z.z.z.z.z.z.z.z.z.z.z.z.z.z.",
"I.I.I.I.I.I.I.I.I.I.I.I.I.I.I.I.I.I.I.I.I.I.I.I.N.z.I.I.N.z.N.I.I.I.I.I.I.I.I.I.I.I.I.I.I.I.I.I.I.!."
};
