/* XPM */
static char *c53d5ff0df4f48eb8a7376f1050f1c83ElgnW7j9nkbmdLpi[] = {
/* columns rows colors chars-per-pixel */
"50 50 169 2 ",
"   c #328D3F",
".  c #279D36",
"X  c #2B9B3B",
"o  c #29A237",
"O  c #2CA33C",
"+  c #2EA83D",
"@  c #32A43C",
"#  c #3AA63E",
"$  c #33AB3D",
"%  c #2DBA36",
"&  c #34B33E",
"*  c #3AB43F",
"=  c #35BC3D",
"-  c #38BD3F",
";  c #39C03F",
":  c #328D40",
">  c #349341",
",  c #399742",
"<  c #349C41",
"1  c #3B9C43",
"2  c #3F9C4A",
"3  c #34A241",
"4  c #39A542",
"5  c #35A940",
"6  c #3BAD45",
"7  c #3DA14A",
"8  c #3FAC48",
"9  c #37B540",
"0  c #39B542",
"q  c #37BA40",
"w  c #3ABE41",
"e  c #3FB848",
"r  c #419E4B",
"t  c #4B9E54",
"y  c #42A343",
"u  c #43AF43",
"i  c #43A44D",
"p  c #40AD4A",
"a  c #41B440",
"s  c #4DB245",
"d  c #42BE42",
"f  c #4BBB44",
"g  c #40B04A",
"h  c #42BC49",
"j  c #52BC46",
"k  c #4DA256",
"l  c #55A35C",
"z  c #58A25F",
"x  c #5CAC61",
"c  c #62A768",
"v  c #65AB68",
"b  c #69AE6B",
"n  c #65B268",
"m  c #6EB26F",
"M  c #77B678",
"N  c #7CB57C",
"B  c #3CC040",
"V  c #44C442",
"C  c #4AC643",
"Z  c #4CCA44",
"A  c #44C14A",
"S  c #4AC54D",
"D  c #53C346",
"F  c #58C347",
"G  c #52CC46",
"H  c #59CC47",
"J  c #58C348",
"K  c #5AC348",
"L  c #5CC04F",
"P  c #5AC34B",
"I  c #56CD4E",
"U  c #55CC4E",
"Y  c #5CCB48",
"T  c #55D046",
"R  c #56D046",
"E  c #57D046",
"W  c #58D146",
"Q  c #59D347",
"!  c #5AD347",
"~  c #5BD247",
"^  c #5BD447",
"/  c #5AD247",
"(  c #5FD348",
")  c #5AD448",
"_  c #5DD548",
"`  c #5FD648",
"'  c #5DD548",
"]  c #5FD849",
"[  c #4DC252",
"{  c #4DC453",
"}  c #4EC452",
"|  c #50C654",
" . c #5ACB5C",
".. c #60CE49",
"X. c #61D14A",
"o. c #63D24B",
"O. c #64D24A",
"+. c #60D749",
"@. c #66D74A",
"#. c #62D949",
"$. c #63D94A",
"%. c #63DA4A",
"&. c #61D849",
"*. c #65D94A",
"=. c #64DA4A",
"-. c #65DB4A",
";. c #67DB4B",
":. c #66DA4A",
">. c #6ADB4B",
",. c #69D94B",
"<. c #68DD49",
"1. c #68DC4B",
"2. c #69DD4B",
"3. c #6ADD4B",
"4. c #6BDE4A",
"5. c #6ADE4B",
"6. c #69DE4B",
"7. c #6CDF4A",
"8. c #6ADD4C",
"9. c #6BDE4C",
"0. c #6BDF4C",
"q. c #6CDE4C",
"w. c #69DD4B",
"e. c #66D751",
"r. c #67D852",
"t. c #67D851",
"y. c #68D951",
"u. c #6BDB53",
"i. c #6FD953",
"p. c #68D952",
"a. c #72DE54",
"s. c #6DE04B",
"d. c #6EE14B",
"f. c #6EE44B",
"g. c #75E154",
"h. c #74E254",
"j. c #61CD62",
"k. c #68CF66",
"l. c #67C968",
"z. c #6ECB6D",
"x. c #69D067",
"c. c #6ED16B",
"v. c #71D26E",
"b. c #77D373",
"n. c #7AD376",
"m. c #82BB81",
"M. c #8CC687",
"N. c #8AD483",
"B. c #90D489",
"V. c #9CCB94",
"C. c #9ED894",
"Z. c #A5CD9C",
"A. c #A0D796",
"S. c #A2D199",
"D. c #A8D19D",
"F. c #A9DA9D",
"G. c #A3E497",
"H. c #ABE69E",
"J. c #ADE99F",
"K. c #ADD9A1",
"L. c #B1D7A5",
"P. c #B2DAA6",
"I. c #B7D8AA",
"U. c #C5E4B5",
"Y. c #C6EDB4",
"T. c #CAE7BA",
"R. c #CBECB9",
"E. c #C6F0B4",
"W. c #CDF1B9",
/* pixels */
"{ A A A A A A A A A A A A h 8 8 h h 8 8 e A A A A A A A A A A A A A A A A A A A A B A A B A e 6 e { ",
"w w w w w w w w w w w w w w w w w w w B w w w w w w w w w w w w w w w w w w w w e B e B w w e B w w ",
"A w w w w w w w w B w w w w w B w w B B B w w w w w w w w w w w w w w B w w w B w w B w w w B w w A ",
"A w w w w w w w w w w w w B w w w w w w w w w w w w B w w w w w w w w w w w w w w w w B w w w B w B ",
"h w w w w w w w w w w w w w w w w w w w w w w w w w w w w B w w w w w w w w w w w w V T V B w w e A ",
"A w w w w B w w w w w w w w w w w w B w w w w w w w w w w w e w w w w w w w w w q B T t.Z B B q B A ",
"U Z B w w w w w w w w w w w w B w w w w w w w w w w w w w w B B w w w w w w w w w B S Z V B q B B B ",
"r.] V w w w w w B w w w w w w w w w w w w w w w B w w w w w w w w w w w B w w w w w B B B B B q w { ",
"p.9.R C - w Z Z V w w w w w w w w w w w B B Z Z B w w w Z Z V B w w w w w w w w w B w q w w w w w { ",
"e.9.9.` V V ` &.V - w w w w w w w w w w w B ^ *.S w w B T &.Z w w w w w w w w w w q B w w w w w w B ",
"u.1.s.6.R G 9.*.V - w w w w w B w w w w w w f j S Z V B ) 6.Z B w w w w w w w w w w w w B w w w q { ",
"a.1.9.9.*.9.q.+.C - w w w w w w w w w w w w < 1 D %.Z B T 6.Z w w w w w w w w w w w w w w w w w e B ",
"h.*.F j >.>.K f w w w B w w w w w w w w B w 3 4 Y 1.Z w ) 1.Z w w w w w w w w w B w w w B w w w B B ",
"h...y 1 ..O.y > 0 B w w w w w w w w w w w w q B ^ ,.Z w ) ,.Z w w w w w w w w w q B w w w w w w e A ",
"L s > : s f 4 @ 0 ; w w w w w w w w w w w w ; B f j d w f D d w w w w w w w w w w B w w w w w w B { ",
"r :   : : 1 6 - w w w w w w w w w w w w w w B w 4   0 w 3   6 w B w w w B w w w w w w w w w w w B B ",
"7 < < 3 < 3 q B w w w w w w w w w w w w w w w q 5 3 0 w 5 < 9 w w w w w w w w w w w w w w w w w e B ",
"h w q q q w w w w w w B w w w w w w w B w B w w q q w w w w w w w w w w w w w w w w B w w w w w B { ",
"A B B B w B w w w w w w w w w w w w w w w w w w w B w w w w w w w w w w w w w w w w w w w w w w B B ",
"A B w w w w w w w w w w w w w w w w w w w w w w w w w w w w w w w w w w B w w w w w w w w w w w q { ",
"B B Z Z B w w w w w w w w w w w w w w w w w w w w w w w w w w w w w V Z V w w w w w w w V Z V w e B ",
"A A ` ) V w w w w w w B w w w w w w w w w w w w w B w w w w w w w w R *.Z w w w w w w B G &.Z w B B ",
"A V &.6.V w w w w w w w w w w w w w B w w w w w w w w w w w w w - B ) 9.G - w w V Z B w T 9.) Z A B ",
"A V &.$.V w w w w w w w w w w w w w w w w w w w w w w w w w w w - w ! <.G w w - G %.Z B G 9.9.%.| { ",
"A w D j V w w w w B w w w w V Z w w w w V Z w w w w w w w w w w w w C D d w - w ! d.` Z ) 7.s.s.) I ",
"A 0 < < 0 w w w w w w w - V ! +.C w w B ) &.C w w w w w w w w B - w @ @ & w w w R 1.1.*.9.1.1.9.p.u.",
"A w < < 9 B w w w w w w - V ` ,.C w V Z G D V w w w w w w = w w w w + O & w - - f D O.s.d.1.Y K ] h.",
"A B q w w w w w w w w w w V ` +.V B R ( u @ & w B w w w = = w w w w w q w w w w 5 1 j 7.f.1.j , j u.",
"A w B B w w w w w w w w = V ` *.V B &.*.a o 9 w w w = B j.c.{ w = B B B - w B w 5 < u j P J y : i L ",
"A w w B w w w w w w w w - V ` <.Z B ` 1.C - q w w w % A G.W.b.= = w w w w w w w w 9 4 1 , > : : > 2 ",
"A w w w w w w w w w w w w w D D V - C D V w - w w A  .n.C.L.B.c.| B - w w w w w B w 4 < < < < < < 7 ",
"A w w w w w w w w w w w w w @ @ * - $ @ & w w w = S G.R.M k S.W.n.- = w w w w w w w w 0 q 0 q 0 q h ",
"A w w w w w w w w w B w B q 3 O 9 w + O 9 w w w = A B.L.m.b V.L.z.- - w w B w w w w w B B B B B B B ",
"A w w w w w w w B w q B q B q q q w & % q w w w ; w 2 x D.T.m.t 8 - - w w w w w w w B w w w w w B A ",
"A w w w w w w B w w w B w w B B = B j.x.A q B w B q o < M.L.n X $ w B w w w w w w w w w w w w w w B ",
"A w w w w w w w w w q q w w B q % S H.Y.k.% = w w q q 0 i t p q w w w w w w w w w w w w w w w w e { ",
"A w w B w w w w w w V V B w = B  .n.F.P.N.k.S w w w B q O X $ B ; w w w w w w w w w w w w w w w w B ",
"A w w w w w w w w V ` ` V w = { J.U.m l K.E.c.= w w w w w 0 w w w w w w w w w w w w w w w w w w w { ",
"A w w w w w w w - B ) ) V w = { C.I.M v Z.P.l.= w w w w - w - w w B w w w w w w w w w w w B w w w B ",
"A w w w w w w w w w B V w w B q i x L.U.N k 0 = w w w w w - w w w w w w w w B w B w w w w w w w B A ",
"A w w w w w w w w w - - w w B w . 2 V.P.x X * C B w w B V V B w B w w w w w w w w w w w w B q B B A ",
"A w w w w B w w w w w w w w w w - 6 k k p - H &.Z q w B T ` Z w w w w w w w B w w w w w B q B q B A ",
"A w w w w w w w w w w w w w w w B - X X $ B G H Z V w B ) 9.Z B w w w w w w w w w w w w q B B q B A ",
"A B w w w w w w w w w w w w w w w w w * w - $ # D ` C B ) $.Z w w w w w w w w w w w w w B B q B B B ",
"A w w w w w w w w w w w w w w w w w B B w - O @ G 9.Z B R 1.Z B w w w w w w w w w w w w w w w w B | ",
"A w w w w w w w w w w w w w w w w w w w w w & q ( >.Z B ^ s.Z B w w w w w w w w w w w w w w w B Z u.",
"A w w w w w w w w w w w w w w w w w w w w w w V G H V w D H A w w w w w w w w w w w w w w w w w | p.",
"A w w w w w w w w w w w w w w w w w w w w w - w $ @ 0 w & @ 0 w w w w w B w w w w w w w w w w w B { ",
"w w w w w w w w w w w B w w w w w w w w w w B q 3 X 9 w + X 9 q w w q w w q e B e B B e B B e B e B ",
"{ A A A A A A A A A A A A A A A A A A A A A A A h h e A h w h A { B { B B { B B B { B { B B B { B { "
};
