/* XPM */
static char *result[] = {
/* columns rows colors chars-per-pixel */
"50 50 246 2 ",
"   c #1C1707",
".  c #1E1C18",
"X  c #221C07",
"o  c #241D13",
"O  c #221A1A",
"+  c #2A270A",
"@  c #342C0A",
"#  c #35330C",
"$  c #393308",
"%  c #292617",
"&  c #2C2A1C",
"*  c #322C13",
"=  c #312C1B",
"-  c #2F3312",
";  c #3A3314",
":  c #363518",
">  c #2A1F22",
",  c #2B2724",
"<  c #332D24",
"1  c #2F3526",
"2  c #3B3A25",
"3  c #35332C",
"4  c #39362A",
"5  c #383734",
"6  c #3C3B33",
"7  c #441C0C",
"8  c #413B0E",
"9  c #423C1A",
"0  c #423B27",
"q  c #50362B",
"w  c #423C36",
"e  c #3F4036",
"r  c #4E4D0E",
"t  c #524B09",
"y  c #494618",
"u  c #595617",
"i  c #645B19",
"p  c #696616",
"a  c #6B6C15",
"s  c #777919",
"d  c #484429",
"f  c #524A29",
"g  c #5A5825",
"h  c #454234",
"j  c #44433B",
"k  c #4A4939",
"l  c #524D38",
"z  c #4C5430",
"x  c #5A5639",
"c  c #655726",
"v  c #625B38",
"b  c #5C6632",
"n  c #686627",
"m  c #797A29",
"M  c #6D6C31",
"N  c #696538",
"B  c #726D39",
"V  c #78763B",
"C  c #3E4644",
"Z  c #4A4A44",
"A  c #514D47",
"S  c #4D5349",
"D  c #585647",
"F  c #5C5A4C",
"G  c #545654",
"H  c #5C5C53",
"J  c #5C5C5B",
"K  c #645A44",
"L  c #72534A",
"P  c #615E58",
"I  c #5D6248",
"U  c #5C6356",
"Y  c #5E625B",
"T  c #676647",
"R  c #6C6B4A",
"E  c #736A49",
"W  c #767646",
"Q  c #636354",
"!  c #686857",
"~  c #62635B",
"^  c #6B695D",
"/  c #726C56",
"(  c #6C7358",
")  c #73745B",
"_  c #797859",
"`  c #5F6266",
"'  c #656661",
"]  c #696765",
"[  c #666964",
"{  c #6B6B65",
"}  c #6C6D69",
"|  c #726D64",
" . c #7B6D64",
".. c #706F6B",
"X. c #6D7264",
"o. c #6E726B",
"O. c #747465",
"+. c #777964",
"@. c #7B7A64",
"#. c #73736C",
"$. c #79746A",
"%. c #75796C",
"&. c #7C7C6D",
"*. c #6E7373",
"=. c #737572",
"-. c #797672",
";. c #767973",
":. c #7B7C74",
">. c #75767A",
",. c #767B7A",
"<. c #7C7D7A",
"1. c #84782E",
"2. c #827446",
"3. c #837C5A",
"4. c #827D64",
"5. c #807E72",
"6. c #817D7B",
"7. c #78851D",
"8. c #7B8531",
"9. c #7F8146",
"0. c #7B8267",
"q. c #7D8174",
"w. c #7C827C",
"e. c #85830E",
"r. c #95A41A",
"t. c #8C8B30",
"y. c #A8B330",
"u. c #8A8E4B",
"i. c #9EA242",
"p. c #A5AE45",
"a. c #878869",
"s. c #928A69",
"d. c #8C9468",
"f. c #949867",
"g. c #828274",
"h. c #868B76",
"j. c #83837C",
"k. c #89857C",
"l. c #8B897D",
"z. c #928878",
"x. c #8C9679",
"c. c #95987A",
"v. c #9DA56D",
"b. c #96AA6D",
"n. c #A7AD71",
"m. c #B5C863",
"M. c #C0C973",
"N. c #797C88",
"B. c #807D82",
"V. c #7D8382",
"C. c #798292",
"Z. c #848583",
"A. c #8A8783",
"S. c #848B84",
"D. c #8B8C84",
"F. c #85868A",
"G. c #858A8A",
"H. c #8B8D8B",
"J. c #938E82",
"K. c #879385",
"L. c #8C9284",
"P. c #8D938C",
"I. c #939384",
"U. c #999586",
"Y. c #93948C",
"T. c #949A8C",
"R. c #9A9B8B",
"E. c #898D91",
"W. c #968E9B",
"Q. c #8C9292",
"!. c #8F9992",
"~. c #8D9899",
"^. c #939593",
"/. c #959B94",
"(. c #9B9B94",
"). c #959699",
"_. c #949B9B",
"`. c #9B9D9A",
"'. c #A19E8A",
"]. c #A19C95",
"[. c #98A387",
"{. c #9BA393",
"}. c #98A399",
"|. c #9CA29C",
" X c #9CB19A",
".X c #A4A98A",
"XX c #A8B38B",
"oX c #A2A493",
"OX c #A3A49B",
"+X c #A4AB9E",
"@X c #A8A89A",
"#X c #A9B495",
"$X c #B7BA91",
"%X c #8D94A4",
"&X c #979BA5",
"*X c #A09CA0",
"=X c #9CA4A3",
"-X c #9BA6A7",
";X c #A3A5A2",
":X c #A4A5A7",
">X c #A3ABA3",
",X c #ABADA5",
"<X c #A4ABAB",
"1X c #ABADAB",
"2X c #B2ADA4",
"3X c #ACB3A4",
"4X c #A9B5A8",
"5X c #AAB3AC",
"6X c #B2B2AC",
"7X c #B5B9A9",
"8X c #A6ACB2",
"9X c #A8B5B6",
"0X c #ACB4B4",
"qX c #ADBAB4",
"wX c #ADB3BA",
"eX c #B4B5B5",
"rX c #B3BCB5",
"tX c #BABBB5",
"yX c #B4BBBD",
"uX c #BABDBB",
"iX c #C3BFB5",
"pX c #B5C493",
"aX c #B9C4A9",
"sX c #BCC4B3",
"dX c #B6C3B9",
"fX c #BCC2BC",
"gX c #C7DD8A",
"hX c #C5C8BA",
"jX c #CDD0B5",
"kX c #ADBBC1",
"lX c #B5BCC5",
"zX c #C1BCC2",
"xX c #BBC5C6",
"cX c #BED1D2",
"vX c #C4C9C8",
"bX c #C5D3C6",
"nX c #C5CDD5",
"mX c #CAD6D6",
"MX c #D6DCD9",
"NX c #DAE4DC",
"BX c #C9DBE5",
"VX c #D4DEE4",
"CX c #D8E6E9",
"ZX c #DAEBF1",
"AX c #E8EAF0",
"SX c #E7F7F5",
/* pixels */
":.D.:.] 6 Q J.^.).A.P J.6.A._.g.<.&.`.%.:.(.I.6XU.OX6XE l.T #.tXzX*XH.(.H.]. .| ;XU.6.: ).] D.| D.k.",
"$.D.-.5 x -.] H.).] d (.~ '.,.[ $.#.j.k H |.*.:.: 6.:.Z.H.D P ' <.^.H.Q.N.g.D.k A.l.[ U.' @.6 #.Q (.",
"A.-.U ].P Y.^ 5. ...f (.! ^.6.h.R ,X;XA d #.q.&XD.6.g.<.eX] ..Q.R.} <.D.h./.E z (.2X' :.~ { | Z P ^ ",
"l.j K :.O.].@ U.,XA.K )./ a.k.^ q.W.R.| F G._.t.x.6.(.{ D. .<.<.(.).OXZ.-.k.&.x I.G.k.g.{ +.:.Q h { ",
"5 ~ g.-.#.{ l.:./.z.= ].A.a.O.O.w.@X|.F.H #.H.8.0.+.%.=.-.| 0 P.P.J I.6.j.q.q.l OXN G.Q %.a.Q :.^ Z ",
"$.] g.9.0. .-.#.H.:.d ^.A.l.O.:.R.k.R.I n x.D.I.;.P.@.X.Q.$.OXZ.S.H.Q.D.d.j.Q F U.^.&.^ h.{ P 6.| U.",
"].:.g.} k.A.Z.:.j.;.< & @.P.F.) K.3X^.;.G 2X6X{.V.w.R ,.<X[ ~ x 9XG.~.o.} (.' #.J.5.R.E O.k.H.' #...",
"k.J.%.o.^.:.A.Z.G.}   < & w # y # j & - + 9 , D l : e - 2 2 e z I + e k ; h ; f (.D.U.V tXU.x @._ 2 ",
"k.} %.uXn ~ { =.=X6 l P.`._ @.,XhX(.a.MX2X/.|.K h.n D I.@.D T Y.A.].U.{.l.3XhXJ.k ).(.6.A.R.6.U._ 4.",
"[ #.:.g.y ' #.k.  k.<.g.' <.*.8 d.>XeX/.7XwX6 W s._.f V.K.<.E.^.P.0X1X&X_.J.F.Y.6XX OXx.g.6.D.l.oXg.",
"6 % : 1 ; w Z 6 ! F (.<.<.! :X4.0.Q.<XyX,X2 # f.:X/.X.y ~ D.@.`.sXx.S.4XL.{.{.rX$XH & 4 4 % = 4 w 6 ",
"#.z.6.a.W.$.N v hX1X>Xx q.|.+XtX6.~.K.!.y I.^.s..X8.R nXT ( `.OX[.<X:X9XwXOX7XS.{ G./ k.H.Q ].U.a.@X",
"| k.J.x.2X3.wX0 ;X/.xXvX&X8XtXc.1X=X0X@ a.pXd.{.K k.1X2X4XE S 4XT.7XsXqX&.rXuX@.Q T. ./.OX:.OXc.5.| ",
"l.OX:.,.6./.oX0 MX^ 3XvXwX0X0.<XwX<.: a.7Xf.XXxX1.r./.XX(.=X/ J uXOX=XqX9X:XI.~.Y.H.X A.@XR.l.g.@X| ",
"/ <...*.=.6.^.0 1X:.h.D.lXu R.+X}.+ O._.-Xb.#Xt D.x.e.aX).[.lXK ~.y.oXg.OX_.`.^.=.(.f `.P.O.%._ ^ A ",
"F ' 6.] /.} uX; j._.Y./.eX7XrX[.k _ &X+.R 0Xu.L.[.w.D.1.0Xx.!.s 9 4X;X{.d.:.~ vXD.Z.y Y.,Xj.-.#.E | ",
"~ P -.;.W.@XlX+ Z.;XtXhXyXqX XI R q.9XlX%Xa wXdX*.aX) G.g cXvXmX!.$ % -X=Xw.@.M X._.y [.q.j.P.:X>.P ",
"j.} o.H.Z.,.tX$ ^ ;XP.<XeXyX` ! C.Q.}.9Xq S.vX3X0X( b.k.E.p kX_.-Xx.@ - 0.:X=XfXQ.% f |.c.q.D.O.-.} ",
":...H.G.wXP.8X# _.O.0Xj.E.Y K !.uXN -Xt.XXxXn.xXU }.l.!.H.x.t.4X<Xi.4Xr % Q.j.yXB.K U }.R =XH.Q { T ",
"4 G A 6 k G.H w OXV.;XN S / T.&Xx.qXp ^.sXp.#Xb.6XhX0.@XG z.oXa mXyX>XCXD ;.lXg.(.j : U Z Z J A Z 3 ",
"< + * X   + X @ fXH.vX` ( }.,.~.gXt c.xXp.cX#XM.u.@X. _ vX+ L.-X1.wXxXxXQ.r D S.+XR + ; @ #   X O d ",
":.D.k.U.k.W #Xy E.-XY R Q.<XV.dXp R.=XY.9XxX7.m.xX~.Z.P <XtXS `.=X2.vXbX Xw.; J {.h.v tX(.tX(.R :./.",
":.A ~ J Z.,.0.r V.G d H.K.%.n.t.<.>XL.}.m.t.jX-XbX<X= wX] v vXz I._.8./.&X;.4Xr S _.8 L.#.:.lXR.O.6.",
"<.%.P.#...0.-Xn S T ,X!.V.<Xp w.[.L.4Xp.ZXvXL MXdX-X;Xs.W xXu.xX@.R }.p vXfXOX1X_ O d ) $.Z.5.<.j.*.",
"'.' j.} ,.,.8Xd U.<.^.v |.i w.!.#XL.-X9XAX=XBXSX+XZX-X: mXq.2X9X}.mXCX}.p =X1X-X|./ p k.r N 1X|.Z.-.",
"v.c.) #.H Z.tXV 4 lXf.> hX= ~.S.-XpX9XXXnXZXkXlX7.# e.d kXmXf.9XC [ =XQ.: NXG D.Y.= g K.;.{.OX5X-.Z.",
"H.g.(.l.6XN @ t D.% o #XjXMXy 4X( cXXX5X8XtXt.nXg 7.CX0Xb.-X;XG..XyX4X; kXdXnX5 e.@Xf ^.K.!.`.Z.G.`.",
"].[._.R W.rXx.n _.k.# 7XV.5XnXf dXd.bXf.SXSXr.nXp.t.pXmX-X-X<Xn.uX>X9 mXNX7.+XV Y.Y.d ).;.^.F.&.%.:.",
";X1XlX,.k /./.1.-XT.a.+ K.X.G.mX#  Xx.9Xn.cXZXSXr.f g v %XS 3XqX>X* K.r.3X}.M .X0Xu.; [ ^ } N.G.a.A.",
"4.B g B a W 7.e.S.Z.X.a.1 o.L.{.dX  =X.XkXaXCXZXwX[.=XSX, c.~.4Xw fX{.S.w.y # mXG.[ c L.2.m B n V U.",
"iXuXd.;XI.8XMX9 T.T.P.|.I., q.0X8.bX+ K.{.mX-XSX9Xs.mX3 Q #.5Xz mXY o._.2 M [.=XE ] ] fXT ,X].vXbX6X",
"].P ~ _.).b xX@ &X!.x.^.kX_.% -Xk !.NX# Q.dXdX4XnX}.b.{.5 x.+ cX=X-X$Xu u.fXB Z.xXk D 9XQ D =XZ.(.A.",
"#.Y.I.g.}..XP.; 0XG.eXqXaX>.+.. 8.=XV.9X  }.}.-XS.!.BXe +X* >XqXQ.}.a D -XQ }.Q._.Y Z ' w.<.D.m Y.j.",
"H./.D.$.X.a.K.: T.;.|.9Xs ^.w.g.: l.}.Q.NX#  X-X8Xw.c.x 7 lXQ.V.E.p V >Xq.v.d.b ~ w.* ,.G.{ $.a.R.`.",
"j.y <.A.X.Q.S.# h !.G.%.-Xy k.}.|.O dXW.CXZX+ {. X!.!.$ +X>XqXP.B 3.-X/.-X:XV.@ =.q.- P.^.#.#.1X{ 5.",
"} H.P..X[ Y w.9 <XV.T.X.qXw.%.} G.{ # kXMXxX7X  }.{.- Q.N.T.vXy / L.Q.~ h.V.mX^ }.D 2 H >.A.*.} $.k.",
"{ :.<.D.D.R <.t 0Xl.T.>XK.!.%.4Xj.G.^ d <X3X<XvX    L.{.M X.f jX#X`.-XrXf.T.( K.:X`.y ,.=.:XT.5 ..A.",
"H.} g.g.^.oX/.@ q.q.U $Xb o.T.K.S.qXl.l 6 {.D._ j * d.X.}.r uXV./.xX|.) /.{.fX_./.t 9 =.;.X <.g.Z.A.",
"< % < j d G < u K.,.&XZ.>X0.|.Z.} D.P.8X+.: Y.% ^ >X% ;.M .X>X5XrX&Xj.u.X.,.I.x.P.! _ 4 j w Z o 4 & ",
") z.T O.s.3.a.g OX, S.K.a.j.,.j.Z.L.q.o.X.I.i aXXX_.P.8 h.4X4XQ.+XP.D.;.<X) E.`.g.* T U.@.3.x T E U.",
"{ ~ ' ..H...X.j.u j.%.w.I.y ;.w.$.o.P.<.:.! |.o &XV.9 @.Q.>.X.Z.H.h.h.f R ^._.{.u W -.,.<.$.[.#.-.-.",
"%.} D.Z.% ;.A.@X-.W   1X. Y.q.>XJ./.!.<.=XG.`.h 3 o A.;XG.~.,.H.Q., o A.F I.6.y &.N.B.} 6.' -.P ' $.",
"^ =.#.:.l ~ } ~ >XZ.y / M V N E f .Xz.B e.u V T x v 7X ._ z k.h I.l R 3.x l.* N S Z.w.<.{ 3 ] J $.-.",
"| J ' Z } j.w.#.H.W l _ ! :.(.7XrX[ >X.XD :.;.-XVXMX_.jX`.6.].eXvX0X5XwX6X:.^ d H.u `.:.Z.A 1Xg.P P ",
"w Q } F A :.P Q Z.Z.y { D./.} D.x Z.q.I.:.^.;.j._.k.Y } :X' G >.x E.G.,.6.J (.x Y._ ^.} D.-.Z 6 A.0 ",
"A.& Q _ #.:.{ :.' -.# A ~ k.H.:.J.>.U.G.T 8X^.{ { J G ] =.6 ] Z.q.j.H.H.<.1X{ K ;.$.{ =.#.6.%.D.w Y.",
"I.D.% l { H -.:.P B k + J Z.D.' O.V.^.| 3 Y.N.:.} X.' J ' 6 G ' :.Z.G.D.;.%.:.! A.' -.6.1XP j.4 w 0 ",
"F 6.b h O.^ <.J ~ A.d l.J o.[ #.^ =.F.D f G.;X1Xd 6 ' -.$.A 3 g ,.Y.{ >.#.6.$.x H.%.>.6.J.Z.= k.! / ",
"%.Q ~ R.& | D.Z.' P 0 ..k.H.H...{ -.I.] =._.@.Y.^ :.Z.O.H.0 ' MX^.A.' A.R =.Z.x =.#.J.:.O.w h.v.$.| ",
"| -.* Q Y.l B.:.R.P 3 Z =.0 ....D.;.j.6 3 Z.:.Z o w H ' 3 3 < A ;.#.>.;.*.D.w w -.%.$.Q < l.6.j.5.6."
};
