/* XPM */
static char *result[] = {
/* columns rows colors chars-per-pixel */
"50 50 218 2 ",
"   c #060C0D",
".  c #171817",
"X  c #161B1A",
"o  c #1D1D1C",
"O  c #221E1A",
"+  c #24241D",
"@  c #151F22",
"#  c #1D2425",
"$  c #1A2827",
"%  c #1D302C",
"&  c #152630",
"*  c #232424",
"=  c #252925",
"-  c #2C2922",
";  c #292429",
":  c #242C2C",
">  c #2C2D2C",
",  c #332E2D",
"<  c #2C332A",
"1  c #37332F",
"2  c #272E31",
"3  c #233332",
"4  c #2C3636",
"5  c #2B3B35",
"6  c #253739",
"7  c #2E3D3F",
"8  c #333534",
"9  c #3A3736",
"0  c #373935",
"q  c #3B3A35",
"w  c #343C3C",
"e  c #3C3D3B",
"r  c #493833",
"t  c #413D38",
"y  c #2E403F",
"u  c #36423E",
"i  c #3A413D",
"p  c #484437",
"a  c #45423B",
"s  c #4D443C",
"d  c #564D3E",
"f  c #363F41",
"g  c #3A3E42",
"h  c #463F40",
"j  c #344243",
"k  c #3C4443",
"l  c #33464B",
"z  c #3B4A4A",
"x  c #3E4E55",
"c  c #434544",
"v  c #494444",
"b  c #454945",
"n  c #4D4D46",
"m  c #434C4B",
"M  c #4C4E4C",
"N  c #534644",
"B  c #524C49",
"V  c #47544A",
"C  c #45514D",
"Z  c #565549",
"A  c #54514C",
"S  c #5C544C",
"D  c #454F56",
"F  c #435353",
"G  c #4C5454",
"H  c #4B5852",
"J  c #4C555A",
"K  c #445A5D",
"L  c #5B5352",
"P  c #535955",
"I  c #545857",
"U  c #595B55",
"Y  c #535B5B",
"T  c #64584E",
"R  c #665D55",
"E  c #4E635C",
"W  c #55655D",
"Q  c #5B625E",
"!  c #6C6356",
"~  c #62635C",
"^  c #68655A",
"/  c #6B655E",
"(  c #73665B",
")  c #7C705D",
"_  c #4F5C66",
"`  c #4C6263",
"'  c #4C6E6D",
"]  c #5C6564",
"[  c #5B6866",
"{  c #556A6A",
"}  c #5B716B",
"|  c #486571",
" . c #556C73",
".. c #5D6F70",
"X. c #586E79",
"o. c #4E7174",
"O. c #5B7677",
"+. c #636563",
"@. c #6A6462",
"#. c #646B66",
"$. c #6B6963",
"%. c #656B6A",
"&. c #6A6C6C",
"*. c #756D65",
"=. c #716D6B",
"-. c #66726C",
";. c #6B726D",
":. c #6B7969",
">. c #74726B",
",. c #7B7A6A",
"<. c #656E74",
"1. c #6C7472",
"2. c #6F7977",
"3. c #677378",
"4. c #647A7D",
"5. c #6D7C7D",
"6. c #727673",
"7. c #7D7472",
"8. c #737A76",
"9. c #7D7B73",
"0. c #757D7B",
"q. c #7A7F7C",
"w. c #837669",
"e. c #847E75",
"r. c #887C73",
"t. c #6C827A",
"y. c #75817D",
"u. c #7C837E",
"i. c #7A887D",
"p. c #868779",
"a. c #84847C",
"s. c #8B867D",
"d. c #96897B",
"f. c #5D7C87",
"g. c #6E7C81",
"h. c #787F82",
"j. c #6D8383",
"k. c #678488",
"l. c #748483",
"z. c #7D8582",
"x. c #7E8A84",
"c. c #748B8C",
"v. c #798888",
"b. c #7B908F",
"n. c #6E8A91",
"m. c #748E93",
"M. c #7D8E91",
"N. c #749193",
"B. c #6F99A2",
"V. c #818682",
"C. c #8A8681",
"Z. c #838A85",
"A. c #8B8D87",
"S. c #848D89",
"D. c #8B8E8B",
"F. c #948C84",
"G. c #85938D",
"H. c #8C928D",
"J. c #92948D",
"K. c #9A9689",
"L. c #9B998D",
"P. c #8C8E92",
"I. c #8C9392",
"U. c #8C9B94",
"Y. c #889799",
"T. c #939791",
"R. c #9C9590",
"E. c #969B94",
"W. c #9A9D96",
"Q. c #949D99",
"!. c #9B9F98",
"~. c #A5968A",
"^. c #A1998C",
"/. c #A39D92",
"(. c #A99C97",
"). c #A29D9A",
"_. c #9CA195",
"`. c #96A19B",
"'. c #9DA19A",
"]. c #9AA59B",
"[. c #A4A397",
"{. c #ABA394",
"}. c #A2A49D",
"|. c #AAA59B",
" X c #A4A99E",
".X c #ABAA9B",
"XX c #B2A899",
"oX c #B5B39C",
"OX c #8D9FA0",
"+X c #929FA4",
"@X c #8CA6A6",
"#X c #95A5A6",
"$X c #99A5A1",
"%X c #9CAAA3",
"&X c #92BFB4",
"*X c #A4A7A0",
"=X c #ACA7A5",
"-X c #A6A9A2",
";X c #AAACA5",
":X c #A5ADA8",
">X c #ACAEA9",
",X c #B4AFA9",
"<X c #ACB1A6",
"1X c #A7B0AD",
"2X c #ADB1AA",
"3X c #B2B2A7",
"4X c #B9B4A5",
"5X c #B2B3AA",
"6X c #BBB3AA",
"7X c #BDBAAD",
"8X c #AAB5B1",
"9X c #B4B7B4",
"0X c #B6BAB2",
"qX c #BABEB5",
"wX c #C3BCA6",
"eX c #C2BBAF",
"rX c #BFC1B6",
"tX c #CDC5B4",
/* pixels */
"3X2X>X>X>X>X>X,X3X>X>X:X2X2X>X2X;X2X<X<X<X;X5X0X3X<X3X;X>X;X=X*X%X*X}.-X:X;X;X-X:X*X:X:X;X2X;X<X2X2X",
">X;X;X;X*X*X}.*X*X}.!.*X5X>X;X'.*X}.*X*X;X}. X}.*X}.*X}.}.}.W.'.Q.'.'.'.'.].'.].!.*X!.*X}.*X}.*X}.;X",
"2X;X;X*X}.}.).!.}.'.].*XtX.X-X'.}.'.'.'.).'.W.!.'.'.W.!.!.'.'.'.'._.'.'.'.'.'.'.`.'.'.'.!.'.}.}.]. X",
">X;X'.!.!.!.!.!.!.W.'.W.'.1.*X'.W.'.'.W.!.W.!.W._.W.!.W.W.'.}.'.Q.!.'.'.E.'.E.'.W.'.!.'.W.'.!.W.}.;X",
">X;X*XW.W.W.W.W.!.W.W.E.J./.}.W.'.W.W.W.W.W.W.W.W.W.W.W.W.'.'.}.'.'.W.!.'.E.'.E.!.W.E.'.'.'.E.].'. X",
"2X*X*X}.W.W.W.!.W.W.W.E.H.L.` _.E.W.W.R.W.W.W.W.E.E.W.W.).C.H.].}.}.W.W.E.!.W.'.E.'.!.!.E.W.'.'.'. X",
">X;X}.}.}.W.W.W.W.W.W.!.E.] XX1 J.E.W.W.W.W.W.E.T.W.W.W.'.}.'.'.*X}._.Q.'.E.E._._.W.W.W.'.'.'.E._. X",
";X;X}.}.!.!.E.W.T.'.W.E.m Y +.p.A.W.W.E.W.W.E.J.W.W.W.W.'.}.}.}.}.*X*X'.!.'.'.E.{.Q.W.W.'.E.W.'._.<X",
">X;X*X$XW.!.W.W.E.W.W. . .G m C % W._.E.Z.a.>.E.W.E.!.'.'..X'.}.*X.X;X*X].'.}._.oXE.E.!.W.'.!.W.'.-X",
">X;X}.'.W.R.W.W.W.W.W.8.Z.y.K m  .v $XV.V.u.<.|._.W.W.}.'.}.}.'.}.}.'.'.*X;X;XL '.'.'.'.'.!.W.'.'.-X",
">X*X}.W.E.E.W.W.W.W.W.y.V.x.z.z., Y /.C.{.V.(.m b a.T.'.'.'.}.}.}.}.}.}.;X;Xj  X}.}.}.}.'.W.!.'.].;X",
";X*X'.E.).!.W.W.W.W.E.0.u.V.z.v.8.j : q.u.V.z.C.k { }.!.x.W ;X'.=X-X-X}.E.t =X}.].}.}.!.W.'.}.*X*X*X",
">X*X!.!.'.E.W.W.W.W.W.V.V.D.z.z.C.q.# 5 x.z.V.l F.q 1 b / r f }.*X*X*X-X*.S E.E.T.W.}.!.}.}.*X}.'.*X",
";X}.'.'.}.W._._.E.W.W.v.V.z.z.z.u.x.h.X f 0.V.f 4 u.&.z M >.;Xq.a $X*X*Xx }..XW.W.W.!.}.*X}.*X}.}.*X",
">X*X].}.[.[.H.S.#.%.*.S.V.x.C.A.V.x.V.u.- w J s -.8.s.<.k #.%.e.U.: #Xr.T '.E.=X!.W.}.!.}.}.'.'.'.;X",
";X*X}.*X}.2X+XZ.=X;X;Xm.a.x.z.V.Z.V.V.z.u.. q 3 $ s =.] q A %.%.#.H.I 6 _.'.'.}.W.W.W.W.'.'.'.).'.-X",
";X;X}.}.}.}.wX.X;X;X;X^ j.p.z.Z.V.V.z.x.Z.- = 2 0 j e : 8.2.+.$ #.#.u i ].}.'.5XT.'.'.H.z.D.!.'.!.;X",
"2X;X*X=X*X}.W.6X-X].;X%X-.V s V.V.z.Z.S.9 G f.>.w w k z 9 8.8.;.~ a ..F W.'.'.'._.3X}.}.'.U.}.!.!.-X",
";X;X;X}.}.*X*X*X>X;X7XT } u.Z.F.. H.A.0 * ] s.j z k g k m m R 8.;.z k +.F [ +.P T.!._.'.!.S.}.!.'.;X",
">X*X}.!.W.}.}.3X;XE.J.4.z.u.x.J W j 4 + Q I m a f . o o c k k f w /.C t.D O.J.}.'.'.'.'.!.T.W.}.!.;X",
"2X XE._.W.}.}.}.'.!.H.{.l.V.z.T ] Y q ! c b m a 6 :.+.Y 3 X = E b I.V.- M ` _.!.'.!.!.}.!.'.!.!.!.;X",
"2X;X-X X|.=.}.}.'.H.J.H.z.u.Z.#.! , -.z c c k k : 8 k C 4 z 8.] Q T.K k &.6.}.}.}.'.!.}.;X;X;X*X!.;X",
"<X;X;X;X;X}.XXx.O.D c F.5.z.V.3.N 8 ^ / l p g e 8 5 : b q.t J.n n | W.y.;.;.L !.}.7X*X;X;X;X].!.'.;X",
"<X;X X X*X}.'.).E.!.R.K.~ i F.6.k W H > M k = 7 o   * - e 0 q 4X: c.i.l . , - B , , F K  .Q.}.'.'.*X",
"2X;X*X*X}.}.'.E. X*XT.H.p..Xs.  = w <.S # i $ O m s 3 O 2 8 @ F J *X-Xd.v R.H.W.'._.*X}.W.'.!.'.'.*X",
";X;X*X*X*X*X-X5XH.Z.2XV.S.v.I.A ,.;.Q j 9 z $ A m + N & 4 * B { I  X-X}.2 H.D.v.Q.*X'.W.W.!.'.'.'.*X",
">X*X*X}.}.!.}.}.}.'.A.S.S.Z.p.I =.1.y.z.z.] X b G b B > 1.M O 9 H  X*X$Xz 6.G.|.}.!.T.W.!.!.!.'.].}.",
";X;X*X*X}.}.}.}.}.}.'.j.H.Z.S.F.5.0.y.u.l.[ @ H a 2.i 1.~ ..] f U -X*X*X9X, 2.3.W.'.'.W.!.'.`.!.'.}.",
";X;X*X}.}.}.}.'.}.}.'.e.S.S.A.L.d.y.l.y.y.-.A / g.Y J ..1.;.-.%.* 6.*X*Xw.8 m &.|.}.}.!.'.'.'.'.'.*X",
":X;X*X}.}.'.'.}.'.}.}.D.7.C.E.: g.h.z.u.i.> 5 8.0.w.u x -.} ;.2X}.} XX*XL &.&X8 0 {.!.}.>X3X7X6X'.}.",
">X-X}.}.}.}.}.}.}.'.*Xx.H.I.= w.0.z.y.q.c.v ;.t.Y 6.$.( ..C.9.}.}.}.s -.I 6.;Xz.W ; ).3X0 y.J.E.'.].",
";X;X*X}.}.}.}.!.}.}.$X$XS.f ^.W.u.9.0.l.P.S 0.0.p.7.0.L.m n '.}.}.}.}.< u.h :Xz.9.8 ; =.{.'.E.R.E.E.",
";X-X;X}.}.!.}.}.'.W.'.'.T .XJ.H.m.x.j.7.s.9.4.t.z.z.`.*X'.] *. X].V.S Q tX1 Z a.z.y.> E !.W.E.E.W.!.",
">X;X*X*X!.}.}.}.}.!.'.*X`.E.L.M.H.v.e.: I.P./ C.S.i.`.Q.!.R.L T u.%.' R Q C H V.V.S.> w.E.T.E.E.T.!.",
":X;X*X}.}.}.}.!.}.'.'.7X}.T.*XH.W.] ] w -XD.1.$X@X) / [ Y.l.3.XXP.( >.k.Q p.C U z.q.e }.E.E.T.T.E.!.",
">X*X*X}.!.}.}.}.'.'.}.W.*X}.}.'.] ]  .R %X@.+XU.`.a.L.rXY.;X3XM S a.n.1X<X=X{ C u.S r._.E.E.W.J.W.Q.",
";X;X*X*X}.}.}.}.}.!.}.}.*X}.}.}.v 8 |.:X;Xy.%X=X`.S ,X8X0XN..X.X_ '.N.[.].:XU.u.G.2.2.*XW.E.`.'.E.W.",
":X;X*X}.}.}.!.}.}.W.'.].}.}.{.R 4 #.s.*X;Xs. X`.{.p.6X0X0X2XU U.7XI Z.'.].'.OXK.G.o.6.*X*X X}.}.*XQ.",
";X-X*X}.}.'.}.}.}.'.}.{.R d 6.u ` (  Xn.OX;X@X:XE.c 6XrX2X#Xq.>X1XZ ^.E.'.'.}.!.#X#XX.-X*X*X*X*X*X*X",
">X=X-X}.'.}.}.'.].5.).Q.=X}.u.m }.}.}.}.H.{.W.a.eXr.p..X:X8Xf.=X:.6.r.E.W.!.!.c.m.eX;Xl.;X-X-X*X*X;X",
";X;X*X}.}.}.'.}..X-X;X;X<XT.g OX*X}.}.}.qX}.'.}.|.H.A }.c.c.K.1 c.3X;X%.z.#.+.*X*X*X*X}.c.3X-X-X X*X",
";X;X*X}.}.}.}.}.'. X X|.y w.*X!.}.;X X}.}.}.}.}.}.4X~.).;X$X} f.H.*X].>X*X*X}.*X}.*X*X*X'.m.*X<X-X;X",
">X;X*X*X}.'.}.}.}.W.J |.*X'.'.*X}.}. X'.).}.}.*X}.*Xj.*X'.eX X&.H. X*X*X*X*X.X*X*X*X;X*X}.}.G.}.;X;X",
">X;X*X}.}.}.}.}.R J.].'.!.!.!.*X}.'.}.*X*X}.'.}.*X}.I.}.'.}.*XB.>. X*X*X*X*X-X-X;X*X*X*X}.}. X;X}.-X",
";X*X*X}.}.}.}.}.*X;X}.'.!.}.}.*X;X;Xb.}.U.-X*X*X}.}.Q.*X3X*X}.}.k.-X;X*X-X-X;X-X X X X;X-X X}..X}.<X",
">X;X*X}.*X XT.*X;X-X'.}.;X!.!.*X*X*X;X2X>X;X;X-X3X*XU.1X*X*X}.4X'.*X<X-X-X;X-X-X-X X;X*X;X-X;X*X*X;X",
"2X*X*X*X*X;X*X*X*X}.*X*X}.*X}.!.;X3X2X<X3X>X;X>X*X>X1X8X;X;X3X;X;X4X*X;X*X;X;X*X-X;X;X;X;X;X*X;X;X3X",
">X;X*X;X-X*X*X*X*X*X*X*X*X}.;X2X<X;X;X;X2X2X2X3X;X*X{.;X}.;X;X;X5X5X;X;X;X;X;X;X.X;X;X;X-X*X;X;X-X-X",
"2X;X*X;X*X*X*X*X*X*X;X;X*X}. X2X*X-X X;X;X2X<X2X*X%X}.'.*X<X;X2X;X}.;X-X-X;X;X;X*X<X;X;X;X;X;X;X}.;X",
"2X2X>X:X;X2X;X2X2X2X2X;X>X>X;X8X2X5X2X2X3X2X2XtXqX;X;X;X2X;X;X;X2X;X:X;X;X>X3X;X>X>X2X2X<X;X>X;X;X2X"
};
