/* XPM */
static char *_6f5acce142740f7f1b5c40e376c987b3dZBvEIZ0gRRvDAL[] = {
/* columns rows colors chars-per-pixel */
"50 50 253 2 ",
"   c #010200",
".  c #0B0100",
"X  c #020B01",
"o  c #0B0B08",
"O  c #150904",
"+  c #011301",
"@  c #061906",
"#  c #161906",
"$  c #050515",
"%  c #10151A",
"&  c #231606",
"*  c #371C14",
"=  c #300F09",
"-  c #012A03",
";  c #062A08",
":  c #132D0D",
">  c #023301",
",  c #053806",
"<  c #1A3805",
"1  c #172916",
"2  c #063A17",
"3  c #163916",
"4  c #262909",
"5  c #342606",
"6  c #262616",
"7  c #2A360E",
"8  c #1E182C",
"9  c #053627",
"0  c #113126",
"q  c #2F3527",
"w  c #471915",
"e  c #593618",
"r  c #502D11",
"t  c #653910",
"y  c #463826",
"u  c #5C3828",
"i  c #4F3431",
"p  c #643A2B",
"a  c #014302",
"s  c #014C01",
"d  c #074907",
"f  c #184605",
"g  c #065507",
"h  c #1A5602",
"j  c #054B18",
"k  c #18461B",
"l  c #085316",
"z  c #17561A",
"x  c #2F5216",
"c  c #066903",
"v  c #057A04",
"b  c #036518",
"n  c #037A19",
"m  c #177012",
"M  c #266719",
"N  c #346817",
"B  c #267318",
"V  c #054527",
"C  c #1B4926",
"Z  c #085628",
"A  c #175B2E",
"S  c #2A4A2B",
"D  c #245434",
"F  c #3A5331",
"G  c #046828",
"H  c #156529",
"J  c #077827",
"K  c #187927",
"L  c #196835",
"P  c #047937",
"I  c #167736",
"U  c #23732B",
"Y  c #266737",
"T  c #316C32",
"R  c #574504",
"E  c #4E4C14",
"W  c #6F500E",
"Q  c #4F6811",
"!  c #70730A",
"~  c #4C492C",
"^  c #46552B",
"/  c #514E33",
"(  c #705233",
")  c #5B7729",
"_  c #586934",
"`  c #4D6D31",
"'  c #6A7331",
"]  c #003642",
"[  c #4C3541",
"{  c #087951",
"}  c #267B42",
"|  c #397645",
" . c #246442",
".. c #2E5E61",
"X. c #4D5643",
"o. c #496946",
"O. c #51764D",
"+. c #6A6A48",
"@. c #915419",
"#. c #8D7109",
"$. c #865231",
"%. c #946B36",
"&. c #A6732E",
"*. c #936D4C",
"=. c #A46F5A",
"-. c #018502",
";. c #1C8708",
":. c #008614",
">. c #0D9815",
",. c #2E8F12",
"<. c #3CA708",
"1. c #3AA615",
"2. c #3AA51B",
"3. c #39A818",
"4. c #33B50F",
"5. c #018324",
"6. c #01832C",
"7. c #198428",
"8. c #018634",
"9. c #0D8E2D",
"0. c #298627",
"q. c #27952A",
"w. c #389926",
"e. c #358637",
"r. c #389837",
"t. c #2B8F36",
"y. c #39A627",
"u. c #3AB32B",
"i. c #38AD39",
"p. c #38BD3F",
"a. c #37B43C",
"s. c #2BAC36",
"d. c #4B9416",
"f. c #709309",
"g. c #44A805",
"h. c #45A819",
"j. c #43B21A",
"k. c #4FAC0C",
"l. c #458A33",
"z. c #588B3C",
"x. c #4F972C",
"c. c #778537",
"v. c #6E8E32",
"b. c #45A827",
"n. c #55A829",
"m. c #41A539",
"M. c #45B636",
"N. c #4BB62E",
"B. c #6CA52E",
"V. c #79AC00",
"C. c #21C400",
"Z. c #52C626",
"A. c #0D8A4D",
"S. c #328E40",
"D. c #349341",
"F. c #339B41",
"G. c #3A9B42",
"H. c #399B46",
"J. c #39A643",
"K. c #3AB642",
"L. c #3ABE41",
"P. c #38B842",
"I. c #2EB252",
"U. c #488447",
"Y. c #56864D",
"T. c #469646",
"R. c #578956",
"E. c #589558",
"W. c #5B9A47",
"Q. c #65975A",
"!. c #6F8F4F",
"~. c #47A94A",
"^. c #45B442",
"/. c #42BD46",
"(. c #44BC4A",
"). c #4BBC4C",
"_. c #4AB448",
"`. c #53BA4B",
"'. c #57A758",
"]. c #4DBD52",
"[. c #4FB355",
"{. c #52BB56",
"}. c #56B859",
"|. c #59AD4E",
" X c #65B658",
".X c #71A655",
"XX c #59996E",
"oX c #6D9175",
"OX c #5DAC64",
"+X c #5AB563",
"@X c #6CAD65",
"#X c #3BC041",
"$X c #43C343",
"%X c #48C643",
"&X c #4BC944",
"*X c #45C14B",
"=X c #4BC14D",
"-X c #52CD46",
";X c #58C649",
":X c #5ED548",
">X c #57D147",
",X c #4CC253",
"<X c #57C552",
"1X c #62D34A",
"2X c #64DA4A",
"3X c #6ADD4B",
"4X c #68D352",
"5X c #6EE24B",
"6X c #75E356",
"7X c #AF8E08",
"8X c #90B304",
"9X c #949631",
"0X c #AC832F",
"qX c #8BAC30",
"wX c #AFAC1E",
"eX c #CCA400",
"rX c #D7BF0E",
"tX c #C9BD2A",
"yX c #B6CB00",
"uX c #B8EB00",
"iX c #AFE701",
"pX c #A6D337",
"aX c #D4CF00",
"sX c #FFFF00",
"dX c #F0E51A",
"fX c #8B8B4B",
"gX c #A99A6D",
"hX c #8AAF72",
"jX c #B6B76F",
"kX c #8F9658",
"lX c #C6B077",
"zX c #D8975E",
"xX c #90C37A",
"cX c #EBEE53",
"vX c #EBF268",
"bX c #C7C142",
"nX c #277490",
"mX c #0D82AD",
"MX c #3FC2AD",
"NX c #5EAB8F",
"BX c #A1A68F",
"VX c #CBB892",
"CX c #E6AE8F",
"ZX c #D9AD9F",
"AX c #A1D594",
"SX c #D7CDAB",
"DX c #F6D5B8",
"FX c #E5E49C",
"GX c #EED8D1",
"HX c #F1EDD1",
"JX c #F7F8EA",
"KX c #EFF4EF",
"LX c #DFE0D2",
/* pixels */
",X*X*X*X*X*X*X*X*X*X*X*X*X*X~.~.(.#X~.I.(.*X*X*X*X*X(.*X*X*X*X*X*X*X*X*X*X*X*X*X*X*X=X*X#X*XL.J.(.,X",
"L.#XL.L.L.L.L.L.L.L.L.L.L.p.L.L.#X#X/.L.L.L.L.L.L.L.L.L.L.L.L.L.L.L.L.L.L.L.L.L.L.*X#X#XL.L.L.L.P.L.",
"*XL.L.L.L.L.L.L.L.L.L.L.L.L.#X#X#XL.#X#X#X{.+XM.^./.^./.M. X+X,X#XL.#XM.L.L.L.#XL.*X#XL.L.L.#Xp.#XL.",
"*XL.L.L.L.L.L.L.L.L.L.L.L.L.L.L.L.L.L.L.#Xz.R ' fXc.9XfX9XW r  XL.#X#Xp.L.L.L.L.L.L.L.L.L.L.L.L.L.L.",
"*XL.L.p.L.L.#XL.L.L.p.L.p.L.L.L.L.L.#X{.}.!.#.7XeXeXeX0X&.( R .X<X4X{./.L.L.L.L.L.L.*X-X&X#XL.L.L.L.",
"*XL.L.L.L.L.L.L.L.L.L.#XL.L.L.L.L.L.*X0   fXcXsXsXsXsXaX%.=.&.aXsXaX) }.L.#XL.L.L.L.-X3X-X#XL.L.L.L.",
"-X&X#XL.L.L.L.L.L.L.L.L.L.L.p.p.L.].+X0 ; !.pXuXuXuXiX8Xv.+.f.aXsXaX#..X=Xp.L.L.L.L.*X>X&XL.L.L.L.L.",
"4X:X$Xp.L.L.L.L.L.L.L.L.#XL.p.p.L.D o O..Xn.k.k.k.g.k.4.j.m.f.yXsXaX&.&.c.}.L.L.L.L.#X#XL.L.L.L.L.L.",
"4X3X>X&X#Xp.&X&X#Xp.#Xp.L.L.L._.{.z + l.z.O.S.T e.,.0.e.t.,.,.qXvXtX0X0X7XqX%XL.L.L.L.p.L.L.L.L.L.L.",
"4X5X3X:X$X#X1X2X%Xp.p.#XL.L.L...1 v.B.h a 2 9 2 2 a a a s s d N qXwXjXvXcXtX( |.L.L.L.L.L.L.L.L.L.L.",
"4X5X5X3X-X-X3X2X&Xp.#Xp.#X*X[.2 + l.b.g g g g d d h d d g g l L ,.B.jXbXaXeXt W.L.L.L.L.L.L.L.L.L.L.",
"6X3X3X3X3X3X3X2X%Xp.L.p.J.o.q Y U d s 0.y.w.w.x.,.x.x.x.l.l.r.K , h d.x 7 R ( hXL.L.L.L.L.L.L.#XL.L.",
"6X2X`.;X2X3X;X_./.$Xp.M.r.8   I U s g w.N.j.j.j.h.h.n.h.b.M.N.;.d h -.V $ i .X4X(.#X#XL.L.L.L.L.L.L.",
"6X:X~.H.1X1X~.D.K.#Xp.p.~.1 X a g e.m.2.3.3.3.3.h.h.h.h.b.y.1.g.d.N c 2 $ O.`./.#XL.L.L.L.L.L.L.L.L.",
"<X_.D.D.~.`.J.J.K.p.L.p.(.; + , c r.M.b.1.3.3.1.y.2.y.y.b.y.1.h.B.l.Z 2   R.(.L.L.#XL.L.L.L.L.L.L.L.",
"T.D.S.S.e.G.a.L.(. XhXxXhXf > m M g h w.y.3.1.3.2.2.2.y.y.h.j.m h z { Z ; O.(./.|.{.L.L.L.L.L.L.L.L.",
"J.F.J.F.F.J.L.$X_.9X&.CXgXh s K K s a ,.b.2.3.3.3.y.y.y.y.b.b.v > g A.P > _ xXxXO..X_.p.L.L.L.L.L.#X",
"(.p.p.P.P.P.].Q..XVXDXHXVXf a K K c n r.m.2.1.1.1.3.3.3.2.x._.>.c c 7.b , _ SXHXLXlX!.OX*XL.L.L.L.#X",
"*X#Xp.#Xp.#X|.~ *.FXHXHXSXd , n K n 7.r.r.y.3.1.<.<.1.1.b.x.m.>.-.;.m c > ) FXJXJXZXt O.{.#XL.L.L.L.",
"*XL.L.L.L.#X/.{.|..XgXVXhX9 j J I b b U t.y.b.<.<.g.g.h.b.q.q.5.g H 7.G > F VXjXfXkX`.{./.L.L.L.L.L.",
"*X#X&X%X#Xp.#XL.[.^ t 9X+.9 V I I j d b G q.u.j.<.g.k.h.m.9.:.l ; D T G 9 F fX' 5 O.L.L.$X%X$Xp.L.L.",
"L.*X:X:X$Xp.L.L.(. XB.' ` nX..G l - , L K 7.,.3.2.h.h.d.;.>.8.j % 8 A { mX..$.fX|.}.L.L.-X2X-XL.L.L.",
"*X%X2X2X%XL.L.#X$XL._.' E NXXX< ; + + H I G v ,.y.M.i.0.v -.6.k   $ ; ..MXoXp !.%X&X/.L.-X3X:X&X#Xp.",
"*X$X2X2X$XL.L.(.*XL.m./ 4 AXAXE 4 @ X D S.J :.>.>.q.q.7.J :.9.9   % 6 O.AXoX* R.;X3X-Xp.-X2X3X2X&XL.",
"*X#X=X%X/.L.L./.L.L.OX$ 7 vXvXp r o X Y S.J n v v v J P J K t.j   & r 7XFXwXX o.<X3X:X&X>X3X5X3X:X&X",
"*XK.J.J.a.p.#Xp.L.L.{.XXz.V.8X$.( O X k Z I 5.:.:.:.P 8.I M H j X r @.#.8XV.Y.OX1X3X3X2X3X3X3X3X5X2X",
"*XP.r.F.a.#Xp.L.L.L.L.L.J.X & zXkX; X ; C L 8.5.6.J P { P v l 9 . ~ zX@.+ U.(.L.).;X1X3X3X3X1X;X:X3X",
"*X#XP.P.L.L.L.L.L.L.L.L.#XE.O.9X_ # . @ 1 L 8.5.5.J J 8.5.g ; % X 6 *._ o.+X/.L.J.G.`.5X5X3X;XH._.3X",
"*XL.#X#XL.L.L.L.L.L.L.L.p./.-XS O . = O o H 9.:.v v v >.:.f X $ X   O '.(.L.L.L.J.H.~.<X;X;X~.S.~.`.",
"*XL.p.#XL.L.L.L.L.L.L.L.L.].|.Z + o O .   j J n v v v -.m 5   . $ $ @ U.~.].L.L.#XL.J.G.D.F.D.e.e.G.",
"*XL.L.L.L.L.L.L.L.L.L.L.K.X.q b Z 3 1 . X , l n :.J n z < &   % 0 A l j q OXL.L.#Xp.J.F.S.F.F.r.F.F.",
"*XL.L.L.L.L.L.L.L.L.L.).H.o o T.Q.z j , - - - H 8.8.I k : # @ 8 V  .OXY X  .~.(.L.L.L.L.K.P.P.P.P.P.",
"*XL.L.L.L.L.L.L.L.L./.Y.S # ~ LXLXz a G G , + A A.A.{ 0 X 2 L Z ; oXKXAXD 9 F @XL.L.L.p.L.p.L.#X#Xp.",
"*XL.L.L.L.L.L.L.L.(.z.6 . * ( GXLXi : } 8.; X C Y I P :   g A.J ; kXLXZXX.8 X o.~.(./.L.L.L.L.p.L.L.",
"*XL.L.L.L.L.L.L.~.R.` y r t u [ i u F ` T ; X : k z l - + l 7.v x y [ [ [ p w y ` OX).L.L.L.L.L.L.L.",
"*XL.L.L.L.L.L.L.e.. O ( %.$./     ^ / _ ^ & O # < 3 : O O 3 Q Q Q <   $ $.$.=.i    .).L.L.L.L.L.L.L.",
"*XL.L.L.L.L.L.L.T.% q SXDXCXgX: , z.z.Q t E e & @ o O w u e R ! v.N @ X.CXZXGXBXo T (.L.L.L.L.L.L.L.",
"*XL.p.L.L.L.L.L.G.q / LXKXDXVX< s s.i.Q W W W 4 X X O u $.W R ! .XT , O.SXGXJXBXq o.).L.L.#XL.L.L.L.",
"*XL.L.L.L.L.L.L.*X{. X!./ i ~ @ , q.i.d.! ' ) B m B N Q +.Y.v.d.n.N @ 1 i i / Q.'.}.L.L.L.L.p.L.L.L.",
"*X#XL.L.#XL.#X#XL.#X~.% .   . O + F.,Xu.n.n.u.u.#XN.j.C.4.I.4.C.Z.N X       . O.(.L.$XL.L.L.L.L.L.L.",
"*XL.L.p.L.L.L.L.L.L./.{.E.X   * 6 3 j B w.r.i.u.u.u.y.4.y.G.0.m f : 6 o   F OX].L.L.L.L.L.L.L.L.L.L.",
"*XL.L.L.L.L.L.L.L.L./.L.(.1 X [ q .   k M r.M.M.u.u.u.N.m.e.M :   @ X.q   R.(.L.L.L.L.L.L.L.L.L.L.L.",
"*XL.L.L.L.L.L.p.L.L.L.p./.}.E.w = = * ~ / ' ) x < < < Q ' ` ^ q 6 # o ^ OX,X#XL.L.L.L.L.L.L.L.L.#XL.",
"*XL.L.L.L.#XL.L.L.L.L.L.p./.[.= O w u ( ( ( _ O X     * +.' _ ~ y & X O.(.L.L.L.L.(.#XL.L.L.L.L.#X#X",
"*XL.#XL.L.L.L.#XL.L.L.L.L.L./.'.Y.S & 6 6 6 7 O..X@XQ.o.* * w * = ^ E.+XL.L.L.L.#X*X#XL.L.L.L.L.#X$X",
"*XL.L.L.L.L.L.L.L.L.L.L.L.L.p./.(.3         X ~.>X3X-XE.    X     Y.(.L.L.L.L.L.L.L.#XL.L.L.L.L.&X:X",
"*XL.L.L.L.L.L.p.L.L.L.L.L.L.p.L.L.'.R.E.E.R.E.,X-X>X&X{.E.Q.R.E.E.}.L.L.L.L.L.L.L.L.L.L.L.L.L.L.&X:X",
"*XL.L.L.L.L.L.L.L.L.L.L.L.L.L.$X#X,X].{.].{.,XL.J.i.a.(.[.[.[.,X].(.L.L.L.L.L.L.L.L.L.L.L.L.L.L.#X#X",
"#XL.L.L.L.L.L.L.L.p.#XL.L.L.L.L.L.L.#XL.L.L.#Xp.s.t.P.L.J.s.s.#XL.L.L.L.L.L.L.L.L.L.#X#XL.#XL.L.L.P.",
"*XL.L.L.L.L.L.L.L.L.L.L.L.L.L.L.L.L.p.L.L.L.#XP.P.a.P.L.s.I.p.p.L.L.L.L.L.L.L.L.L.L.P.#XL.L.L.L.#X#X"
};
