/* XPM */
static char *result[] = {
/* columns rows colors chars-per-pixel */
"50 50 228 2 ",
"   c #1D0201",
".  c #1A0A09",
"X  c #1A1215",
"o  c #230401",
"O  c #2A0503",
"+  c #260A05",
"@  c #2A0A05",
"#  c #2A0B09",
"$  c #330C04",
"%  c #3A0C04",
"&  c #310E09",
"*  c #33120C",
"=  c #3C150B",
"-  c #3C1B0E",
";  c #3A1913",
":  c #281D22",
">  c #3D2726",
",  c #35292B",
"<  c #470C03",
"1  c #430D04",
"2  c #451306",
"3  c #4B1304",
"4  c #47170B",
"5  c #4D150A",
"6  c #4D1B0C",
"7  c #571607",
"8  c #521509",
"9  c #521A0D",
"0  c #5B1A0B",
"q  c #441B14",
"w  c #4B1D13",
"e  c #431F19",
"r  c #541D13",
"t  c #5B1C13",
"y  c #631805",
"u  c #63190A",
"i  c #611F13",
"p  c #46231A",
"a  c #4C221C",
"s  c #542315",
"d  c #5C2314",
"f  c #54241B",
"g  c #5C251A",
"h  c #512C1E",
"j  c #5B291D",
"k  c #6A220F",
"l  c #632215",
"z  c #6C2314",
"x  c #692817",
"c  c #632419",
"v  c #6A251A",
"b  c #642A1D",
"n  c #6B2A1C",
"m  c #722414",
"M  c #742B1C",
"N  c #79291B",
"B  c #78311F",
"V  c #492824",
"C  c #4C2B25",
"Z  c #4C2D2A",
"A  c #512723",
"S  c #532B25",
"D  c #5B2A22",
"F  c #542C29",
"G  c #592F2C",
"H  c #57312A",
"J  c #5B332C",
"K  c #4C3437",
"L  c #553936",
"P  c #652B22",
"I  c #652A24",
"U  c #6B2D23",
"Y  c #732D21",
"T  c #752F25",
"R  c #6C3125",
"E  c #64352D",
"W  c #6C332B",
"Q  c #743324",
"!  c #7B3324",
"~  c #743827",
"^  c #7D3826",
"/  c #73342B",
"(  c #7B352A",
")  c #743A2E",
"_  c #7C3B2D",
"`  c #6A3631",
"'  c #6C3A34",
"]  c #683B38",
"[  c #7E3532",
"{  c #753B33",
"}  c #7B3D34",
"|  c #743D3A",
" . c #7C3F39",
".. c #64423D",
"X. c #6F413D",
"o. c #734035",
"O. c #7C4235",
"+. c #76423C",
"@. c #7B433C",
"#. c #7C493E",
"$. c #6E4541",
"%. c #764542",
"&. c #7C4541",
"*. c #7D4A44",
"=. c #754B48",
"-. c #7C4C4B",
";. c #803319",
":. c #812E20",
">. c #863528",
",. c #813A2B",
"<. c #8B3D2C",
"1. c #903D2C",
"2. c #843D35",
"3. c #844134",
"4. c #8B4435",
"5. c #83443B",
"6. c #8A453B",
"7. c #86483F",
"8. c #8C4A3D",
"9. c #924638",
"0. c #944A3D",
"q. c #834642",
"w. c #884642",
"e. c #844B44",
"r. c #8B4C44",
"t. c #844D4B",
"y. c #8B4E4A",
"u. c #924D45",
"i. c #924F4C",
"p. c #8C5145",
"a. c #84514C",
"s. c #8C524C",
"d. c #945043",
"f. c #995246",
"g. c #93534C",
"h. c #99554C",
"j. c #93594D",
"k. c #9D594E",
"l. c #845451",
"z. c #8B5553",
"x. c #865954",
"c. c #8C5955",
"v. c #865A5B",
"b. c #8D5C5B",
"n. c #925653",
"m. c #945A55",
"M. c #9B5C54",
"N. c #975659",
"B. c #935D5B",
"V. c #9B5E5A",
"C. c #A4574D",
"Z. c #A25C54",
"A. c #A65E57",
"S. c #8E605E",
"D. c #9A6054",
"F. c #94615D",
"G. c #9B635D",
"H. c #A66055",
"J. c #AB6156",
"K. c #A2635D",
"L. c #AA645B",
"P. c #A0695D",
"I. c #B1675D",
"U. c #8F5E60",
"Y. c #915F61",
"T. c #995E61",
"R. c #8E6161",
"E. c #946363",
"W. c #9B6563",
"Q. c #966867",
"!. c #9D6965",
"~. c #966669",
"^. c #9A6769",
"/. c #956A6B",
"(. c #9C6B6B",
"). c #9A706D",
"_. c #976F70",
"`. c #9D6E71",
"'. c #9E7172",
"]. c #9C7479",
"[. c #A46663",
"{. c #AD6661",
"}. c #A36A65",
"|. c #AC6B65",
" X c #A36C6B",
".X c #AB6D6A",
"XX c #B56D63",
"oX c #B06E6E",
"OX c #AB7167",
"+X c #A4706E",
"@X c #AB716D",
"#X c #B2726D",
"$X c #A26E71",
"%X c #A47374",
"&X c #AB7574",
"*X c #A67976",
"=X c #AC7975",
"-X c #A67679",
";X c #AA7679",
":X c #A5797B",
">X c #AC7B7B",
",X c #B17673",
"<X c #B97770",
"1X c #B37A75",
"2X c #BA7974",
"3X c #B17C7C",
"4X c #BC7E7C",
"5X c #C27B73",
"6X c #AC807F",
"7X c #BF8173",
"8X c #B3807F",
"9X c #BB817D",
"0X c #C68376",
"qX c #C2847D",
"wX c #AE7E81",
"eX c #B27F81",
"rX c #AF8181",
"tX c #B48383",
"yX c #BA8483",
"uX c #B48689",
"iX c #BA8789",
"pX c #BC8A8B",
"aX c #C38985",
"sX c #C38C8B",
"dX c #C78C8A",
"fX c #C7908C",
"gX c #C49393",
"hX c #C79598",
/* pixels */
" XiX>XtXpX/ _.&X[.s.q.z.l.c.t.t.&.!.t.) t.a.a.S.b.c.%X{ b.@.+.c.t.e.%X!.z.l.7.W t.a.tX9 &.=.}.`.-XV.",
"%Xy. XyX' E. .B.!.>XQ &X%XN.yX,X,XwXuX;.O.V..XM.0 !.~.-X@X,.5.*XwXwXG.4XsX&XL.W b.2XqXl.g.} }.V.;XyX",
"%X9X[.| oXn.y.m.A.%X{ I V.*XR.c.j V.V.M W .XV.W.p.$X~.$Xg.8.| %X>XrXQ.9XG./ 4.] .X0 r.n.&X@Xo.s.%XB.",
"3Xf.X.&X[.k.J.A.}.1XQ @.6XpXl.eX(.+XP.5.{ V.O.%.+.%X^.%X(.R e.wX(.m.v 4XyX*Xr.c @.g.3Xq.q.K.g.{ v &X",
"k.E V.[.[.H.^.t.^.W.v { 3XE.>Xb.B.tX+X<.#.K.g.O.E.^.^.^.>X@.w 3X&XW.pXtXe.n.g.P n.i m.h.3.0.j.V.{ H.",
"` 5XA.f.5.U B.-X&X%X/ e.+X8X>X X^.B.F.e.c p.@XU.b.E.^.(. Xs.t.(.$X^.Q.^.8X^.f T ;X8 y.{.7.V.V.3.Z.q.",
"t.&XB.V.M.l.`. XE.>X_ 4 3XuX(.2.&XtXe.!.v z.f rXiXW.f.2.wXD.B t wX{.4X{.9Xd.>.U '.!.e.d U ,X9Xz. Xu.",
"e.=X&X1Xg.~.`.E.%Xc.9 q 1 3 % $ % 4 5 3 # 3 3  .3 3 7 3 8 % 2 j 6 3 5 3 3 5 w r pXQ.%X(.| >X+ O v A.",
"i.>X>Xe.) S.(.wXE.l x.s.s.b.b.b.c.F.E.*.7.a.*X! A A #.%Xx.l.Y.l.c.G.Q.(.E.@Xb.t.5 ,X}.}.>XQ.>X.Xi.%.",
"V.Y.>X^..XY +X`.0 a.r.b.l.wX}.0 9 sXc.m.+XQ.L.S m.y.J r.b.t.$XeXV.}.@.s.s.b.c.B.O.6 pX{ fX(.}.x.5.|.",
"x 5 4 8 $ Q M 5 a.x Q.&Xg.x c.z.>X>Xb.}.p.g.. a.q.#Xu.. M W.y.W.t.G.!.H.|.&X}.}.8 5.2 y g 2 8 s f U ",
"+.E.' F.q.c.' R +XQ.^.) e.^.q.5.^.fXB..Xl C @X&.}.#Xl.G.E H.>X^.E.m.c.k.}.@Xz.yX+X}.a F.-.x.b.v.c.p.",
"} l.*XB.1 % 6.j { M. .2Xz.y.c.!.r.&X Xc a M.%Xv.{ ' m.F.b.A l [.Q.M.9XM.l.yX/.M.m.E.s a.`.eXb.W.&.<.",
" .v.F.3X&XtX@Xg } S.@X}.[ y.H.M.9X3X8 h b.b.E.m.V > *X.X&.$XJ 0 n.W.7XE.>X9X/.b.iXtXw l.U.(.(.T.}.p.",
"} uX&X(.}.S.%Xg 7.tX>XyXW.) } &X@Xm A $X>X&XU.Z /./.Z &.l. .2.C XX; %.S.%X(.%X@X&XH.w *XB.+XyX&XU 7.",
"&.hX/.E.b.^.b.g 5.Q.B.b.`.W.B. XQ S yXt 0 F.V R.'.'./.Z V.} >XX.S ^.tX>XrX_.'.s.m.OXp F.B.b.$XW.| r.",
"s.;X XB.W.+X8Xd U E.E.F.m.` [.4.A .X2.m.%.V /.(.:./ B./.K  X X0.u.Z n *X%XW.b.` &X<Xw &X&X XyX(.B.G.",
"W %X1XrX6Xq.9X6 ) ) z.@Xs.a.<.C }.%X3Xf.Z /.`.B.(.t.b.Q.Q.L ^.g.0.r.J 2 b.b.%X&.fXl ; G.I %X(._ ^.4.",
"U tX>X&X>X|.9Xd W q.&XP.~.m a iX Xb d.Z /.%Xe.!.n wX!.+XF./.Z h.( 3 wXS d >X@X2Xc.E r >Xv tX&XyX|.j.",
"2 ( z z D U ! 9 n.-XfXaXB A tXiXm.@XG `.&Xa.(.*Xz.P.`.n.s.F.(.H `.3X*X^.J U Z.b.B.) 4 U m N M M N 7 ",
"K @ @ @ & + + :  X&X3X Xa  X&XV.[.V (.^.e.%X+XS.c #Xr Q.G.E G.`.L >X). X>XV l G.W.{ : @ @ @ # O $ L ",
"7.o.G.g.G.s.V.9 (.$XZ.p  Xl.%XI V /.rXs.&X>X(.b.:X>XN t >XV.x F.(.Z E.G. XU.F 0 (.@Xr yXdX9Xb.{ ( e.",
"g e.@XF.sXs.}.b (.N + F.B..XM.V /./.'.%XQ.e.>Xl sX;Xy >X%.@.G.{ F./.Z h.^.E.yX+ c L.g W.1X#X(.~.W./ ",
"@.H.s.G.2.F.c.s ( F s.s.B.aX> _.%X%X*X-X2X@X+.*X%X%X>XR./.} @.G.a.a.(.Z F.Y.Z.m.H l p r.e.r T.(.Q.6.",
"m.g..Xg.g.Z.} a C H.2.2X4.V (.'.[.Q.%X(.s.-X&X.X| 1Xt *.a.8XS.%XV.v a./.L K.F.G.M.G q f._ %.$XU.-Xn.",
"P v.8 U y.y.g.R ; #.n.j.5 6 &X-X%X>X%X%X%X&X1.g.a.I Q.l.r. XE.&X<.a.;X'.h @XP j.k.& D n. Xb.Y.&XE.P.",
") _.6. .x.O 2 b E.  ( yXW.m.W %Xz.%X%XK.w.&.`.$Xl.S 3Xl -X&Xb.>.%X4X*Xb >X&XB.x   t.h K.I.%X X>XY._ ",
"W Y..X;X;XF.5.b  XF.+ E.+X^.>Xx *X X%X%X3XtX/ uX/.` :X&XM F.9.*X&X%Xb ^.%X( n.o -.>X9 F.$ E.;Xz.l._ ",
"` D.@Xm.N 4 R.j %X~.l.* Q.B.>X7.r %X%X%X%X$XG.9X-.l.U.b. XN %XXX*XR M l.}.y.  c.eXW s ^.4 b y. X,X( ",
"] J H J $.=.L   &XF.>Xx.+ ;X3XW |.f 1X&X X&X3XL.i.^.t.}.Q U.0.@X} V.W..Xz.@ S ;X>X X. ' H ' W F ] ` ",
"| b..Xc.x.c.g.@.%XR.%X%XB.q .Xs.s.}.f %XpX X&X$X X-.G.U B.4.*X/  Xl s.m.@ , z. XU v D  Xm.^.W tX(.G.",
"W V.b.*.x.W.>Xf { +X^.^.^.m.@ ^.g m.W.a -X%X X%X(. X7.t.>.%Xx ;XrX>XG.* ` (.) $XaXo.w (.t < 5.U.%XA.",
"n pX% b.iXtXpXj d.&XN.W.W.}.p.e 6.y.W.z.f ;X*X}.>X%XB.T &Xl E.B.`.v.O *.b.t A.2.pXn.a tX3XtX^.F.aXXX",
"l b./. X&XE.B.d } @Xm.@Xg.,X5.e.; y.r.N.B.P -X;X6.6.[.5.t W.%X3X;X+ l.n.&X8.t e.tXs.r uX>XwX XR ).7.",
"} H.>XyXc.W.c.d P >Xa.V./ d Q.z.}.- c.E.pXc.W -X-X-X*XW =Xm.v.c.O -.[.6.>XL.n.@.3XdXw R.'.v.m.E.3X_ ",
"y.&.B.W.}.@XB.d &.F.!.9X4X XW.eXb.l.q c.e.c.sXI -X*Xl M.B.;X>XO e.&Xr.r.6.E.%X$X.XO.w %X>XfX6.tX(.r.",
"W  XB.(.c.q.u.g | q.&Xc.Y y.(.^.}.^.E = R.S.@.1Xs b m.@Xs.t o (.+X9X2.r.E z.b.{ Q.n.p ^.G.y.y.sXgX_ ",
"r.iXW @. Xz.7.s W.2X2.r.{ b.!.t.B.oXE.e.= tX,XF.l s V.E.^.O [.| ^.^.}.E.F.b.-.s.@.j 6 j.g.T Z.c.4XqX",
"n g 9 >./ u 7 h K.z.c.M.9Xz.G.a.l.tX>Xb.=X; n.~ h.V.) s.o ^.*X>XsXtXpX#.pX~.sXq.c.} ; 4.% 6.u 5 9 k ",
"a.*.*.%.e.q y.| r B.V.s.}.Y.B. X&XY.W.V.%XtX. (.F._ p.X E.W.>XB.F.'.s.+X*X3Xy. Xm l | s.t.a.e.b.a.x.",
"V.b.G.b..X,X,Xw.} 8 wXB.V.|  XE.^.|.B.V.Y.W.,X* .Xe.o e.W.sXB.&Xp.Y.V.$.U. .x.0X4 { 1Xp.XXK.n.B.c.M.",
"s.L.h..XV.XXA.[.c e.w M.( j E. X1X3XL.H.C.K.+X' * + I &XeXA.qX.Xy.! P 9 9 4.XX0 @.V.f.V.^.V. X.X}.{.",
"{ V.M.}.d. X,Xz.>Xg./ ` e.g.' E W &.5.E > W a.} }  .*.E { S G ..{ @.@.*.O.@.L ` $ 2 2 5.@XP M. Xc.k.",
"/ g.&X5.$ B.W.^.x.OXx ' b.r.3XE.R.eX Xs.) 3 !.r.4X,X.XB.&X4.y.,Xg.~.~.(.(.d.c.c.gXa.gX(.).p v }.M.f.",
"9 b.h.5.e.$X(.z.%X>Xb l B.z.V.iX$X7.s.q.p.g.V.g.r.r.M.m.m.u.z.&Xe.E.(.sXsXM m.W ) _.>X>X%XR.`.Q.b.x ",
"|.{ V.h.$X^.Y.eX&X*Xs j >Xb.E.>XsX(.s.2.3.K.P W.z.m.u.W.m.B ) eXwXsXT.>X(.8XD.W ,X%XR.b.pXE./.%Xg.V.",
"^.@ | &.c.&.t.| iX+.) dX X^. XB.&X%X`.D +.< U x n s.A.[.m.( #.R B.V.c.z.W.^.A.I tX3XS.(.*X>XE.{ 8 % ",
"3X^.}.* (.;XeX(.(.s.U P x =X^. X^.=Xt.O.l.>X>X&Xx.^.{ .XV.6.s.W _. X3X&X4.b.h.` ^.:X!.>XiX(.0 &X{ T.",
"wXr.^.= +.^.^.>X&Xb.Q 5.uXW.U. X&XpXC.8.l.E.rXE.n  Xc.e %X@.3.&Xc.t.$X;Xe.$X^.I $X$XpXR E.d ! 2X%X].",
"L.aX^ E -XO.F.<X>.9.l b z 3.3 x u m i m / :.M _ b ( d._ <.2 R z M u.C.f.Z.N ^ s B u.^.V.9 1 h.,X{.B "
};
