/* XPM */
static char *_5b53900cdaa4204b6dffe5f41552524vi0AM0KmVPeJRCdr[] = {
/* columns rows colors chars-per-pixel */
"50 50 256 2 ",
"   c #010000",
".  c #0A0101",
"X  c #03010C",
"o  c #030B04",
"O  c #140403",
"+  c #021C00",
"@  c #051705",
"#  c #091811",
"$  c #161210",
"%  c #311010",
"&  c #052805",
"*  c #073704",
"=  c #122A14",
"-  c #2E2F12",
";  c #2E1E2F",
":  c #112E25",
">  c #293B25",
",  c #2F332D",
"<  c #060029",
"1  c #591300",
"2  c #49170F",
"3  c #482405",
"4  c #583A02",
"5  c #4F3112",
"6  c #7A3803",
"7  c #4B3634",
"8  c #53332A",
"9  c #67362C",
"0  c #431D22",
"q  c #115713",
"w  c #345110",
"e  c #056B07",
"r  c #017904",
"t  c #036A16",
"y  c #01781A",
"u  c #176D10",
"i  c #2F6C12",
"p  c #1B5B28",
"a  c #0D522D",
"s  c #294A27",
"d  c #354E2F",
"f  c #006726",
"g  c #057C26",
"h  c #157729",
"j  c #126E31",
"k  c #3C683B",
"l  c #2E732D",
"z  c #464506",
"x  c #5B4904",
"c  c #4D5610",
"v  c #714E0C",
"b  c #4C6A00",
"n  c #756A12",
"m  c #514B30",
"M  c #665325",
"N  c #694837",
"B  c #78453A",
"V  c #724B2A",
"C  c #4D6E32",
"Z  c #766730",
"A  c #332D48",
"S  c #1C2B5D",
"D  c #493068",
"F  c #6E3259",
"G  c #387641",
"H  c #30547B",
"J  c #276461",
"K  c #4B4A49",
"L  c #715048",
"P  c #49744D",
"I  c #6D6E55",
"U  c #4E4974",
"Y  c #646B6A",
"T  c #AB2A10",
"R  c #8B5B1E",
"E  c #A85004",
"W  c #897800",
"Q  c #987801",
"!  c #916716",
"~  c #A97002",
"^  c #956D2C",
"/  c #A2763D",
"(  c #845C38",
")  c #C07D13",
"_  c #8A5A47",
"`  c #90524B",
"'  c #997B57",
"]  c #91714C",
"[  c #A77849",
"{  c #A5746B",
"}  c #8C636A",
"|  c #C16456",
" . c #0A8B0D",
".. c #0EA90E",
"X. c #27AD1B",
"o. c #2CB10F",
"O. c #0C8C28",
"+. c #289928",
"@. c #318F2E",
"#. c #28A43A",
"$. c #35A839",
"%. c #38BD3F",
"&. c #36B33F",
"*. c #2FA62B",
"=. c #19A120",
"-. c #558E0F",
";. c #708C0F",
":. c #69A602",
">. c #66B400",
",. c #6FAA11",
"<. c #50952F",
"1. c #6B9632",
"2. c #48A632",
"3. c #55AC18",
"4. c #3EC300",
"5. c #45C200",
"6. c #358D43",
"7. c #349342",
"8. c #349C41",
"9. c #399844",
"0. c #35974B",
"q. c #34A241",
"w. c #3AA744",
"e. c #3ABE41",
"r. c #39B442",
"t. c #3CB152",
"y. c #4B8A48",
"u. c #4A8955",
"i. c #469954",
"p. c #549655",
"a. c #508D4C",
"s. c #68954A",
"d. c #669052",
"f. c #45AA47",
"g. c #44BD4A",
"h. c #47BA47",
"j. c #53BD46",
"k. c #57A65B",
"l. c #56B959",
"z. c #4FAD51",
"x. c #66B65A",
"c. c #6EAA52",
"v. c #518965",
"b. c #54B468",
"n. c #5BAA63",
"m. c #6FA76C",
"M. c #71946B",
"N. c #3BC040",
"B. c #43C343",
"V. c #4BCA44",
"C. c #45C14B",
"Z. c #4AC548",
"A. c #53CD46",
"S. c #58C649",
"D. c #5AD347",
"F. c #4DC154",
"G. c #50C356",
"H. c #52C658",
"J. c #5CC050",
"K. c #62D44A",
"L. c #65DA4A",
"P. c #6ADD4B",
"I. c #65C75B",
"U. c #6BDA53",
"Y. c #72DC5C",
"T. c #6EE14B",
"R. c #5CC960",
"E. c #7DE461",
"W. c #66CB6B",
"Q. c #8C8600",
"!. c #918E0E",
"~. c #A48801",
"^. c #A99600",
"/. c #B59600",
"(. c #AF8D12",
"). c #BBAD00",
"_. c #97843A",
"`. c #AB8B34",
"'. c #CAAE09",
"]. c #C7862E",
"[. c #CBAA31",
"{. c #E1B800",
"}. c #ADD625",
"|. c #DBC600",
" X c #DDD30A",
".X c #E8D903",
"XX c #F2DA0B",
"oX c #D5FF00",
"OX c #E7E600",
"+X c #F4EB00",
"@X c #FEFE00",
"#X c #FAF702",
"$X c #F5F00C",
"%X c #F3DB35",
"&X c #FBEA26",
"*X c #FFFF29",
"=X c #F5F236",
"-X c #90884D",
";X c #B18B53",
":X c #88926D",
">X c #AD906D",
",X c #B9AE6D",
"<X c #A2A958",
"1X c #C8924C",
"2X c #D2B04D",
"3X c #F6AF55",
"4X c #C79866",
"5X c #C79A78",
"6X c #D9B776",
"7X c #CCA975",
"8X c #ECB47E",
"9X c #ADC34D",
"0X c #FEF84A",
"qX c #FFF059",
"wX c #EBC76E",
"eX c #D8D056",
"rX c #3A519C",
"tX c #6E6B97",
"yX c #A35B9C",
"uX c #328983",
"iX c #6782B8",
"pX c #63C6A4",
"aX c #00AAD7",
"sX c #00C6EC",
"dX c #B3B292",
"fX c #8CA4A8",
"gX c #97919F",
"hX c #D7B68B",
"jX c #F0B58B",
"kX c #D59F97",
"lX c #B8C995",
"zX c #9CEEAC",
"xX c #D8C597",
"cX c #EBCB95",
"vX c #ECE797",
"bX c #CCC9A9",
"nX c #F8DCB5",
"mX c #F1CEA5",
"MX c #D7E7BE",
"NX c #FFEBB8",
"BX c #FFF5B8",
"VX c #F7EDA6",
"CX c #99B5CF",
"ZX c #F8CBC6",
"AX c #FDE8C4",
"SX c #FBF4C5",
"DX c #FCEAD9",
"FX c #FCFAD4",
"GX c #ECF0CB",
"HX c #F2DCE6",
"JX c #FFFEEC",
"KX c #FFFFE7",
"LX c #FEFFFF",
"PX c #FFFFF3",
"IX c #F1F0E9",
"UX c #D7DEE1",
/* pixels */
"R.C.C.C.C.C.C.C.C.C.C.C.C.N.t.f.g.g.z.t.h.C.C.C.C.C.C.C.C.C.C.C.C.C.C.C.C.C.C.C.C.C.C.C.N.C.t.t.g.F.",
"C.e.e.e.e.e.e.e.e.e.e.e.e.e.e.e.e.e.e.e.e.N.e.e.e.e.e.N.e.e.e.e.e.e.e.e.e.e.e.e.e.e.e.e.e.e.N.N.%.%.",
"H.e.e.e.e.e.e.e.e.e.e.e.N.e.N.N.N.e.e.e.N.%.N.N.e.N.N.N.e.t.e.e.e.N.e.e.e.e.e.e.e.e.e.e.e.e.e.e.%.C.",
"H.e.e.e.N.e.e.e.e.e.e.e.e.e.e.e.e.e.N.u.: i.i.i.i.0.i.i.i.a k e.e.e.e.e.e.e.e.e.e.e.e.e.e.e.e.e.e.C.",
"H.e.e.e.e.e.e.e.e.e.e.e.e.e.e.e.e.e.r.k   q p e t e e h t & @ l.N.e.e.e.e.e.e.e.e.e.B.A.V.N.e.e.e.C.",
"H.e.e.e.e.e.e.e.e.e.e.e.e.e.e.e.e.i.s d p y.z.+.*.*.*.&.@.r s d k N.e.e.e.e.e.e.e.N.A.L.A.N.e.e.e.C.",
"I.V.N.e.e.e.e.e.e.e.e.e.e.e.N.N.N.k o q @.@.*.X.X.X.X.X.o...h   = C.e.e.e.e.e.N.e.e.B.A.V.e.e.e.e.C.",
"E.D.B.e.e.e.e.e.e.N.e.e.e.e.N.z.d a j j j h y O.y O.y g u y h q q p k e.e.e.e.e.e.e.N.e.e.e.e.e.e.C.",
"Y.L.D.V.N.%.V.A.B.%.e.e.e.e.e.k   t 0.j j g g g y g O.g g h h +.l o & G.N.N.e.e.e.e.e.e.e.e.e.e.e.C.",
"Y.P.P.D.B.N.D.L.B.%.e.e.e.a.# A d ....=.=...=.....X.*.+.O.2.....+.h p & s %.e.e.e.e.e.e.e.e.e.e.e.C.",
"E.P.T.P.D.A.L.L.V.%.e.e.e.u.  w k 2.3.>.>.>.>.:.<.1.-.>.:.1.1.2.<.@.p o = e.e.e.e.e.e.e.e.e.e.e.e.C.",
"E.P.P.P.L.P.T.K.B.%.e.e.e.p.  i ,.} !. X#X$X#X^._ / (.+X&X`.^ [ !.,.<.@ : N.e.e.e.e.e.e.e.e.e.e.e.C.",
"E.L.j.j.U.P.j.j.h.%.e.e.C.u.o l -X!.Q.OX*X#X&X).^./ ' #X@X).!.-X-X-X1.* e l.g.e.e.e.e.e.e.e.e.e.e.C.",
"E.D.w.9.K.K.f.9.&.N.N.v.# a l d.s.W W XX0X^.W %X@X`.( +X@X@XqX;X_ [ W  .r . K e.e.e.e.e.e.N.e.e.e.C.",
"I.f.9.7.f.j.f.#.j.S.e.v.  w l d.>X`./. X0X/.~..XOX'./..X+X+X&X(./.(.[ C u   m g.N.F.N.e.e.e.e.e.e.C.",
"p.0.@.6.@.0.w.l.s.c.l.d.3 4 z _.eXqXqX|.'.&X@X/.^ &X@XXX'.~.Q 0X0X~.n x x ; 9 I.x.d.b.e.e.e.e.e.e.C.",
"i.q.8.q.8.q.e.x.v 2XmX1X~ E 6 1X.X.XOX|.|.+XXX(.yXeX@X{.4XyX^.OXOX).`.E T ` { 3X3Xn k.e.e.e.e.e.N.C.",
"H.e.e.e.e.e.e.m.2 7XJXFXBX,X^ XX*X(.Q .X*X/.^ [ ^ +X@X^.^ hX6X!.~.&X@XQ.-XAXFXJXvXw C e.e.e.e.e.e.C.",
"H.N.e.N.N.N.N.m.I x.bXMXGX<XR {.XX>XQ XX#X'.;X{ /.|. X`.;XxXmX' ~ &X+XQ.M.VXVXbXx.1.c.e.e.e.N.N.e.C.",
"H.N.e.e.e.e.e.e.N.s.% | ZX` 1 R 1XkX6X+X@X@X@X%X8Xv % ;XhXHXDX' E 3X3X| yXhX2X1 v e.e.e.e.e.N.N.e.C.",
"H.N.V.V.B.e.e.e.N.x.p.l.CX<XQ.! R 4XwX.X+X.X X[.`.] Z 6XmXAXDX>X[ ].].2X7XpXb.d.c.&.N.N.N.A.N.N.e.C.",
"F.N.D.D.B.N.e.e.N.N.%.pXsXpX@XQ 1 /.%X'.[.`./ 4 4 >XcXBXSXSXIXHXjX3 z oXoXsXsXe.e.e.N.N.A.L.A.N.e.C.",
"H.B.L.P.B.N.e.e.e.e.%.b.H 9X@X(.L ` / 1X2X^ ` ` R 6XnXZXnXeX,X:X] ( n +X#XJ uXr.B.V.2.N.A.P.D.V.N.C.",
"H.B.D.L.B.e.e.N.N.N.%.y.X ^.@X2X{ % . ( 4Xv F kXwXmXAXZXkXR - X . ] 1X@X$X# d e.A.P.A.N.A.U.T.L.V.C.",
"H.N.h.Z.h.%.e.e.e.e.e.v.  !.=X) ` P U yX} ( 6 7XnXNXBX4X{ F U U I n W wXwXo > e.D.P.D.S.D.P.T.T.D.D.",
"H.e.8.9.r.N.e.e.e.e.e.G   ^ qX! 2 MXLXtXA ; - xXFXBXvXx % D tXLXLXV 6 wX6X  # %.A.P.P.L.P.P.P.P.P.Y.",
"H.r.q.q.r.%.e.e.e.e.N.b.k.s.Z 8 2 lXLXtXS iXfXZXSXVXvX,XfXrXH UXIX8 2 _ s.p.l.g.h.S.K.T.T.P.D.j.K.Y.",
"H.e.e.e.e.N.e.e.e.N.N.e.%.a.    . dXHXtXS UXLXDXAXnXVXKXLXrX, GXDX%     $ %.%.%.w.@.j.P.T.P.z.9.j.U.",
"H.e.N.N.N.e.e.e.e.e.N.e.e.H.c.s   ' mXgXgXUXJXDXZXNXAXFXIXCX:XxXdX$ = p.k.e.e.e.w.8.f.S.S.Z.f.6.2.S.",
"H.e.%.e.e.e.e.e.e.e.e.e.e.B.D.p.  M ' AXPXNXNXNXSXFXFXAXGXPXFX;XZ   : %.e.e.e.e.N.e.$.9.7.7.@.6.6.i.",
"H.N.e.e.e.e.e.N.e.e.N.N.e.l.n.l = M Z ' 7XhXmXcXmXmXjXmXmXkX;X^ M > p k.b.%.e.e.e.e.q.8.7.8.8.8.8.w.",
"H.e.e.e.e.e.e.e.e.e.N.N.N.P o : i x v 4 1 4XmXhX8X8XjXjXjXT 1 x c k p   @ %.e.e.e.e.e.e.e.r.e.e.e.t.",
"H.e.e.e.e.e.e.e.e.e.e.x.p.G S gXzXL - i i <.k.k.s.s.d.m.p.h c 5 s lXdX> = y.n.e.e.e.e.e.e.e.N.N.N.C.",
"H.e.e.e.e.e.e.e.e.e.B.P   A H UXLXY & e O.e e e r t f g r  .l $ > KXJXm $ . , e.e.e.e.e.e.e.e.e.e.C.",
"H.e.e.e.e.e.e.N.e.l.p.C % 7 D Y Y K - i u r O.r r r g O. ...h d s I ] 8 8 ; m u.k.e.e.e.e.e.e.e.e.C.",
"H.e.N.e.e.e.e.N.e.u.  % M 5 7 . . w c w l l h e e e u t l l l d w     5 9 N 7 X s e.e.e.e.e.e.e.e.C.",
"H.e.e.e.e.e.e.C.N.v.  I 2X7XxXm o b !.x m K d <X}.}.}.n 4 9 m <.C = % ,XhX4X[ O d e.e.e.e.e.e.e.e.C.",
"H.e.e.e.e.e.e.e.%.p.  } AXPXLXI + -.c.C w w b eX=X=X*X;.z 9 i &.c.* w FXLXDXdX. s e.N.e.e.e.e.e.e.C.",
"H.e.e.N.e.e.e.e.%.Z.I.d., , d ; o e <.P P C w :.>.:.:.i w L <.+.@.& + d m , P l.l.%.e.e.e.e.e.e.e.C.",
"H.e.e.e.e.e.e.e.e.e.B.p.o       o t h #.t.h g f f j f t  .o.f.l w +         > %.%.N.e.e.e.e.e.e.e.C.",
"H.e.e.e.e.e.e.e.e.e.e.g.l.l.l.C   & & u +.=.*.+.0.0.0.9.=...l s &   > k.l.l.l.e.e.e.e.e.e.e.e.e.e.C.",
"H.e.e.e.e.e.e.e.e.e.e.e.e.e.e.a.. .   q  .o.4.5.3.3.f.z.r.O.p .     > r.e.e.N.e.e.e.e.e.e.e.e.e.e.C.",
"H.e.e.e.e.e.e.e.e.e.e.e.e.k.k C 8 0 % $ $ : = & + & & & : : # % - 7 k k u.e.N.N.e.e.N.e.e.N.e.e.N.C.",
"H.e.e.e.e.N.e.e.e.e.e.e.e.P   7 L 9 9 % . X   X X       X < O - 8 L L   @ e.N.N.e.e.e.e.e.e.e.e.%.C.",
"H.e.e.e.e.e.e.e.e.e.e.e.e.y.. 7 L v v 5 0 . X p.S.Y.I.=   % 5 9 N L 9   = %.%.N.e.e.e.e.e.e.e.e.N.H.",
"H.N.e.e.e.N.e.e.e.e.e.e.e.p.  7 N m M 8 8 $ $ g.D.T.V.C $ % 5 V N N m . s e.2.N.e.e.e.e.e.e.e.e.V.U.",
"H.e.e.e.e.e.e.e.e.e.e.e.%.h.l.P . o #   . k.g.C.V.S.B.C.I.K . O O . - x.C.e.e.e.e.e.e.e.e.e.e.e.A.U.",
"H.e.e.e.e.e.e.e.e.e.e.e.e.%.%.a.        # C.e.e.$.$.&.%.#.K     . . > N.e.e.e.e.e.e.e.e.e.e.e.e.B.Z.",
"B.e.e.e.e.e.e.e.e.e.e.e.e.e.N.N.g.C.N.e.g.e.N.e.#.#.r.e.q.q.t.N.B.g.C.e.e.e.e.e.e.e.e.N.e.e.e.e.e.e.",
"W.H.H.H.H.H.H.H.H.H.H.H.H.H.H.H.H.H.H.H.H.H.H.H.H.l.F.H.F.F.H.H.H.H.H.H.H.H.H.H.H.H.H.H.H.H.H.H.H.H."
};
