/* XPM */
static char *_9935d76a86947b6dfe3f500f2f567d4X4bKMzF8rOafEz2d[] = {
/* columns rows colors chars-per-pixel */
"50 50 174 2 ",
"   c #2F2A38",
".  c #342D39",
"X  c #2F3239",
"o  c #2F3C3A",
"O  c #32333A",
"+  c #3C333B",
"@  c #333C3B",
"#  c #3A3A3C",
"$  c #41323B",
"%  c #4B353D",
"&  c #423B3D",
"*  c #4A3B3D",
"=  c #523C3F",
"-  c #2F433C",
";  c #2F4B3C",
":  c #31433B",
">  c #3B423C",
",  c #314B3C",
"<  c #3B4A3C",
"1  c #2F533E",
"2  c #2F5C3E",
"3  c #32533C",
"4  c #38553F",
"5  c #325C3D",
"6  c #3B5C3E",
"7  c #2F633E",
"8  c #2F6B3F",
"9  c #33633B",
"0  c #3E673D",
"q  c #336A3F",
"w  c #3A6D3D",
"e  c #2F733F",
"r  c #2F7B3F",
"t  c #33743C",
"y  c #3A753D",
"u  c #337B3B",
"i  c #3B7B3D",
"p  c #46453E",
"a  c #4A433E",
"s  c #454E3D",
"d  c #4B4D3E",
"f  c #51433E",
"g  c #534C3F",
"h  c #4C533F",
"j  c #435D3D",
"k  c #4A5F3E",
"l  c #4F673F",
"z  c #44683E",
"x  c #43733F",
"c  c #447E3F",
"v  c #4C3C41",
"b  c #543F44",
"n  c #5A3F41",
"m  c #3D4540",
"M  c #2F5D40",
"N  c #2F6440",
"B  c #2F6B40",
"V  c #306540",
"C  c #3E6441",
"Z  c #326E41",
"A  c #3B6A41",
"S  c #2F7640",
"D  c #2F7E40",
"F  c #327341",
"G  c #387240",
"H  c #347C41",
"J  c #3C7E42",
"K  c #554442",
"L  c #5B4342",
"P  c #514D41",
"I  c #5D4B45",
"U  c #5D4F4A",
"Y  c #475340",
"T  c #4F5541",
"R  c #505440",
"E  c #5F5145",
"W  c #664847",
"Q  c #644D49",
"!  c #6D524B",
"~  c #74554E",
"^  c #755B4F",
"/  c #755950",
"(  c #795B50",
")  c #4B6C40",
"_  c #586344",
"`  c #447140",
"'  c #437B41",
"]  c #4A7F43",
"[  c #547243",
"{  c #74604F",
"}  c #7D6254",
"|  c #816355",
" . c #846957",
".. c #8A6D59",
"X. c #8D725B",
"o. c #2F843F",
"O. c #2F8C3F",
"+. c #33833D",
"@. c #3C833D",
"#. c #338C3E",
"$. c #3B8C3E",
"%. c #2F923F",
"&. c #32943F",
"*. c #39933F",
"=. c #319C3F",
"-. c #39983F",
";. c #32A33F",
":. c #33AA3F",
">. c #34B53F",
",. c #36BB3F",
"<. c #48803F",
"1. c #48883F",
"2. c #2F8440",
"3. c #2F8E40",
"4. c #358442",
"5. c #3A8242",
"6. c #358B42",
"7. c #398D44",
"8. c #2F9540",
"9. c #2F9A40",
"0. c #339340",
"q. c #3A9542",
"w. c #309D40",
"e. c #3B9B42",
"r. c #32A340",
"t. c #3CA444",
"y. c #33AC40",
"u. c #3DAC45",
"i. c #34B440",
"p. c #3EB446",
"a. c #35BB40",
"s. c #3CB944",
"d. c #4A8244",
"f. c #438D44",
"g. c #498942",
"h. c #568446",
"j. c #42A646",
"k. c #42AB45",
"l. c #51AE4B",
"z. c #41B546",
"x. c #4CB544",
"c. c #41BA46",
"v. c #49BB44",
"b. c #40B748",
"n. c #41BC48",
"m. c #37C340",
"M. c #3AC540",
"N. c #38C840",
"B. c #42C242",
"V. c #4CC545",
"C. c #44CC42",
"Z. c #4DCC44",
"A. c #47C049",
"S. c #4BC24A",
"D. c #51C646",
"F. c #53CC46",
"G. c #52C54C",
"H. c #54C94D",
"J. c #5BCC4F",
"K. c #47D143",
"L. c #4BD344",
"P. c #53D546",
"I. c #5AD647",
"U. c #53D945",
"Y. c #5ADD47",
"T. c #5ED04F",
"R. c #5EDD48",
"E. c #60CF50",
"W. c #62D350",
"Q. c #5CE147",
"!. c #5FE348",
"~. c #63E549",
"^. c #67E84A",
"/. c #68E94A",
/* pixels */
"n.n.n.n.n.n.n.n.n.n.n.n.u.e.p.u.e.u.b.b.p.u.p.p.b.n.p.p.u.p.n.n.A.s.A.A.p.u.t.p.u.r.p.s.n.n.n.n.n.7.",
"n.n.n.n.n.n.n.n.n.n.n.n.p.p.p.p.p.p.b.p.7.S F q.p.p.q.F F 7.u.n.p.p.s.s.s.s.p.n.s.p.s.n.n.n.n.n.b.7.",
"n.n.n.n.n.n.n.s.n.n.n.n.n.n.n.u.7.7.7.4.4.r S H 4.4.H S S H 4.7.4.q.u.n.n.b.n.n.n.n.n.n.n.n.M.A.n.t.",
"n.n.n.n.n.n.n.n.n.n.n.p.u.t.t.7.Z N N B 2.%.6.t N B S 6.9.6.B N N Z 7.t.u.t.u.b.n.n.n.n.n.S.S.p.n.n.",
"n.n.n.n.n.s.n.n.n.b.k.4.F Z Z t H 6.6.8.r.a.a.;.&.6.;.i.a.y.8.0.#.u F B B Z H t.n.n.n.n.S.E.H.p.n.n.",
"n.n.n.n.n.A.n.n.b.t.4.F S D D q.l.G.v.t.i.m.m.i.9.w.y.N.m.i.t.b.D.x.q.4.2.H F 4.t.n.b.b.S.W.J.n.n.n.",
"n.n.n.n.n.S.S.n.t.6.S +.9.w.9.z.Y.^.I.n.i.a.m.i.y.r.i.a.a.i.v.I./.R.z.9.w.w.2.S 7.t.p.b.n.G.l.n.n.n.",
"n.n.n.n.n.E.G.u.H S D :.,.a.:.z.U.^.~.I.c.i.a.N.m.m.N.a.i.c.P.~.~.I.z.r.a.a.y.+.Z F t.b.n.u.p.M.n.n.",
"n.n.n.n.n.E.l.5.F D 8.i.m.m.y.y.C.Y.Q.L.m.a.m.N.N.m.N.m.,.N.L.Y.Y.C.u.y.a.m.>.%.q M 9 7.p.u.b.n.n.n.",
"n.n.n.n.n.l.f.Z S 3.9.r.a.m.i.y.i.C.L.N.N.N.N.N.N.N.N.m.N.N.N.L.C.a.:.>.m.a.:.%.r M 3 q 7.z.n.n.n.n.",
"n.n.n.n.z.J F r 0.r.t.r.y.a.a.i.r.i.a.N.N.N.N.N.N.N.N.N.N.N.N.M.i.r.i.>.a.y.y.t.7.r e 1 , j.n.n.n.n.",
"n.n.n.n.u.F e O.:.B.F.B.i.;.r.r.9.r.>.m.N.N.N.m.N.N.N.N.N.N.m.i.r.9.r.r.r.>.M.D.t.O.t , , e.b.n.n.n.",
"n.n.n.t.7.F e D w.V.~.K.>.=.r.y.y.y.i.N.N.N.N.N.m.N.N.N.N.N.a.i.y.y.y.r.;.>.K.R.v.O.e 2 3 t e.n.n.n.",
"n.n.u.4.S S D 4.=.s.F.B.i.:.i.m.m.m.m.N.N.N.N.N.N.N.N.N.N.N.N.N.m.m.m.a.:.>.B.V.u.O.e 8 8 3 G e.b.n.",
"n.p.4.F S 3.r.y.,.i.u.r.y.a.m.N.N.N.N.N.N.N.N.N.N.N.N.N.N.N.N.N.N.N.N.m.>.y.:.t.=.%.O.r r 8 5 3 t.n.",
"n.u.Z F 3.r.a.m.N.a.>.>.i.y.a.m.N.N.N.m.N.N.N.N.N.N.N.N.N.m.N.N.N.N.N.a.y.i.>.:.;.%.O.e 8 e ; @ t.n.",
"n.u.F S w.a.N.N.C.K.K.N.i.r.y.>.i.a.a.m.N.N.N.N.N.N.N.N.N.N.m.,.>.i.a.y.r.i.M.C.c.:.$.t 8 8 ; @ t.n.",
"n.p.Z S &.i.M.N.U.~.Q.C.i.r.9.r.r.9.y.m.N.N.N.N.N.N.N.N.N.N.m.:.r.r.9.r.r.i.C.Y.R.F.w.D S 7 - @ e.n.",
"n.u.Z q +.r.i.N.Y.^.~.v.i.i.i.y.w.r.a.m.N.N.N.N.N.N.N.m.N.N.m.,.y.9.:.>.i.>.c.~.~.P.t.o.r 8 ; @ t.n.",
"n.p.Z N e 2.=.i.V.Z.D.i.i.m.>.>.y.M.L.K.K.N.N.N.N.N.N.N.N.N.L.N.B.>.:.,.m.s.v.V.D.v.*.o.e 8 ; @ e.n.",
"p.t.F V N r O.w.w.w.r.i.m.m.y.:.M.U.~.!.L.N.N.N.N.N.N.N.N.U.!.!.U.M.:.:.m.I.F.t.w.q.+.D S 7 - @ q.b.",
"e.F B H o.3.;.i.a.y.r.i.m.m.y.p.I.~.^.~.U.N.N.N.N.N.N.K.Q.!.^./.~.I.p.;.M.U.F.0.O.%.O.S 7 B M ; 4 5.",
"7.N D 3.9.r.a.m.N.i.w.y.i.y.r.y.Z.~.^.~.U.N.N.N.N.N.N.N.L.Q.^.^.Q.Z.u.;.u.c.i.0.O.O.o.e 8 r 7 ; O G ",
"4.N D 8.9.a.N.m.m.y.w.0.9.9.9.y.a.P.R.R.L.N.N.N.m.m.m.N.N.K.Q.Q.P.m.:.=.=.=.9.8.O.r r r S r 8 M X A ",
"7.M N S w.a.N.m.y.9.9.9.r.a.a.i.r.r.r.y.a.N.N.m.,.:.i.m.m.a.y.r.r.y.i.a.a.r.8.8.%.o.8 8 r 7 2 1 X G ",
"t.4.V S 2.r.y.y.i.r.9.r.i.m.m.a.r.r.r.=.y.m.m.a.:.;.y.m.m.i.w.y.r.w.i.N.m.i.y.9.%.O.e 2 ; - o ; Z q.",
"n.p.H F S 3.9.r.i.y.r.i.m.N.m.i.r.i.i.r.y.a.a.i.r.r.:.a.a.y.r.i.i.y.i.m.N.m.i.w.%.O.r ;       < t.n.",
"n.p.k.4.B 3.r.i.y.9.9.i.m.m.y.y.a.N.a.r.9.r.r.i.a.a.i.r.r.w.r.a.m.a.y.y.m.m.a.9.o.r r 7 - X , y k.n.",
"p.z.] ) M S 0.r.%.O.9.r.y.y.9.r.a.N.a.i.r.=.y.a.N.m.a.i.9.r.i.m.m.m.r.r.:.:.;.%.8 3 7 7 1 O > z k.n.",
"n.k.T d M A r o.o.O.%.O.O.9.9.w.a.m.m.a.r.y.m.m.N.N.N.a.y.r.i.m.m.a.r.%.%.%.%.O.7 - ; ; - + p z k.n.",
"n.k.h f * 3 2 8 o.O.%.O.O.8.8.9.9.i.i.r.9.r.a.m.m.m.m.i.r.9.r.i.i.r.=.%.%.O.o.O.o.8 o X + % x u.p.z.",
"n.k.h b = # 1 B r o.o.o.O.8.9.%.O.=.w.9.9.9.r.i.a.i.y.r.9.O.O.=.=.=.%.O.o.r r o.r 7 ; X . * x r.q.t.",
"n.k.Y Y k @ - 8 e 7 7 r %.%.%.O.o.O.O.9.8.%.%.;.;.=.%.%.8.O.o.o.O.O.O.o.8 8 e e B 7 1 o . & C 4.+.e.",
"n.z.6 A q.; o 1 2 - o 7 r O.o.o.O.o.O.O.8.O.o.o.O.o.O.O.O.2.r r r o.O.e ; ; 2 e S 8 1 - O . 5 4.u e.",
"n.p.e.q.q.- X o O O O m 8 r e e O.o.o.o.o.D r S S e r r e e e 8 8 r r e ; - ; B 8 2 - 1 5 o 5 u u e.",
"n.n.n.u.q.- o m # * K m ; 1 7 e o.S e S e 8 8 7 2 8 8 7 1 1 2 1 1 8 e 8 1 o o M 1 - ; t H 5 9 u 7.u.",
"n.n.s.n.u.A C C P ! } U # X 1 S e 8 7 7 7 2 2 1 1 1 1 1 - - - o o 2 N 7 ; X X m > > 6 y +.t u +.u.b.",
"n.n.A.s.n.e.' R Q ( X. .U + ; 2 M 2 , : ; 1 1 ; o X - 1 ; - X . X 1 M M @ . . # K W d z u u u +.u.n.",
"n.A.H.A.n.n.d.K !  .X.../ K # : : o @ + # @ o ; , X X o o # + $ # @ - # v K K Q ! ! f k u u u +.p.n.",
"A.n.H.H.n.n.d.K W /  .| ~ Q Y < # @ # * + O : 9 q , - @ O + * T s + + * W ! / | ^ W f j u u +.*.b.n.",
"n.n.A.A.n.n.d.P L Q } ^ ! I c y s 6 j p + @ 5 t t t t 9 : $ d c c a % = L ! { ^ W n f 6 u u -.k.s.n.",
"n.n.n.n.n.n.j.d.T _ h._ L g ' y s 9 0 > > 5 u u u u u t 5 : < J i & % = K [ h.E n f j w u u ;.c.n.n.",
"n.n.n.n.n.n.n.k.] g.e.Y % * ` G 6 w t 3 5 t u +.u u u u t 9 M Z t < & % p i f.g g k y u u *.j.c.n.n.",
"n.n.n.n.n.n.n.n.k.t.7.M @ @ A 5.<.i t t u u u u u u +.u u u F S u 9 : O @ A ' h l <.i u +.u.c.n.n.n.",
"n.n.n.n.n.p.n.n.n.z.u.e.J y i @.1.<.u u u u u u +.-.:.j.t.7.4.D u u 9 5 9 u H w c 1.@.*.u.c.n.n.n.n.",
"n.n.s.n.n.n.n.n.n.n.n.p.j.1.*.$.i u u u +.*.*.*.-.z.c.c.p.u.e.q.*.*.*.+.u u u u 1.*.*.u.c.n.n.n.n.n.",
"n.n.A.s.n.n.n.n.n.n.n.n.u.r.u.e.+.u u +.;.z.p.c.c.n.c.c.n.n.n.p.c.p.p.:.+.u u +.#.;.p.s.n.n.n.n.n.n.",
"n.n.n.n.n.n.n.n.n.n.n.n.c.p.p.p.t.t.u.u.p.v.n.n.n.n.n.n.n.n.n.n.n.n.v.z.k.t.;.t.u.p.c.n.n.n.n.n.n.n.",
"A.s.A.s.M.n.n.n.n.p.u.p.p.n.S.n.n.n.b.A.n.n.n.n.n.n.n.n.n.n.n.n.n.n.S.G.n.n.n.n.n.v.H.S.s.n.n.n.n.n.",
"A.s.p.p.b.b.b.n.p.u.e.u.p.p.M.p.b.b.b.b.A.p.n.n.n.n.n.n.n.n.n.n.n.A.H.E.A.n.n.n.n.S.T.H.n.n.n.n.n.n."
};
