/* XPM */
static char *_1b9c8eba71346f1bad52acf83a89dfdEQFUHhomj2npMUJq[] = {
/* columns rows colors chars-per-pixel */
"50 50 256 2 ",
"   c #000100",
".  c #090000",
"X  c #020B02",
"o  c #03020C",
"O  c #0A0A0C",
"+  c #160903",
"@  c #011D02",
"#  c #051607",
"$  c #191A03",
"%  c #050016",
"&  c #170D14",
"*  c #121715",
"=  c #230804",
"-  c #211800",
";  c #381D10",
":  c #002A00",
">  c #0A2508",
",  c #013403",
"<  c #003B00",
"1  c #053A0D",
"2  c #133404",
"3  c #0A2715",
"4  c #182B17",
"5  c #093917",
"6  c #163916",
"7  c #1B2407",
"8  c #272A00",
"9  c #322F11",
"0  c #050530",
"q  c #211E21",
"w  c #382527",
"e  c #253623",
"r  c #3A2F2B",
"t  c #441816",
"y  c #533012",
"u  c #6D350B",
"i  c #463435",
"p  c #523028",
"a  c #6D372F",
"s  c #611013",
"d  c #014C01",
"f  c #054607",
"g  c #055903",
"h  c #074715",
"j  c #0F5A15",
"k  c #185017",
"l  c #2D500E",
"z  c #046706",
"x  c #067400",
"c  c #056815",
"v  c #176B17",
"b  c #037915",
"n  c #187919",
"m  c #17760A",
"M  c #135228",
"N  c #2F522D",
"B  c #067926",
"V  c #177828",
"C  c #157232",
"Z  c #257A2A",
"A  c #3A6538",
"S  c #297437",
"D  c #2F7033",
"F  c #316906",
"G  c #514E0B",
"H  c #6F4210",
"J  c #51670A",
"K  c #716F08",
"L  c #4A4F28",
"P  c #6D4A30",
"I  c #49743C",
"U  c #4E663A",
"Y  c #786929",
"T  c #020C52",
"R  c #385549",
"E  c #3B7446",
"W  c #3D764F",
"Q  c #1A6C45",
"!  c #436841",
"~  c #487948",
"^  c #4D754F",
"/  c #6E694E",
"(  c #796E61",
")  c #5D4B5A",
"_  c #903000",
"`  c #883328",
"'  c #8B4900",
"]  c #9A7A00",
"[  c #93710B",
"{  c #B2750B",
"}  c #8A5234",
"|  c #8C673D",
" . c #8D7628",
".. c #A7662D",
"X. c #953B65",
"o. c #8F5149",
"O. c #96726A",
"+. c #A96C59",
"@. c #CC564D",
"#. c #008505",
"$. c #088C0F",
"%. c #349511",
"&. c #36A909",
"*. c #36A719",
"=. c #29A816",
"-. c #00852B",
";. c #018224",
":. c #148227",
">. c #078C31",
",. c #26892A",
"<. c #359A26",
"1. c #2A8A34",
"2. c #2B9C3C",
"3. c #358C2F",
"4. c #38A92B",
"5. c #2CA73B",
"6. c #37A83D",
"7. c #35B53F",
"8. c #38BD3F",
"9. c #39B63C",
"0. c #3BB128",
"q. c #12A535",
"w. c #53880D",
"e. c #43AD1A",
"r. c #4FB016",
"t. c #68B700",
"y. c #429B25",
"u. c #45983B",
"i. c #4F8832",
"p. c #6D8F3C",
"a. c #45A838",
"s. c #47AF27",
"d. c #709E22",
"f. c #6EC036",
"g. c #338E40",
"h. c #339341",
"j. c #349C41",
"k. c #3A9943",
"l. c #339152",
"z. c #37A542",
"x. c #35B340",
"c. c #38B541",
"v. c #3ABE41",
"b. c #37BA40",
"n. c #118461",
"m. c #588C4D",
"M. c #59954A",
"N. c #4C9C58",
"B. c #5B9654",
"V. c #4B934E",
"C. c #6C9948",
"Z. c #708749",
"A. c #46A944",
"S. c #41BF44",
"D. c #49BA48",
"F. c #55BA48",
"G. c #4DAA53",
"H. c #57A958",
"J. c #4DBD51",
"K. c #55B55A",
"L. c #55BC5A",
"P. c #59B858",
"I. c #65A857",
"U. c #71B457",
"Y. c #5AAC66",
"T. c #5BB063",
"R. c #67A561",
"E. c #3BC040",
"W. c #43C342",
"Q. c #4AC543",
"!. c #4BC944",
"~. c #45C24B",
"^. c #4BC24D",
"/. c #52CD46",
"(. c #59C647",
"). c #5BD347",
"_. c #5DD548",
"`. c #56D046",
"'. c #4EC053",
"]. c #58C555",
"[. c #63D549",
"{. c #65DA4A",
"}. c #6ADD4B",
"|. c #6ED157",
" X c #6FE24C",
".X c #76E456",
"XX c #74C863",
"oX c #8C8210",
"OX c #AD9608",
"+X c #ACA400",
"@X c #B68F2D",
"#X c #8CA425",
"$X c #CAB505",
"%X c #C4992E",
"&X c #D2B233",
"*X c #E3AD2E",
"=X c #AFD911",
"-X c #D1C706",
";X c #EFD400",
":X c #C9F009",
">X c #FAE900",
",X c #E7FD00",
"<X c #FEFE00",
"1X c #FAFB00",
"2X c #FCFE1B",
"3X c #EAE900",
"4X c #F8DB2A",
"5X c #F6E837",
"6X c #CBFF27",
"7X c #8A9343",
"8X c #AB8A4D",
"9X c #948E6B",
"0X c #A69775",
"qX c #A78E6F",
"wX c #A2AE6C",
"eX c #D2AB4F",
"rX c #C7A664",
"tX c #EEB571",
"yX c #C78E62",
"uX c #8BC853",
"iX c #DCCA47",
"pX c #F8CF4D",
"aX c #FDF54C",
"sX c #F4D26C",
"dX c #FFFA67",
"fX c #CCCB6B",
"gX c #032B8D",
"hX c #1D16B7",
"jX c #6E6B93",
"kX c #9675AD",
"lX c #6FA197",
"zX c #73C48C",
"xX c #6AC4AD",
"cX c #009EE5",
"vX c #1BD2FF",
"bX c #AAAE84",
"nX c #A1A09B",
"mX c #CFAE96",
"MX c #CFAD9A",
"NX c #B4CA91",
"BX c #AFCCA8",
"VX c #EFD58D",
"CX c #FBED8E",
"ZX c #EFD1B2",
"AX c #F6F2AE",
"SX c #CFD39C",
"DX c #A2AAD5",
"FX c #CEBFCE",
"GX c #FFFDC7",
"HX c #FBEBD9",
"JX c #F7FBD6",
"KX c #F4EDCA",
"LX c #FFFFFC",
"PX c #FFFFF4",
"IX c #E9EEEE",
"UX c #DDFEF8",
/* pixels */
"v.v.v.v.v.v.v.v.v.v.v.v.E.v.c.z.b.v.c.z.c.v.8.v.E.v.v.v.v.v.v.v.v.v.v.v.v.v.v.v.v.v.v.v.v.v.8.7.7.c.",
"~.v.v.v.v.v.v.v.v.v.v.v.v.v.v.v.v.v.v.v.v.v.v.v.v.v.v.v.v.v.v.v.v.v.v.v.v.v.v.v.v.v.v.v.v.v.v.v.v.v.",
"~.v.v.v.v.v.v.v.v.v.v.v.v.v.v.E.v.v.E.8.E.v.8.8.v.v.v.v.v.v.v.v.v.v.v.v.v.v.v.v.v.v.v.v.v.v.v.8.8.v.",
"~.v.v.v.v.v.v.v.v.v.v.v.v.v.v.v.v.v.v.v.v.v.E.E.v.v.v.v.v.v.v.v.v.v.v.v.v.v.v.v.v.v.8.v.v.v.v.v.v.v.",
"~.v.v.v.v.v.v.v.v.v.v.v.v.v.E.E.v.v.E.E.E.E.E.E.v.v.8.E.v.v.v.v.v.v.v.v.v.v.v.v.v.v.W.`.!.E.v.v.v.v.",
"~.8.v.v.v.v.v.v.v.v.v.v.v.v.E.E.v.].U.I.M.K.G.N.N.L.'.L.K.G.L.v.v.v.v.v.v.v.v.v.v.v.Q.{._.W.8.v.v.v.",
")./.E.v.v.v.v.v.v.v.v.v.v.v.W.E.v.U. .G l L l < h 1.6.u.3.d G.E.v.v.v.v.v.v.v.v.v.v.W./.!.E.v.v.v.v.",
"|.[.W.v.v.v.E.v.v.v.v.v.v.].p.U.XXuXsXOXK p.w.g h 5.0.<.4.<.9.].J.V.].v.v.v.v.v.v.v.v.v.v.v.v.v.v.v.",
"}.{._.!.v.v././.S.v.v.v.W.XX] @X%X5XdX$XK 7Xd.g h *.r.w.&.e.*.*.m g L.v.v.v.v.v.v.v.E.b.v.v.v.v.v.v.",
"|.}.}.{.W.W._.{.Q.8.v.S.C.#XdX&X{ { OX+X&Xd.%.d f y.r.e.&.&.&.=.4.6.6.g.C S S.v.v.v.E.v.v.v.v.v.v.v.",
".X}. X}.`.`.}.}.!.E.~.U.oX$X2X*X@.{ ] &XiX+Xs.k k %.=.s.=.&.&.&.&.e.%.v h , L.Q.v.v.v.v.v.v.v.v.v.v.",
".X}.}.{.}.}.}.{.W.~.C.rXaX-X[ @XVXtXeX4X,X,X6Xt.3.f g u.u.a.0.s.e.*.<.9.,.c f D E.v.v.v.v.v.v.v.v.v.",
".X_.F.F.[.}.F.A.v.^.P 8X2X;X{ @X%XyXtX>X<X,X:Xt.%.f f M.M.3.%.%.&.0.*.s.$.#.d 6 L.c.v.v.v.v.v.v.v.v.",
".X).A.k.(.[.A.2.c.].- Y <X1X;XoX; a ..;X2X+XY p.y.< < I.i.< , , m s.s.9.$.x Z S h D v.v.v.v.v.v.v.v.",
"L.G.2.g.A.F.6.z.c.].C.C.-X$X*X| / +.+.*X;X+XOX#Xi.z z 3.,.g j g m <.*.,.$.$.B V < M v.v.v.v.v.v.v.v.",
"k.g.g.g.g.k.x.b.v.v.E.|.w a 8XmXFXZXZX+.[ 3X<XOXZ.(.=.f g F.P.G.2.v z V B C ;.;.d M v.v.v.v.v.v.v.v.",
"z.j.z.z.j.z.b.E.8.v.v.^.I.C.y 9XZXsXsXmX@XpX,X+X| y.#.z z ,.1.2.1.b n B B C ;.-.c j G.L.v.v.v.v.v.v.",
"~.b.b.v.v.v.v.v.v.v.v.v.8.P.  P ZXCXKXZXeXaX,X+X..F z 3.v < d Z c :.b B B B -.;.:.V : D E.E.v.v.v.v.",
"~.E.v.E.v.E.v.v.v.v.v.v.8.Y.  y @XO.) NX5X<X,XOX@.U l l k 1 f v z :.#.;.;.-.B B B S , S v.b.E.E.v.v.",
"~.v.v.v.v.v.v.E.v.v.v.v.v.K.  & a o   9XAXdXaXOX..L L - $ 2 : @ g Z n :.:.>.C C :.Z > 3.E.E.E.E.v.v.",
"~.E.^.!.a.A.E.v.v.v.v.'.I m.kXjXR jXnXZXGXeX%X*X%XH a O.0XbXbXBXm.d g j 1 @ h c C Z h v I H.!.E.v.v.",
"~.E._.{.S.Z E.E.v.v.v.P.  G AXlXgXDXLXGXAX8Xo.tX$XH P tXZXGXJXPXwX# 2 4 * O , d V V g <   A _.a.v.v.",
"E.!.{.}.W.~.v.v.v.v.v.K.  p sXnXhXDXLXJXJX| ` pX3Xu o.KXKXGXVXwXU X X   U.J.M # 6 k k 1   ~ {./.W.E.",
"~.W._.{.W.8.v.E.v.v.E.K.* R tXkXhXBXPXUXIX} _ ;X,X' X.IXIXAXiXoXi   X > XXE.E # * e e 4   ~ }.}.).E.",
"~.v.^.(.v.v.v.v.v.v.v.v.~.Y.+ P ZXAXJXHXHX} u 4X<X*XDXvXxXrX..+ o   B.].Q.v.v.'.N   e e   A }. X{./.",
"'.c.j.j.c.v.v.v.v.v.v.v.v.L.5 Z.tXSXKXZXAX} a &X3X4XBXcXn.| ` = $ 8 I.j.6.b.v.v.V.N e 4 N I.}.}.}.{.",
"~.b.z.j.c.v.v.v.v.v.v.v.8.E._.U.  ( AXtXVXZXfX[ ' <X=XT 0   a tX4X<X:X5.6.v.v.v.a.].* $  X}.[.(.(.}.",
"~.E.b.b.v.v.v.v.v.v.v.v.8.E.).XXR B.0XqXqXbXwX9 y >X-XO   . p rXwX&XXXb.v.v.v.v.c.j.! m. X X(.A.A.[.",
"~.v.E.E.v.v.v.v.v.v.v.v.8.W._.{.^.B.X 3 9 8 6   + pXeX.   r 8 +     H.v.E.v.v.v.x.j.z.F.(.(.F.h.h.F.",
"~.v.v.v.v.v.v.v.E.v.v.v.8.E._. X].V.# M h k h X & qX7Xg , 9 7 . h W L.v.v.v.v.v.v.b.7.k.h.h.h.g.g.h.",
"~.v.v.v.v.v.v.v.v.v.v.v.v.v.^.R.  1 1.>.V S S @ % e k x v 6 >   T.E.8.v.v.v.v.v.v.E.9.j.h.j.j.j.j.j.",
"~.v.v.v.v.v.v.v.v.v.v.v.8.J.N.B.Y 1.#.#.b >.n @ 0 lXzXzXR.> #   nXW.8.v.v.v.v.v.v.v.v.c.c.c.c.b.c.c.",
"~.v.v.v.v.v.v.v.v.v.b.b.v.Y.  K 2Xf.z m ;.>.Q X $ JXPXLXBX      wXE.8.v.v.v.v.v.v.v.E.E.E.E.E.E.E.E.",
"~.v.v.v.v.v.v.v.v.v.H.H.Y.^ o F =Xw.l D B >.C @ + O.qXnX( X O e E B.].v.v.v.v.v.v.v.v.v.v.v.v.v.v.v.",
"~.v.v.v.v.v.v.v.v.J.#       . 2 x u a R >.>.:.@ & s t * O . h l.d   Y.v.v.v.v.v.v.v.v.v.v.v.v.v.v.v.",
"~.v.v.v.v.v.v.E.v.~.  O p ;   f $.i.i.J L J G + % t p p p 9 9 3 h M E V.'.v.v.v.v.v.v.v.v.v.v.v.v.v.",
"~.v.v.v.v.v.v.v.v.^.  * o.u o h -.q.s.K u _ u +   ; y a P Y 9 . 6 l.:   T.v.v.v.v.v.v.v.v.v.v.v.v.v.",
"^.v.v.v.v.v.v.v.8.'.  O o.a ; $ @ D F.y.y.y.u.C M X t ZXZXMX(   5 ^ 5   K.v.v.v.v.v.v.v.v.v.v.v.v.v.",
"~.v.v.v.v.v.v.v.8.^.e q a a p ; . N H.6.5.7.k.l.Q   w HXHXZX9X  4 W e 3 K.v.v.v.v.v.v.v.v.v.v.v.v.v.",
"~.E.v.v.v.v.v.v.v.v.~.T.o + a t t $ # c q.>.>., # X + w t t & o X # G.J.v.v.v.v.E.v.v.v.v.v.v.v.v.v.",
"~.v.v.v.v.v.v.v.v.v.v.J.3 8 r w r e e ! E D N #   X       . . O     K.v.v.v.v.v.v.v.v.v.v.v.v.v.v.v.",
"~.v.v.v.v.v.v.v.v.v.v.v.8.H.      Y.H.^                 & i i i O o N.v.v.v.v.v.v.v.v.v.v.v.v.v.v.v.",
"~.v.v.v.v.v.v.v.v.v.v.v.8.L.A R A J.j.m.N U A I A ~ A   & r w w A E L.v.v.v.v.v.v.v.v.v.v.v.v.v.v.v.",
"~.v.v.v.E.v.v.v.v.v.v.v.E.v.v.E.E.b.b.7.c.b.c.z.Q._.].#       X V.v.v.v.v.v.v.v.v.v.v.v.v.v.v.v.v.v.",
"~.v.v.v.v.v.v.v.v.v.v.v.v.v.v.v.v.v.E.E.v.v.5.2.D.}.`.V.~ m.^ ~ K.v.v.v.v.v.v.v.v.v.v.v.v.v.v.v.E.W.",
"~.E.v.v.v.v.v.v.v.v.E.v.v.v.v.v.v.v.v.E.v.v.c.c.`.}./.c./.}.).a.v.v.v.v.v.v.v.v.v.v.v.v.v.v.E.b.W.`.",
"^.v.v.v.v.v.v.v.v.v.v.v.v.v.v.v.v.v.v.v.v.v.v.E.(.[.Q.v.!.[.!.v.v.v.v.v.v.E.v.v.v.v.v.v.v.v.E.b.!._.",
"~.v.v.v.v.v.v.v.v.v.v.v.v.v.v.v.v.v.v.v.v.v.v.b.9.6.c.v.9.z.c.v.v.v.v.v.v.v.v.v.v.v.v.v.v.v.E.v.E.W.",
"~.v.v.v.v.v.v.v.v.v.v.v.v.v.v.v.v.v.v.v.v.v.E.v.5.2.x.v.x.2.5.v.E.v.v.v.v.v.v.v.v.v.v.v.v.v.v.v.v.v.",
"v.v.v.v.v.v.v.v.v.v.v.v.v.E.v.v.v.v.v.v.v.v.v.v.x.x.x.v.b.5.b.v.v.v.v.v.v.v.v.v.v.v.v.v.v.v.v.v.v.v."
};
