/* XPM */
static char *result[] = {
/* columns rows colors chars-per-pixel */
"50 50 105 2 ",
"   c #271413",
".  c #2A1615",
"X  c #2D1817",
"o  c #2C1718",
"O  c #2E1A19",
"+  c #301716",
"@  c #321B16",
"#  c #331D1C",
"$  c #391E1C",
"%  c #36201E",
"&  c #3B221E",
"*  c #351E21",
"=  c #391F22",
"-  c #362121",
";  c #3C2322",
":  c #3C2C26",
">  c #3F2528",
",  c #3E2A28",
"<  c #42251E",
"1  c #49271D",
"2  c #43281E",
"3  c #4E2C1F",
"4  c #422623",
"5  c #452A24",
"6  c #4A2D25",
"7  c #442729",
"8  c #432929",
"9  c #4B2E29",
"0  c #512F23",
"q  c #502F28",
"w  c #4C3126",
"e  c #45312E",
"r  c #4D3129",
"t  c #523026",
"y  c #54342B",
"u  c #59362D",
"i  c #56392E",
"p  c #5B392E",
"a  c #4B3832",
"s  c #553631",
"d  c #583730",
"f  c #573931",
"g  c #5C3B32",
"h  c #623D2E",
"j  c #623E33",
"k  c #693D31",
"l  c #603C3A",
"z  c #683F38",
"x  c #5E4035",
"c  c #5E443A",
"v  c #654135",
"b  c #6A4435",
"n  c #6C4935",
"m  c #654339",
"M  c #6B453A",
"N  c #6D493A",
"B  c #734C36",
"V  c #714639",
"C  c #724C3B",
"Z  c #7A4E3C",
"A  c #75523D",
"S  c #7A543D",
"D  c #7C5A3D",
"F  c #684641",
"G  c #634D44",
"H  c #744E41",
"J  c #6E5048",
"K  c #755243",
"L  c #7B5441",
"P  c #7D5942",
"I  c #73554D",
"U  c #7C5C49",
"Y  c #6C5D5A",
"T  c #71605E",
"R  c #7A685E",
"E  c #766860",
"W  c #7D6C62",
"Q  c #815B3B",
"!  c #895E3F",
"~  c #83613F",
"^  c #88643F",
"/  c #815340",
"(  c #825C43",
")  c #885A42",
"_  c #805F4C",
"`  c #856244",
"'  c #8A6444",
"]  c #8C6A44",
"[  c #85634A",
"{  c #8A654B",
"}  c #8D694A",
"|  c #926C46",
" . c #906E4A",
".. c #977447",
"X. c #94724C",
"o. c #99764B",
"O. c #896450",
"+. c #85635A",
"@. c #916C53",
"#. c #967154",
"$. c #9F7656",
"%. c #816E63",
"&. c #837164",
"*. c #857668",
"=. c #A38053",
/* pixels */
"G ] #.{ [ ] } ` D ` ] | o.=...| ' ( D P Q {  .| ' [ ( ' ! ) ` ` D Q D ( } X.} ` D S U D [ { [ { [ U ",
"( 6 B A N v y i x m n N n b N N N S P _ C M M k j b v n M v h v k z n v b p i p p u y y y t n v { @.",
"N n 2 P P S p 4 6 p g g g g j j z k j p s 9 g w 6 6 x g i t w w y y y 0 t u u 6 % r y 6 2 w x x L v ",
"N p $.6 m m w : # u t y y u y y t g u V b s u u u u p g g p u u g g u u y w k & : O 4 u j n K 5 k v ",
"C p v 6 y A n S B g h y y 9 6 y g g y w t w y p u w t 9 w s y w y g g g u d u d C g r v K 4 S v v p ",
"P b A p 6 N u K S z p u y 9 w w 9 9 y y u g s t w y 5 ; 9 w j g y u 9 9 t w w s g x g v 4 4 n p v v ",
"A N A v k k 4 C p n C C k y g g t y w p u j d 9 6 6 6 y u 6 6 6 u 6 u j g g y t n C @.$ p ( ( p p k ",
"C C A 9 v { Q $ O $ $ & < % # O # O * O # # $ $ O # * O O * # O O O # # $ # # $ % % @ ( x y y p w x ",
"A A i c z P A B O X . < u 4 O o . o o   . .   . . o .     . . . . o o   o . .     . # s n p @ u i n ",
"S N : % v M v < O 6 u 6 < ; m o # . . . o o o O . O O o . . . . o O @ o o o O .     $ r d y +.1 v A ",
"[ N 3 u p m u < < 6 & < 6 5 & j O O .   o @ # O # O # O O .   o O * O # @ o . . o   # 6 i r   C h ` ",
"( v 4 t g j q ; @ ; < 5 < 6 < ; p .   o O # # # - & % - # #   @ & ; # O @ O @ # o   O r f g I y v ! ",
"P g t y p u x & 4 5 2 2 5 & 5 5 ; k # . o - * O $ = * = ; # . @ $ 4 = $ O # # O O   O ; t g N u i Q ",
"C u u u u g z $ . u < 5 4 m 6 9 5 < h @ O * ; * = $ * 7 = * O o # 4 > * - # % $ #   O - t g H f h D ",
"C v j j h g u $ o @ 5 6 6 6 6 t 6 6 & K & O # * # & # = = * O   # ; > ; # % > % O o O $ t y u u v D ",
"Z g h z j b z @ o . # ; 5 & 3 u w 6 2 4 V * o # # = # = > * O o % * 7 , @ @ ; ; - O   - y u g u j S ",
"S z j z h z n $   O O O & 4 6 w 6 t 9 6 & y + @ @ - * = 7 = * o $ $ ; & & # 5 ; - o o - y u j u v P ",
"A m z j y g h &   O O X o 4 4 8 6 6 w w 5 4 b # O # = e 7 = * . & ; ; ; @ & 5 ; * o o % h u j y x L ",
"N p j g 6 k g $   # # # X X 7 y 9 w 6 6 r r 5 M O O # 4 = * o # 5 ; 4 , % % 4 , @ o O @ 5 # p h j A ",
"A g j m w y 6 $   O % O X o o - 9 r 5 6 5 w t e g O o * * 7 o . ; , 4 8 - % 4 4 O o O & b u d g m L ",
"N p j j y p j @ o O & # O O . o = 9 9 y 5 5 9 9 4 M @ @ # * . o % - ; 7 , & 4 4 - o O 4 z y u v b Z ",
"A g j j 6 y z O   % , - O O O O o @ 5 9 5 y 6 5 6 9 6 . # # o o - # 8 7 4 - 8 4 % o O 4 h y g M j A ",
"L p r g 9 p 4 O . & ; - - # # O o o * 5 6 9 s 9 < 5 5 u @ O o O - # > ; 5 * 4 ; - . . 4 i v m m p P ",
"A u 9 9 u M F @   ; 8 - $ - # . O o . O 5 6 9 y < @ 4 & C ; o . O O > 4 ; * ; 4 ; . O ; u g m M g P ",
"n 6 C d t u g O   ; 8 * - ; & O % O o o % 5 9 w w 0 ; 5 2 v # . o . - 8 8 # > 4 % . o 4 u u g j M L ",
"n 8 u y 6 u f @   ; 8 > ; # ; * % @   . . $ 6 & 5 9 6 ; t y t @ O O # ; > # & , @ . O 9 u y u g z V ",
"N 6 p g p y u O . * 4 - * * % $ & # . . . @ & 6 4 5 r 2 < 6 5 g % O O - , % $ 4 % . O 6 g 9 g m C / ",
"C s g m g s j O   * 4 ; ; > 7 ; # % .   O O . # 4 6 9 6 4 4 w 8 m o # @ * * ; - @ . o < u j s u C / ",
"L d p v p s M .   @ , 7 4 - e $ $ # O . # O O . % 8 g r 6 5 5 4 4 p @ O O # # ; - . O 4 i g w f b ] ",
"C j p j p w t O o # & 4 7 > 9 ; & - O . - @ O . . $ 4 r 6 8 6 6 ; 5 u . O O O $ O . O 5 i r y t j } ",
"N z p g w w 5 O   % & - > - 5 * O & %   ; - % X . . % 2 6 4 8 5 4 4 6 m - # @ O O   O > u 6 5 w g ' ",
"N v y p 6 & g o . # 4 - ; % 8 # O ; @   - - % O X . o % x 6 4 r 5 < ; * g O . O .   O - p r w w g ~ ",
"C j u y 6 w z O   - 7 = ; & 7 ; % & # . ; , - O @ O O . ; y 4 5 6 5 & 5 4 u $ o . o o @ t u 9 g g S ",
"A j p y 9 K @ O o # ; = & ; 7 9 & & $ o ; > ; # ; O o   . ; ; 4 6 4 6 & 5 5 d # o   o 6 y t q y g D ",
"A j g t 6 r ) O   % , ; ; 5 5 5 4 : O   > 7 * ; : % o . o . @ 5 ; 2 < 5 1 5 < u # . o $ g r t p x ( ",
"A g g r 5 r k @ o O & * ; 7 4 ; & % O   $ > # ; ; ; O @ o O O $ 5 ; 4 5 5 6 5 7 u 5 o - m y r u v D ",
"N i i r % w 9 . o # - , ; $ - % & ; O   # * * ; & - $ - O O   o & & & % J 6 9 4 4 & O y s g f d v P ",
"N i r 4 ; r 6 O o O - - = & $ % ; # O   - # * ; ; # # ; O O   o @ @ v 1 @ & 5 6 i X o t u g y j n P ",
"N y # y ; r r O . O # O - O # @ $ O O   * # * * = % @ - O O o o o . $ 4 5 5 y 6 y @ . y j v f m M ( ",
"C y O @ 9 y g *   O # . # # O o % O @   O O O # O . # # @ O   o . . o 5 2 ; 5 0 6 1 . 6 v z & g C ' ",
"A i a % 6 N y &   . . @ O   o . . O O .   @ O O . o o . O o   . . .   o & 5 $ x & & @ u m y G g H ^ ",
"A y 3 - x < s & O O . . o o .     .     . o . . .     o           .   . @ @ $ @ . o * n n g - y n ( ",
"P v C v w C C 0 } n v v v y t y 3 6 : # y 6 p w 6 6 5 u y 6 w t 6 0 9 6 y z N v n A C g l x u & n [ ",
"A x n g ^ 5 $ S N m b k p 9 r 6 g < n m 8 w 4 w 4 4 5 5 6 6 6 5 6 6 9 6 6 6 4 6 p v n $ [ x g 6 m #.",
"D x v x n D ( Z n g u g y w 5 5 8 9 6 6 6 5 6 9 t 6 5 7 w 9 9 9 5 9 6 6 9 5 w s i i v A - L c i m X.",
"] m A n u d s g p 6 u t u t 9 6 6 5 t 9 5 < & 4 u y y 6 6 6 6 6 9 y u 9 6 r w u y 5 t g ( P n w C @.",
"} n #.4 [ N B p a m & < 6 6 y u 9 y t w w s f d 9 6 7 6 y 8 5 w w w 9 u g s 6 p & I @ i S 6 w & A } ",
"@.[ w ) P S N n & o 5 4 5 6 d q u 9 r 6 6 w 0 u y u g p r 6 9 w r y u f y u p u n y / g p n % ; P S ",
"{ U N b p p x x x x y y y y w w y i i y i w a w t y u y u y p i g m l j g g g f c x g g M n j N 3 O.",
"T *.&.W %.W W W W &.%.W *.&.&.*.W &.W W R E %.*.*.R W W W W E &.E W W W W &.W W W W %.&.&.W W W &.Y "
};
